<?xml version="1.0" encoding="UTF-8"?>
<!DOCTYPE svg PUBLIC "-//W3C//DTD SVG 1.1//EN" "http://www.w3.org/Graphics/SVG/1.1/DTD/svg11.dtd">
<svg version="1.1" xmlns="http://www.w3.org/2000/svg" xmlns:xlink="http://www.w3.org/1999/xlink" x="0" y="0" width="148" height="82" viewBox="0, 0, 148, 82">
  <g id="Layer_1">
    <g id="Group_85">
      <path d="M123.908,73.083 L123.863,73.257 C123.649,73.592 123.523,73.976 123.496,74.372 L123.506,74.358 C123.335,74.39 123.334,74.514 123.348,74.646 L123.357,74.634 C123.298,74.616 123.234,74.624 123.18,74.655 C123.127,74.686 123.088,74.738 123.074,74.798 L123.086,74.787 C122.8,74.886 122.502,74.945 122.199,74.963 C120.842,74.943 119.485,74.936 118.128,74.925 L118.141,74.933 C117.941,74.511 117.91,74.028 118.054,73.583 C118.373,72.49 118.635,71.381 118.84,70.26 L118.832,70.274 C118.969,70.219 118.984,70.103 118.982,69.974 L118.972,69.986 C119.124,69.943 119.145,69.83 119.129,69.697 L119.119,69.707 C119.242,69.739 119.369,69.67 119.407,69.548 L119.394,69.559 C119.492,69.558 119.581,69.501 119.623,69.412 L119.608,69.419 L124.215,69.419 L124.202,69.41 C124.237,69.533 124.364,69.605 124.487,69.571 L124.479,69.558 L124.479,70.821 L124.463,70.98 C124.214,71.237 124.113,71.602 124.195,71.95 L124.179,72.11 C123.926,72.366 123.823,72.734 123.908,73.083 z M120.401,70.831 C120.269,70.858 120.289,70.906 120.382,70.965 L120.366,71.124 C119.915,72.162 119.627,73.264 119.512,74.389 C120.362,74.264 121.1,74.565 121.812,74.213 L121.798,74.224 C121.976,74.192 121.949,74.054 121.95,73.931 L121.942,73.945 C122.256,73.224 122.45,72.457 122.515,71.673 L122.508,71.687 C122.708,71.187 123.036,70.706 122.788,70.124 L122.802,70.137 C122.115,69.892 121.364,69.893 120.678,70.142 L120.688,70.124 C120.357,70.269 120.388,70.56 120.396,70.843 z" fill="#3A61BF" id="Path_240"/>
      <path d="M108.135,70.178 L108.003,70.31 C107.562,71.254 107.634,71.371 108.645,71.376 C109.365,71.376 110.086,71.39 110.806,71.398 L110.793,71.389 C110.828,71.512 110.955,71.584 111.078,71.55 L111.07,71.537 C111.116,72.063 111.056,72.592 110.893,73.094 C110.755,73.459 110.674,73.842 110.653,74.231 L110.662,74.218 C110.489,74.252 110.506,74.385 110.509,74.511 L110.517,74.498 C110.439,74.499 110.364,74.531 110.31,74.588 C110.255,74.644 110.226,74.72 110.227,74.798 L110.239,74.788 C108.666,74.988 107.077,75.047 105.493,74.963 C105.37,74.496 105.488,74.347 105.879,74.358 C106.696,74.381 107.513,74.377 108.33,74.363 C108.544,74.363 108.805,74.48 108.965,74.216 L108.95,74.228 C109.173,74.121 109.174,73.89 109.23,73.698 C109.475,72.857 109.443,72.817 108.589,72.815 C107.863,72.815 107.137,72.815 106.41,72.815 L106.424,72.823 C106.37,72.711 106.247,72.649 106.124,72.672 L106.134,72.682 C106.134,72.582 106.095,72.524 105.988,72.526 L105.996,72.539 C106.065,71.618 106.255,70.711 106.561,69.839 L106.551,69.851 C106.659,69.851 106.699,69.794 106.7,69.696 L106.689,69.707 C106.789,69.707 106.848,69.665 106.844,69.557 L106.832,69.567 C106.961,69.577 107.08,69.567 107.132,69.416 L107.118,69.424 L111.585,69.424 C111.698,69.853 111.6,70.016 111.196,70.003 C110.374,69.977 109.55,69.979 108.728,69.995 C108.525,69.999 108.244,69.84 108.135,70.178 z" fill="#3A61BF" id="Path_241"/>
      <path d="M113.179,74.072 L113.134,74.244 C112.855,74.386 113.015,74.729 112.794,74.956 C112.297,74.99 111.798,74.968 111.305,74.889 C111.673,73.414 112.027,71.989 112.385,70.575 C112.424,70.421 112.538,70.275 112.373,70.128 L112.397,69.986 C112.697,69.917 112.523,69.554 112.738,69.426 L117.72,69.426 L117.707,69.418 C117.707,69.529 117.776,69.554 117.865,69.563 L117.853,69.553 C117.856,69.636 117.923,69.703 118.005,69.706 L117.996,69.695 C117.953,70.665 117.76,71.622 117.424,72.533 L117.43,72.52 C117.318,72.509 117.272,72.563 117.282,72.672 L117.293,72.664 C116.036,73.164 114.71,72.854 113.393,72.982 C113.206,73.313 113.131,73.695 113.179,74.072 z M116.305,70.839 C116.507,70.642 116.512,70.319 116.316,70.116 C115.749,69.839 115.145,70.062 114.564,69.985 C114.109,69.924 113.989,70.152 114.038,70.55 C113.832,70.697 113.919,70.918 113.896,71.112 C113.683,71.513 113.569,71.959 113.564,72.412 C114.321,72.27 115.041,72.535 115.739,72.246 C116.221,72.136 116.111,71.727 116.164,71.4 C116.37,71.254 116.282,71.033 116.305,70.839 z" fill="#3A61BF" id="Path_242"/>
      <path d="M134.213,73.788 L134.171,73.961 C134.013,74.108 133.93,74.318 133.944,74.532 C133.944,74.819 133.818,74.974 133.518,74.959 C133.099,74.985 132.679,74.967 132.263,74.906 L133.504,69.992 C133.009,69.992 132.586,69.966 132.169,70 C131.782,70.03 131.831,69.789 131.83,69.557 L131.823,69.571 C132.036,69.428 132.294,69.367 132.548,69.399 C133.485,69.404 134.422,69.389 135.358,69.406 C135.882,69.349 136.411,69.39 136.919,69.528 C136.47,70.428 135.629,69.716 135.081,70.078 C134.95,70.309 134.873,70.567 134.857,70.832 C134.556,71.797 134.341,72.786 134.213,73.788 z" fill="#3A61BF" id="Path_243"/>
      <path d="M130.551,72.1 C130.451,72.092 130.403,72.139 130.409,72.24 L129.591,72.494 C129.629,73.297 129.722,74.097 129.869,74.887 C129.36,74.981 128.839,74.996 128.324,74.93 C128.154,74.272 128.041,73.601 127.987,72.923 C127.957,72.723 127.951,72.423 127.68,72.458 C127.32,72.508 126.871,72.167 126.599,72.666 C126.177,73.102 126.253,73.711 126.063,74.229 C126.023,74.468 125.951,74.7 125.85,74.919 C125.346,74.98 124.836,74.984 124.33,74.93 L125.712,69.401 C126.983,69.401 128.289,69.41 129.595,69.401 C130.062,69.382 130.528,69.441 130.974,69.575 C131.136,70.357 130.689,71.062 130.693,71.824 C130.525,71.853 130.546,71.98 130.551,72.1 z M127.025,70.703 L127.032,70.688 C126.822,70.84 126.898,71.065 126.884,71.267 L126.891,71.252 C126.707,71.414 126.708,71.598 126.822,71.845 C127.549,71.708 128.297,72.031 129.005,71.672 L128.991,71.684 C129.355,71.197 129.51,70.586 129.424,69.984 C128.738,69.984 128.124,69.984 127.524,69.984 C127.369,69.984 127.174,69.945 127.167,70.201 L127.175,70.186 C126.98,70.322 127.036,70.522 127.025,70.703 z" fill="#3A61BF" id="Path_244"/>
      <path d="M90.025,37.213 C90.025,41.632 86.444,45.213 82.025,45.213 C77.607,45.213 74.025,41.632 74.025,37.213 C74.025,32.795 77.607,29.213 82.025,29.213 C86.444,29.213 90.025,32.795 90.025,37.213 z" fill="#3A61BF" id="Ellipse_29"/>
      <path d="M79.866,21.268 L94.582,14.086 L94.649,14.201 L80.916,22.573 C82.036,24.094 83.184,25.535 84.279,27.173 C81.574,27.062 78.917,27.912 76.779,29.573 C74.582,31.115 72.94,33.324 72.098,35.873 L68.133,30.464 C67.863,30.521 67.61,30.644 67.397,30.821 C61.357,34.495 55.328,38.189 49.275,41.842 C47.436,43.028 45.403,43.884 43.268,44.37 C42.603,44.528 41.917,44.578 41.236,44.517 C38.649,44.196 37.082,42.327 37.011,39.401 C37.033,37.421 37.464,35.467 38.277,33.661 C39.973,29.813 42.014,26.127 44.375,22.647 C46.021,19.985 47.926,17.493 50.063,15.207 C51.504,13.652 53.155,12.306 54.968,11.207 C58.868,8.826 63.735,8.683 67.768,10.829 C70.792,12.368 73.533,14.408 75.875,16.861 C77.259,18.239 78.549,19.703 79.866,21.268 z M66.056,27.839 C64.347,25.692 62.46,23.693 60.414,21.863 C59.229,20.79 57.896,19.893 56.456,19.197 C53.406,17.797 50.722,18.445 48.735,21.137 C47.076,23.328 45.672,25.701 44.55,28.21 C44.01,29.334 43.694,30.553 43.62,31.797 C43.544,32.499 43.752,33.201 44.198,33.748 C44.644,34.295 45.291,34.639 45.993,34.704 C47.629,34.938 49.296,34.772 50.852,34.218 C56.105,32.638 60.935,30.049 66.056,27.839 z" fill="#3A61BF" id="Path_245"/>
      <path d="M108.125,64.022 L110.715,66.568 C109.237,66.568 107.815,66.568 106.393,66.568 C106.226,66.581 106.065,66.505 105.967,66.368 C105.607,65.828 105.167,65.891 104.636,66.101 C103.82,66.406 102.953,66.557 102.081,66.546 C99.803,66.556 97.522,66.675 95.247,66.471 C91.36,66.054 88.209,63.133 87.5,59.288 C86.969,56.901 87.372,54.401 88.625,52.3 C90.197,49.794 92.956,48.28 95.914,48.3 C98.285,48.167 100.662,48.19 103.029,48.37 C107.373,48.707 110.746,52.295 110.814,56.651 C111.007,59.379 110.029,62.06 108.125,64.022 z M105.906,61.707 C105.986,61.673 106.061,61.63 106.131,61.578 C107.773,59.793 108.185,57.199 107.179,54.992 C106.376,52.845 104.303,51.441 102.011,51.492 C100.111,51.424 98.202,51.448 96.297,51.479 C94.71,51.461 93.185,52.099 92.084,53.244 C90.983,54.388 90.404,55.937 90.484,57.522 C90.437,59.085 91.038,60.598 92.144,61.703 C93.25,62.808 94.763,63.407 96.325,63.358 C98.3,63.382 100.276,63.352 102.251,63.339 C102.402,63.339 102.58,63.402 102.751,63.186 L100.66,61.058 C102.007,61.058 103.175,61.072 104.343,61.053 C104.962,61.042 105.571,61.015 105.909,61.711 z" fill="#3A61BF" id="Path_246"/>
      <path d="M71.389,61.044 L76.78,66.478 C76.259,66.579 75.727,66.61 75.198,66.57 C74.352,66.582 73.504,66.553 72.659,66.582 C72.285,66.604 71.921,66.451 71.675,66.167 C70.262,64.72 68.82,63.302 67.412,61.851 C67.13,61.54 66.721,61.374 66.301,61.4 C64.261,61.421 62.221,61.409 60.141,61.409 L60.141,58.343 C60.369,58.192 60.635,58.272 60.883,58.271 C63.493,58.264 66.103,58.283 68.713,58.259 C69.974,58.344 71.213,57.904 72.138,57.043 C72.888,56.242 73.18,55.116 72.915,54.051 C72.65,52.986 71.863,52.129 70.825,51.772 C70.289,51.592 69.729,51.497 69.163,51.488 Q63.837,51.48 58.511,51.482 C58.416,51.493 58.321,51.51 58.227,51.533 L58.227,66.538 L55.087,66.538 L55.087,48.338 C55.187,48.211 55.363,48.268 55.519,48.268 C59.819,48.268 64.125,48.253 68.428,48.278 C69.961,48.253 71.479,48.578 72.866,49.229 C75.135,50.235 76.522,52.562 76.329,55.035 C76.326,57.433 74.885,59.596 72.673,60.522 C72.26,60.722 71.819,60.872 71.389,61.044 z" fill="#3A61BF" id="Path_247"/>
      <path d="M136.977,66.543 C135.769,66.543 134.554,66.532 133.339,66.55 C132.97,66.555 132.869,66.294 132.728,66.06 C131.903,64.694 131.065,63.335 130.27,61.951 C130.087,61.572 129.684,61.35 129.265,61.398 C126.657,61.421 124.05,61.409 121.395,61.409 C121.511,60.976 121.718,60.572 122.001,60.224 C122.376,59.576 122.66,58.739 123.232,58.379 C123.832,57.999 124.74,58.286 125.512,58.271 C126.312,58.255 127.112,58.271 128.033,58.271 L124.854,53.001 C123.533,55.168 122.254,57.27 120.969,59.372 C119.614,61.597 118.25,63.818 116.915,66.054 C116.754,66.394 116.395,66.595 116.021,66.554 C114.902,66.526 113.781,66.545 112.667,66.545 C112.613,66.232 112.792,66.085 112.894,65.915 Q117.623,58.035 122.36,50.162 C122.727,49.53 123.238,48.994 123.851,48.596 C124.525,48.118 125.431,48.128 126.094,48.62 C126.628,48.968 127.073,49.435 127.394,49.984 Q132.135,58.06 136.862,66.142 C136.925,66.251 137.051,66.361 136.977,66.543 z" fill="#3A61BF" id="Path_248"/>
      <path d="M20.713,61.316 L22.459,58.44 C22.597,58.211 22.825,58.269 23.03,58.268 C24.23,58.268 25.43,58.268 26.63,58.268 C26.878,58.305 27.132,58.28 27.367,58.193 L24.242,53.017 C24.069,53.289 23.933,53.494 23.806,53.704 Q20.066,59.835 16.341,65.976 C16.167,66.364 15.764,66.597 15.341,66.554 C14.241,66.511 13.141,66.541 12.054,66.541 C11.947,66.272 12.127,66.141 12.215,65.996 Q16.965,58.087 21.725,50.181 C22.101,49.526 22.63,48.973 23.267,48.568 C23.93,48.117 24.804,48.13 25.452,48.6 C25.972,48.928 26.407,49.373 26.722,49.9 Q31.516,58.067 36.298,66.242 C36.371,66.324 36.39,66.442 36.346,66.542 C35.132,66.542 33.898,66.542 32.664,66.542 C32.328,66.542 32.247,66.281 32.118,66.067 C31.281,64.681 30.436,63.299 29.618,61.899 C29.457,61.562 29.101,61.362 28.729,61.399 C26.308,61.422 23.886,61.412 21.465,61.407 C21.211,61.447 20.951,61.415 20.713,61.316 z" fill="#3A61BF" id="Path_249"/>
      <path d="M52.925,63.369 L52.925,66.537 L37.276,66.537 L37.276,48.322 L40.376,48.322 L40.376,63.369 z" fill="#3A61BF" id="Path_250"/>
      <path d="M80.489,48.271 L83.655,48.271 L83.655,66.557 L80.489,66.557 z" fill="#3A61BF" id="Path_251"/>
      <path d="M95.292,13.832 C95.196,13.952 95.044,14.013 94.892,13.991 C94.905,13.752 95.117,13.838 95.227,13.768 C95.249,13.79 95.271,13.811 95.292,13.832 z" fill="#3A61BF" id="Path_252"/>
      <path d="M95.225,13.768 C95.271,13.71 95.319,13.654 95.383,13.743 C95.354,13.775 95.323,13.805 95.289,13.832 C95.271,13.811 95.249,13.79 95.225,13.768 z" fill="#3A61BF" id="Path_253"/>
      <path d="M95.645,13.603 L95.602,13.614 L95.608,13.579 z" fill="#3A61BF" id="Path_254"/>
    </g>
  </g>
</svg>
