<?xml version="1.0" encoding="UTF-8"?>
<!DOCTYPE svg PUBLIC "-//W3C//DTD SVG 1.1//EN" "http://www.w3.org/Graphics/SVG/1.1/DTD/svg11.dtd">
<svg version="1.1" xmlns="http://www.w3.org/2000/svg" xmlns:xlink="http://www.w3.org/1999/xlink" x="0" y="0" width="200" height="150" viewBox="0, 0, 200, 150">
  <g id="Layer_1">
    <path d="M154.292,102.12 C150.786,98.356 146.919,95.16 142.846,92.582 C146.867,90.004 150.734,86.755 154.24,82.992 C149.651,80.672 144.908,78.97 140.216,77.939 C143.103,74.123 145.63,69.741 147.692,65.049 C142.588,64.43 137.587,64.482 132.792,65.101 C134.235,60.512 135.112,55.562 135.37,50.406 C130.368,51.592 125.625,53.294 121.397,55.511 C121.139,50.716 120.314,45.766 118.819,40.816 C114.54,43.652 110.673,46.9 107.425,50.406 C105.568,45.972 103.042,41.641 99.948,37.516 C96.855,41.641 94.38,46.024 92.524,50.458 C89.276,46.9 85.409,43.652 81.129,40.868 L81.129,40.868 C79.634,45.766 78.809,50.716 78.551,55.511 C74.272,53.294 69.58,51.592 64.579,50.406 C64.888,55.562 65.765,60.512 67.208,65.101 C62.413,64.482 57.412,64.482 52.256,65.101 C54.267,69.844 56.793,74.175 59.732,77.99 C55.04,79.073 50.297,80.775 45.708,83.095 C49.214,86.859 53.081,90.055 57.154,92.633 C53.133,95.211 49.266,98.459 45.76,102.223 C50.349,104.543 55.092,106.245 59.784,107.276 C56.897,111.091 54.37,115.474 52.308,120.166 C57.412,120.785 62.413,120.733 67.157,120.166 C65.713,124.755 64.837,129.704 64.579,134.809 C69.58,133.623 74.324,131.921 78.551,129.704 C78.758,134.499 79.634,139.449 81.129,144.399 C85.409,141.563 89.276,138.366 92.524,134.809 C94.38,139.243 96.906,143.625 100,147.75 C103.094,143.625 105.568,139.243 107.425,134.809 C110.673,138.366 114.54,141.614 118.871,144.399 C120.366,139.501 121.191,134.551 121.449,129.704 C125.728,131.921 130.471,133.623 135.473,134.809 C135.163,129.653 134.287,124.755 132.843,120.166 C137.587,120.785 142.639,120.785 147.744,120.166 C145.733,115.422 143.207,111.091 140.268,107.276 C144.96,106.142 149.703,104.44 154.292,102.12 z" fill="#009900"/>
    <path d="M140.268,107.224 C137.587,103.718 134.545,100.625 131.245,98.099 C135.215,96.861 139.082,94.953 142.846,92.582 C139.082,90.21 135.215,88.354 131.245,87.116 C134.545,84.59 137.535,81.496 140.268,77.939 C135.937,76.959 131.657,76.547 127.481,76.753 C129.698,73.247 131.503,69.328 132.792,65.049 C128.409,65.616 124.233,66.699 120.366,68.297 C121.242,64.224 121.603,59.945 121.346,55.459 C117.427,57.521 113.869,59.945 110.827,62.78 C110.26,58.656 109.126,54.479 107.373,50.406 C104.331,53.706 101.856,57.212 99.948,60.924 C98.041,57.264 95.514,53.706 92.472,50.458 C90.771,54.531 89.637,58.707 89.121,62.78 C86.079,59.996 82.47,57.521 78.5,55.511 C78.294,59.945 78.655,64.276 79.531,68.349 C75.716,66.751 71.539,65.719 67.105,65.152 C68.446,69.38 70.25,73.299 72.467,76.805 C68.343,76.65 64.012,77.062 59.629,78.042 C62.31,81.548 65.352,84.642 68.652,87.168 C64.682,88.405 60.815,90.313 57.051,92.685 C60.815,95.057 64.682,96.913 68.652,98.15 C65.352,100.676 62.362,103.77 59.629,107.328 C63.96,108.307 68.24,108.72 72.364,108.513 C70.147,112.019 68.343,115.938 67.054,120.217 C71.436,119.65 75.664,118.567 79.479,116.969 C78.603,120.991 78.242,125.322 78.448,129.756 C82.418,127.693 85.976,125.27 89.018,122.486 C89.585,126.611 90.719,130.787 92.421,134.86 C95.411,131.56 97.938,128.054 99.845,124.394 C101.753,128.054 104.279,131.612 107.321,134.86 C109.023,130.787 110.157,126.611 110.724,122.486 C113.766,125.27 117.375,127.745 121.346,129.756 C121.552,125.322 121.191,120.991 120.314,116.969 C124.13,118.567 128.358,119.599 132.74,120.166 C131.4,115.938 129.595,112.019 127.378,108.513 C131.606,108.617 135.937,108.204 140.268,107.224 z" fill="#99CC00"/>
    <path d="M121.397,92.633 C124.852,91.344 128.203,89.488 131.296,87.116 C127.584,85.931 123.82,85.363 120.16,85.312 C122.995,82.94 125.47,80.053 127.533,76.753 C123.666,76.908 119.902,77.63 116.447,78.918 C118.304,75.722 119.644,72.164 120.469,68.349 C116.86,69.844 113.612,71.803 110.776,74.175 C111.395,70.514 111.446,66.699 110.931,62.832 C108.043,65.462 105.62,68.452 103.764,71.649 C103.094,67.988 101.856,64.379 100.052,60.924 C98.299,64.379 97.01,67.936 96.391,71.546 C94.535,68.349 92.111,65.41 89.224,62.78 C88.709,66.647 88.76,70.463 89.379,74.123 C86.543,71.752 83.243,69.793 79.634,68.349 C80.459,72.164 81.8,75.722 83.656,78.918 C80.201,77.681 76.437,76.959 72.571,76.805 C74.684,80.104 77.159,82.94 79.943,85.363 C76.231,85.363 72.467,85.982 68.755,87.168 C71.849,89.54 75.148,91.396 78.655,92.633 C75.2,93.922 71.849,95.778 68.755,98.15 C72.467,99.284 76.231,99.903 79.892,99.955 C77.056,102.326 74.581,105.214 72.467,108.513 C76.334,108.359 80.098,107.637 83.553,106.4 C81.696,109.596 80.356,113.205 79.531,116.969 C83.14,115.474 86.388,113.515 89.224,111.143 C88.605,114.804 88.554,118.568 89.069,122.434 C91.957,119.805 94.38,116.866 96.236,113.669 C96.906,117.33 98.144,120.888 99.948,124.342 C101.753,120.888 102.99,117.33 103.661,113.669 C105.517,116.866 107.94,119.805 110.827,122.434 C111.343,118.568 111.291,114.752 110.673,111.143 C113.509,113.515 116.808,115.474 120.417,116.969 C119.592,113.154 118.252,109.596 116.396,106.4 C119.902,107.637 123.614,108.359 127.533,108.513 C125.419,105.214 122.944,102.378 120.108,99.955 C123.82,99.955 127.584,99.336 131.296,98.15 C128.151,95.727 124.852,93.871 121.397,92.633 z" fill="#FFFF00" id="_x0032_"/>
    <path d="M110.827,94.489 C114.437,94.489 117.994,93.819 121.346,92.582 C117.943,91.344 114.437,90.674 110.827,90.674 C114.23,89.437 117.324,87.58 120.057,85.26 C116.447,85.26 112.89,85.827 109.487,87.065 C112.271,84.745 114.54,81.96 116.344,78.815 C112.941,80.053 109.848,81.806 107.064,84.126 C108.868,80.981 110.054,77.578 110.673,74.072 C107.889,76.392 105.568,79.125 103.712,82.27 C104.331,78.712 104.279,75.103 103.661,71.546 C101.856,74.639 100.619,77.99 100,81.496 C99.381,77.939 98.092,74.536 96.288,71.442 C95.669,75 95.617,78.609 96.236,82.167 C94.432,79.022 92.06,76.289 89.327,73.969 C89.946,77.526 91.132,80.929 92.936,84.023 C90.152,81.703 87.007,79.95 83.656,78.712 C85.46,81.857 87.729,84.59 90.513,86.962 C87.11,85.724 83.553,85.157 79.995,85.157 C82.728,87.477 85.821,89.282 89.224,90.571 C85.615,90.571 82.057,91.241 78.655,92.479 C82.057,93.716 85.563,94.386 89.173,94.386 C85.77,95.624 82.676,97.48 79.892,99.8 C83.501,99.8 87.059,99.233 90.462,97.995 C87.677,100.316 85.409,103.1 83.604,106.245 C87.007,105.007 90.152,103.254 92.885,100.934 C91.08,104.079 89.894,107.482 89.276,111.04 C92.06,108.72 94.38,105.987 96.185,102.894 C95.566,106.451 95.617,110.06 96.236,113.566 C98.041,110.473 99.33,107.07 99.948,103.564 C100.567,107.121 101.856,110.473 103.661,113.618 C104.279,110.06 104.331,106.503 103.712,102.945 C105.517,106.09 107.889,108.823 110.621,111.091 C110.002,107.534 108.817,104.182 107.012,101.037 C109.796,103.358 112.941,105.111 116.344,106.348 C114.54,103.203 112.271,100.47 109.487,98.099 C112.89,99.336 116.447,99.903 120.057,99.903 C117.324,97.583 114.23,95.778 110.827,94.489 z" fill="#FFFFFF" id="_x0031_"/>
  </g>
  <g id="Layer_2">
    <path d="M129.543,19.007 C129.543,22.152 128.409,26.483 123.975,26.483 C118.613,26.483 118.613,20.45 118.613,19.213 C118.613,17.976 118.613,11.582 124.13,11.582 C129.131,11.531 129.543,17.099 129.543,19.007 z M118.716,2.25 L115.107,2.25 L115.107,25.349 L115.004,28.803 L118.458,28.803 L118.561,25.916 C118.922,26.483 119.386,27.153 120.417,27.875 C122.067,29.009 123.769,29.112 124.697,29.112 C127.326,29.112 129.904,27.978 131.451,25.813 C132.431,24.575 133.307,22.513 133.307,18.8 C133.307,14.573 132.018,12.665 131.039,11.582 C129.286,9.571 126.862,9.107 124.955,9.107 C120.572,9.107 119.18,11.531 118.664,12.407 L118.664,2.25 L118.716,2.25 z" fill="#009900"/>
    <path d="M139.494,19.78 C139.494,18.079 139.494,11.995 145.217,11.995 C149.445,11.995 150.476,15.604 150.476,19.058 C150.476,20.45 150.27,23.183 148.93,25.091 C147.692,26.792 145.785,26.947 144.856,26.947 C139.855,26.895 139.494,22.1 139.494,19.78 z M136.091,36.176 L139.649,36.176 L139.649,26.689 C140.68,28.391 142.743,29.576 145.527,29.576 C150.116,29.576 154.292,26.431 154.292,19.265 C154.292,12.149 150.373,9.314 146.249,9.314 C144.702,9.314 141.505,9.778 139.701,12.82 L139.649,9.623 L136.04,9.623 C136.091,11.479 136.143,11.943 136.143,12.768 L136.091,36.176 L136.091,36.176 z" fill="#009900"/>
  </g>
</svg>
