<?xml version="1.0" encoding="UTF-8"?>
<!DOCTYPE svg PUBLIC "-//W3C//DTD SVG 1.1//EN" "http://www.w3.org/Graphics/SVG/1.1/DTD/svg11.dtd">
<svg version="1.1" xmlns="http://www.w3.org/2000/svg" xmlns:xlink="http://www.w3.org/1999/xlink" x="0" y="0" width="191.88" height="84" viewBox="0, 0, 191.88, 84">
  <g id="Layer_1">
    <path d="M76.731,41.121 C76.691,40.625 76.763,40.126 76.941,39.661 C76.941,39.611 77.001,39.571 77.011,39.531 C77.451,38.081 77.651,38.531 76.521,37.531 C76.164,37.203 75.895,36.791 75.741,36.331 C75.741,36.211 75.651,36.071 75.601,35.941 C75.181,35.011 74.451,34.881 73.721,35.611 C73.173,36.277 72.756,37.041 72.491,37.861 C72.229,38.583 71.855,39.258 71.381,39.861 C71.105,40.256 70.645,40.48 70.164,40.453 C69.684,40.427 69.251,40.154 69.021,39.731 C68.103,38.303 67.803,36.564 68.191,34.911 C68.821,31.281 71.001,28.701 73.811,26.551 C76.536,24.594 79.462,22.935 82.541,21.601 C84.06,20.85 85.619,20.182 87.211,19.601 C87.581,19.471 87.961,19.391 88.391,19.271 C88.201,19.751 87.781,19.791 87.451,19.921 C83.309,21.588 79.362,23.704 75.681,26.231 C73.014,27.973 70.855,30.387 69.421,33.231 C69.012,34.055 68.777,34.953 68.731,35.871 C68.66,36.748 69,37.609 69.651,38.201 C69.857,38.477 70.191,38.628 70.534,38.599 C70.878,38.571 71.183,38.368 71.341,38.061 C71.881,37.241 72.34,36.371 72.711,35.461 C73.016,34.634 73.585,33.931 74.331,33.461 C74.669,33.212 75.111,33.156 75.5,33.313 C75.89,33.47 76.17,33.818 76.241,34.231 C76.445,35.029 76.914,35.734 77.571,36.231 C78.091,36.571 78.191,36.551 78.471,36.011 C78.77,35.383 79.176,34.811 79.671,34.321 C80.299,33.703 81.21,33.466 82.061,33.701 C83.391,34.021 84.641,34.601 85.991,34.861 C86.821,35.032 87.664,35.139 88.511,35.181 C88.687,35.207 88.865,35.156 89.001,35.041 C89.081,34.971 89.171,34.831 89.301,34.951 C89.431,35.071 89.361,35.181 89.301,35.301 C89.131,35.821 88.951,36.301 88.771,36.871 C88.752,36.983 88.683,37.08 88.584,37.135 C88.484,37.19 88.365,37.196 88.261,37.151 C86.781,36.841 86.691,36.861 86.161,38.271 C85.822,39.072 85.708,39.95 85.831,40.811 C85.933,41.57 86.348,42.251 86.974,42.692 C87.6,43.132 88.382,43.291 89.131,43.131 C90.975,42.833 92.704,42.038 94.131,40.831 C94.901,40.301 95.63,39.712 96.311,39.071 C96.491,38.891 96.701,38.711 96.611,38.401 C96.521,38.091 96.411,37.841 95.971,37.941 C95.334,38.09 94.684,38.174 94.031,38.191 C92.721,38.191 91.611,37.361 92.031,35.781 C92.261,34.942 92.764,34.203 93.461,33.681 C94.131,33.191 94.771,33.311 95.461,33.981 C96.01,34.441 96.506,34.961 96.941,35.531 C97.071,35.731 97.171,35.761 97.401,35.681 C97.712,35.62 97.983,35.432 98.15,35.163 C98.317,34.894 98.364,34.567 98.281,34.261 C97.951,31.901 97.601,29.541 97.281,27.171 C97.14,26.492 97.239,25.785 97.561,25.171 C97.735,24.882 97.735,24.52 97.561,24.231 C97.234,23.621 96.863,23.036 96.451,22.481 C96.263,22.268 96.227,21.962 96.361,21.711 C96.403,21.638 96.44,21.561 96.471,21.481 C96.761,20.541 96.761,20.531 97.471,21.161 C98.216,21.745 98.887,22.416 99.471,23.161 C99.661,23.441 99.811,23.741 99.241,23.781 C98.931,23.781 99.071,23.991 99.161,24.151 C99.901,25.321 100.721,26.431 101.531,27.551 C102.494,28.821 103.272,30.222 103.841,31.711 C104.351,33.157 104.431,34.721 104.071,36.211 C103.677,38.191 102.718,40.014 101.311,41.461 C100.518,42.261 99.549,42.864 98.481,43.221 C97.551,43.531 96.651,43.931 95.731,44.281 C95.591,44.341 95.381,44.501 95.281,44.281 C95.181,44.061 95.431,44.041 95.551,43.961 C97.001,43.081 98.371,42.091 99.731,41.071 C100.926,40.243 101.946,39.186 102.731,37.961 C103.557,36.55 103.675,34.833 103.051,33.321 C102.191,30.901 100.581,28.941 99.181,26.851 C99.001,26.591 98.831,26.331 98.651,26.081 C98.581,25.981 98.511,25.841 98.371,25.921 C98.231,26.001 98.291,26.101 98.301,26.201 C98.421,27.091 98.541,27.981 98.651,28.881 C98.831,30.301 99.131,31.711 99.181,33.141 C99.287,34.558 98.802,35.955 97.841,37.001 C97.563,37.288 97.409,37.672 97.411,38.071 C97.36,39.066 96.956,40.009 96.271,40.731 C94.702,42.498 92.719,43.848 90.501,44.661 C89.205,45.276 87.678,45.151 86.501,44.331 C85.751,43.776 85.272,42.93 85.181,42.001 C85.022,40.551 85.21,39.084 85.731,37.721 C85.731,37.571 85.911,37.421 85.731,37.281 C85.551,37.141 85.451,37.281 85.311,37.371 C84.043,37.919 82.727,38.347 81.381,38.651 C80.375,38.921 79.316,38.921 78.311,38.651 C77.941,38.521 77.901,38.811 77.811,39.011 C77.561,39.561 77.321,40.111 77.091,40.671 C77.049,40.87 76.915,41.037 76.731,41.121 z M83.621,36.121 L81.481,35.601 C80.587,35.376 79.646,35.721 79.111,36.471 C78.861,36.721 78.911,36.871 79.271,36.951 C80.698,37.136 82.149,36.932 83.471,36.361 C84.792,35.79 83.531,36.271 83.621,36.171 z M94.561,36.261 L94.871,36.261 C95.001,36.261 95.181,36.311 95.241,36.161 C95.301,36.011 95.121,35.891 95.001,35.801 C94.699,35.576 94.361,35.403 94.001,35.291 C93.729,35.212 93.437,35.312 93.271,35.541 C93.071,35.771 93.081,35.931 93.401,36.041 C93.771,36.191 94.162,36.282 94.561,36.311 z" fill="#FFFFFF"/>
    <path d="M59.131,32.001 C59.221,32.581 59.291,33.121 59.391,33.651 C59.391,33.821 59.581,33.831 59.721,33.801 C59.861,33.771 60.161,33.701 60.371,33.631 C60.945,33.43 61.581,33.528 62.067,33.894 C62.554,34.26 62.825,34.844 62.791,35.451 C62.762,35.984 62.633,36.506 62.411,36.991 C62.253,37.363 61.937,37.644 61.55,37.758 C61.163,37.873 60.745,37.808 60.411,37.581 C59.888,37.302 59.46,36.874 59.181,36.351 C58.871,35.791 58.851,35.781 58.331,36.161 C57.689,36.655 56.943,36.996 56.151,37.161 C54.984,37.381 53.785,37.006 52.951,36.161 C52.221,35.511 52.421,35.461 51.461,35.981 C50.522,36.542 49.513,36.976 48.461,37.271 C47.553,37.553 46.567,37.431 45.755,36.938 C44.942,36.445 44.38,35.627 44.211,34.691 C43.83,32.901 43.612,31.08 43.561,29.251 C43.449,27.105 43.014,24.988 42.271,22.971 C42.071,22.484 42.071,21.938 42.271,21.451 C42.351,21.261 42.431,21.021 42.691,21.031 C42.951,21.041 42.981,21.261 43.061,21.421 C43.399,22.105 43.632,22.837 43.751,23.591 C44.234,26.264 44.568,28.961 44.751,31.671 C44.804,32.466 44.966,33.25 45.231,34.001 C45.694,35.245 47.008,35.951 48.301,35.651 C49.22,35.495 50.103,35.177 50.911,34.711 C51.171,34.571 51.181,34.471 50.971,34.301 C50.293,33.704 49.455,33.318 48.561,33.191 C48.242,33.165 47.934,33.31 47.751,33.571 C47.647,33.741 47.443,33.823 47.251,33.771 C47.051,33.691 47.131,33.471 47.121,33.311 C47.116,33.225 47.116,33.138 47.121,33.051 C47.121,31.931 47.291,31.741 48.411,31.401 C50.694,30.716 53.128,30.716 55.411,31.401 C56.521,31.701 56.891,32.401 56.411,33.271 C56.302,33.469 56.129,33.624 55.921,33.711 C55.301,33.991 54.711,34.311 54.091,34.581 C53.811,34.711 53.861,34.841 54.031,34.991 C54.465,35.379 55.041,35.568 55.621,35.511 C56.548,35.383 57.44,35.067 58.241,34.581 C58.604,34.344 58.747,33.882 58.581,33.481 C58.293,31.896 58.089,30.298 57.971,28.691 C57.731,26.751 57.491,24.811 57.151,22.891 C57.083,22.147 57.225,21.399 57.561,20.731 C57.589,20.628 57.684,20.558 57.791,20.561 C57.921,20.561 57.921,20.701 57.951,20.791 C58.24,21.773 58.451,22.776 58.581,23.791 C58.851,25.481 59.071,27.181 59.321,28.871 C59.377,29.285 59.516,29.683 59.731,30.041 C60.012,30.437 60.461,30.679 60.946,30.699 C61.431,30.719 61.898,30.513 62.211,30.141 C62.271,29.994 62.271,29.829 62.211,29.681 C61.961,28.041 61.651,26.411 61.261,24.791 C61.031,23.791 61.001,22.791 60.771,21.791 C60.651,21.321 60.991,20.791 61.201,20.381 C61.281,20.211 61.481,20.131 61.581,20.381 C61.941,21.381 62.491,22.271 62.921,23.231 C63.091,23.591 62.921,23.741 62.561,23.651 C62.201,23.561 62.251,23.931 62.281,24.091 C62.461,25.001 62.671,25.911 62.871,26.831 C63.232,28.189 63.176,29.625 62.711,30.951 C62.531,31.61 62.027,32.131 61.375,32.334 C60.723,32.536 60.012,32.392 59.491,31.951 C58.969,31.51 59.251,32.041 59.131,32.001 z M51.371,32.601 L51.311,32.731 L52.221,33.631 C52.351,33.761 52.501,33.831 52.641,33.741 C53.107,33.528 53.544,33.256 53.941,32.931 z M61.461,36.091 C61.571,36.091 61.741,36.091 61.861,35.991 C61.981,35.891 61.861,35.841 61.861,35.761 C61.527,35.359 61.008,35.159 60.491,35.231 C60.261,35.291 60.161,35.401 60.361,35.571 C60.634,35.9 61.033,36.1 61.461,36.121 z" fill="#FFFFFF"/>
    <path d="M1.071,36.161 C1.424,36.287 1.731,36.517 1.951,36.821 C3.962,39.066 6.615,40.638 9.551,41.321 C10.957,41.703 12.404,41.911 13.861,41.941 C15.534,42.045 17.214,41.937 18.861,41.621 C21.62,41.097 24.262,40.081 26.661,38.621 C27.094,38.335 27.488,37.992 27.831,37.601 C28.406,36.786 28.406,35.697 27.831,34.881 C27.621,34.391 27.351,33.881 27.141,33.431 C26.961,33.007 26.999,32.523 27.241,32.131 C27.321,31.981 27.431,31.801 27.611,31.811 C27.791,31.821 27.871,31.991 27.921,32.131 C28.186,32.679 28.603,33.141 29.121,33.461 C29.451,33.721 29.681,33.691 29.901,33.301 C30.593,32.037 31.5,30.904 32.581,29.951 C33.173,29.414 33.887,29.03 34.661,28.831 C35.35,28.646 36.087,28.786 36.661,29.211 C37.521,29.851 38.421,30.571 38.331,31.741 C38.335,32.943 37.667,34.047 36.601,34.601 C35.595,35.181 34.483,35.552 33.331,35.691 C33.061,35.691 32.791,35.831 32.771,36.141 C32.658,36.938 32.716,37.749 32.941,38.521 C33.373,39.677 34.634,40.292 35.811,39.921 C37.893,39.382 39.816,38.354 41.421,36.921 C41.582,36.817 41.694,36.653 41.734,36.465 C41.773,36.277 41.736,36.081 41.631,35.921 C41.001,34.905 40.472,33.83 40.051,32.711 C39.888,32.18 39.854,31.618 39.951,31.071 C39.951,30.837 40.099,30.628 40.321,30.551 C40.541,30.491 40.661,30.671 40.801,30.801 C41.226,31.211 41.608,31.663 41.941,32.151 C42.001,32.241 42.071,32.331 42.011,32.431 C41.951,32.531 41.841,32.481 41.741,32.431 C41.411,32.371 41.381,32.551 41.471,32.791 C41.615,33.162 41.803,33.515 42.031,33.841 C43.091,35.401 42.931,36.611 41.771,38.121 C40.728,39.346 39.417,40.314 37.941,40.951 C37.161,41.364 36.301,41.603 35.421,41.651 C33.926,41.673 32.632,40.619 32.351,39.151 C32.125,38.226 32.058,37.269 32.151,36.321 C32.151,35.891 32.021,35.811 31.651,35.831 C30.963,35.892 30.271,35.764 29.651,35.461 C29.401,35.341 29.211,35.401 29.201,35.741 C29.141,38.161 27.621,39.561 25.721,40.741 C23.528,42.102 21.088,43.016 18.541,43.431 C16.606,43.741 14.639,43.792 12.691,43.581 C10.709,43.352 8.756,42.923 6.861,42.301 C6.115,42.064 5.432,41.665 4.861,41.131 C3.566,40.06 2.437,38.803 1.511,37.401 C1.228,37.049 1.073,36.612 1.071,36.161 z M31.901,34.161 C32.9,34.153 33.894,34.001 34.851,33.711 C35.666,33.503 36.442,33.165 37.151,32.711 C37.381,32.551 37.531,32.381 37.381,32.111 C37.062,31.39 36.457,30.833 35.712,30.575 C34.966,30.317 34.147,30.381 33.451,30.751 C32.308,31.49 31.334,32.461 30.591,33.601 C30.431,33.801 30.501,33.931 30.761,34.001 C31.142,34.124 31.54,34.189 31.941,34.191 z" fill="#FFFFFF"/>
    <path d="M7.051,56.671 C6.811,57.191 6.561,57.731 6.321,58.271 C5.731,59.601 5.071,60.851 4.571,62.191 C4.571,62.301 4.491,62.451 4.341,62.441 C4.191,62.431 4.211,62.291 4.181,62.201 C3.581,60.731 2.971,59.261 2.411,57.781 C1.863,56.427 1.432,55.029 1.121,53.601 C0.847,52.705 0.885,51.742 1.231,50.871 C1.349,50.538 1.599,50.268 1.922,50.124 C2.246,49.98 2.614,49.976 2.941,50.111 C3.139,50.191 3.29,50.357 3.351,50.561 C3.351,50.711 3.351,50.881 3.151,50.821 C2.951,50.761 2.551,50.561 2.321,50.891 C2.085,51.255 1.985,51.691 2.041,52.121 C2.217,53.531 2.594,54.908 3.161,56.211 C3.571,57.331 4.021,58.431 4.461,59.541 C4.461,59.641 4.461,59.801 4.651,59.811 C4.841,59.821 4.861,59.661 4.921,59.531 C5.441,58.371 5.921,57.201 6.501,56.051 C6.653,55.644 6.62,55.192 6.411,54.811 C5.999,53.868 5.867,52.827 6.031,51.811 C6.06,51.444 6.24,51.106 6.528,50.876 C6.816,50.647 7.186,50.547 7.551,50.601 C8.297,50.69 8.833,51.364 8.751,52.111 C8.705,53.015 8.456,53.897 8.021,54.691 C7.897,54.958 7.897,55.265 8.021,55.531 C8.621,56.921 9.221,58.321 9.811,59.721 C9.871,59.861 9.891,60.051 10.091,60.061 C10.291,60.071 10.271,59.871 10.321,59.761 C11.314,57.919 12.054,55.951 12.521,53.911 C12.763,53.121 12.687,52.267 12.311,51.531 C12.124,51.209 11.76,51.031 11.391,51.081 C11.011,51.081 10.891,51.331 10.861,51.661 C10.864,51.715 10.843,51.768 10.805,51.806 C10.767,51.844 10.715,51.864 10.661,51.861 C10.531,51.861 10.451,51.771 10.371,51.671 C10.205,51.387 10.19,51.04 10.33,50.742 C10.469,50.445 10.746,50.235 11.071,50.181 C11.667,49.99 12.318,50.089 12.83,50.448 C13.343,50.807 13.657,51.386 13.681,52.011 C13.774,53.136 13.589,54.266 13.141,55.301 C12.262,57.538 11.26,59.725 10.141,61.851 C10.041,62.061 10.141,62.481 9.781,62.461 C9.421,62.441 9.431,62.031 9.321,61.781 C8.631,60.161 7.961,58.541 7.321,56.911 C7.231,56.801 7.231,56.701 7.051,56.671 z M8.051,52.331 C8.056,52.245 8.056,52.158 8.051,52.071 C7.971,51.731 7.921,51.321 7.471,51.331 C7.021,51.341 6.951,51.761 6.931,52.131 C6.895,52.719 7.005,53.306 7.251,53.841 C7.251,53.921 7.311,54.021 7.411,54.031 C7.518,54.035 7.613,53.964 7.641,53.861 C7.873,53.383 8.006,52.862 8.031,52.331 z" fill="#FFFFFF"/>
    <path d="M30.771,57.371 C30.771,58.371 30.771,59.371 30.771,60.371 C30.713,60.72 30.856,61.072 31.141,61.281 C31.241,61.341 31.361,61.441 31.321,61.571 C31.281,61.701 31.121,61.681 31.011,61.681 L29.181,61.681 C29.091,61.681 29.001,61.681 28.951,61.601 C28.901,61.521 28.951,61.391 29.051,61.341 C29.571,61.041 29.561,60.551 29.551,60.031 C29.551,58.031 29.551,56.031 29.551,54.031 C29.551,53.401 29.501,53.371 28.891,53.511 C28.583,53.57 28.307,53.737 28.111,53.981 C27.951,54.144 27.9,54.384 27.979,54.598 C28.058,54.812 28.254,54.961 28.481,54.981 C28.591,54.981 28.771,54.931 28.791,55.081 C28.811,55.231 28.671,55.351 28.521,55.431 C28.075,55.659 27.536,55.591 27.161,55.261 C26.814,54.92 26.732,54.391 26.961,53.961 C27.333,53.172 28.138,52.677 29.011,52.701 C29.441,52.701 29.591,52.551 29.551,52.121 C29.551,51.541 29.691,50.911 29.011,50.561 C28.972,50.539 28.945,50.501 28.935,50.457 C28.926,50.413 28.935,50.368 28.961,50.331 C29.009,50.236 29.117,50.186 29.221,50.211 C29.82,50.306 30.431,50.306 31.031,50.211 C31.133,50.18 31.242,50.226 31.291,50.321 C31.351,50.451 31.291,50.511 31.181,50.581 C31.071,50.651 30.781,50.821 30.781,51.091 C30.781,51.621 30.781,52.161 30.781,52.701 C30.781,52.791 30.881,52.821 30.971,52.851 C32.085,53.336 33.296,53.558 34.511,53.501 C34.833,53.443 35.151,53.359 35.461,53.251 C35.59,53.225 35.704,53.147 35.775,53.036 C35.847,52.925 35.87,52.79 35.841,52.661 C35.806,52.282 35.806,51.9 35.841,51.521 C35.915,51.174 35.768,50.816 35.471,50.621 C35.351,50.541 35.241,50.451 35.331,50.281 C35.421,50.111 35.531,50.181 35.651,50.201 C36.218,50.276 36.793,50.276 37.361,50.201 C37.471,50.201 37.571,50.201 37.631,50.291 C37.654,50.34 37.657,50.397 37.638,50.447 C37.619,50.498 37.58,50.539 37.531,50.561 C37.061,50.811 37.101,51.251 37.101,51.691 C37.101,54.581 37.101,57.481 37.101,60.371 C37.101,60.731 37.101,61.031 37.471,61.221 C37.571,61.281 37.681,61.371 37.641,61.511 C37.601,61.651 37.431,61.611 37.321,61.611 L35.631,61.611 C35.511,61.611 35.361,61.611 35.311,61.511 C35.261,61.411 35.371,61.271 35.471,61.211 C35.831,61.011 35.861,60.701 35.861,60.331 Q35.861,57.391 35.861,54.451 C35.861,54.011 35.861,53.821 35.291,53.961 C33.963,54.291 32.565,54.2 31.291,53.701 C30.781,53.521 30.791,53.701 30.791,54.061 C30.781,55.221 30.771,56.291 30.771,57.371 z" fill="#FFFFFF"/>
    <path d="M18.451,58.741 C18.416,59.617 18.493,60.495 18.681,61.351 C18.854,62.052 19.311,62.649 19.941,63.001 C20.041,63.051 20.201,63.071 20.171,63.241 C20.141,63.411 20.021,63.421 19.911,63.461 C19.412,63.607 18.947,63.848 18.541,64.171 C18.371,64.311 18.181,64.251 18.171,64.011 C18.171,62.461 17.671,61.011 17.661,59.431 C17.639,57.784 17.98,56.152 18.661,54.651 C18.811,54.321 18.721,54.151 18.421,54.151 C17.655,54.092 16.89,54.281 16.241,54.691 C16.101,54.794 15.991,54.932 15.921,55.091 C15.778,55.324 15.844,55.629 16.071,55.781 C16.331,55.981 16.481,55.781 16.641,55.611 C16.801,55.441 16.741,55.401 16.871,55.461 C17.001,55.521 16.961,55.641 16.961,55.741 C16.993,56.174 16.742,56.578 16.341,56.741 C15.959,56.959 15.481,56.902 15.161,56.601 C14.762,56.298 14.591,55.782 14.731,55.301 C14.941,54.451 15.641,54.141 16.361,53.841 C17.156,53.597 17.993,53.515 18.821,53.601 C19.093,53.619 19.354,53.494 19.511,53.271 C20.894,51.46 23.013,50.36 25.291,50.271 C25.412,50.24 25.541,50.274 25.631,50.361 C25.711,50.461 25.631,50.551 25.631,50.641 C25.342,51.055 25.211,51.559 25.261,52.061 Q25.261,56.171 25.261,60.281 C25.261,60.711 25.261,61.111 25.711,61.351 C25.791,61.401 25.881,61.521 25.871,61.591 C25.861,61.661 25.681,61.711 25.571,61.711 L23.711,61.711 C23.611,61.711 23.491,61.711 23.441,61.621 C23.425,61.579 23.426,61.532 23.445,61.49 C23.464,61.449 23.498,61.417 23.541,61.401 C24.341,60.871 24.131,60.061 24.001,59.401 C23.65,57.22 22.164,55.391 20.101,54.601 C19.801,54.471 19.591,54.461 19.411,54.841 C18.764,56.038 18.434,57.381 18.451,58.741 z M24.021,56.941 L24.021,51.351 C24.021,51.031 23.791,51.091 23.611,51.151 C22.284,51.576 21.114,52.387 20.251,53.481 C20.021,53.771 20.111,53.931 20.431,54.061 C20.702,54.17 20.966,54.296 21.221,54.441 C22.315,55.074 23.268,55.925 24.021,56.941 z" fill="#FFFFFF"/>
    <path d="M48.841,61.691 L47.841,61.691 C47.601,61.691 47.531,61.531 47.721,61.401 C48.531,60.861 48.341,60.051 48.201,59.331 C47.818,57.139 46.292,55.32 44.201,54.561 C44.093,54.485 43.954,54.466 43.83,54.512 C43.706,54.558 43.612,54.663 43.581,54.791 C42.789,56.378 42.463,58.157 42.641,59.921 C42.674,60.577 42.805,61.224 43.031,61.841 C43.23,62.321 43.581,62.722 44.031,62.981 C44.141,63.041 44.341,63.041 44.291,63.241 C44.241,63.441 44.131,63.431 44.021,63.471 C43.547,63.633 43.099,63.862 42.691,64.151 C42.341,64.381 42.331,64.011 42.321,63.831 C42.251,63.051 42.131,62.281 42.001,61.511 C41.744,60.192 41.72,58.838 41.931,57.511 C42.098,56.523 42.387,55.559 42.791,54.641 C42.961,54.281 42.791,54.131 42.521,54.121 C41.789,54.063 41.057,54.238 40.431,54.621 C40.104,54.776 39.929,55.139 40.011,55.491 C40.111,55.861 40.461,55.921 40.731,55.641 C40.811,55.571 40.801,55.371 40.971,55.431 C41.141,55.491 41.071,55.661 41.061,55.791 C41.038,56.086 40.896,56.36 40.668,56.548 C40.44,56.737 40.145,56.825 39.851,56.791 C39.538,56.752 39.254,56.587 39.066,56.334 C38.877,56.081 38.799,55.762 38.851,55.451 C39.011,54.451 39.741,54.111 40.541,53.801 C41.35,53.575 42.196,53.507 43.031,53.601 C43.306,53.623 43.574,53.502 43.741,53.281 C44.768,51.94 46.198,50.962 47.821,50.491 C48.401,50.341 48.991,50.341 49.571,50.241 C49.811,50.241 50.041,50.341 49.831,50.591 C49.522,51.057 49.387,51.616 49.451,52.171 C49.451,54.961 49.451,57.751 49.451,60.541 C49.458,60.822 49.6,61.082 49.831,61.241 C49.941,61.331 50.151,61.411 50.071,61.591 C49.991,61.771 49.791,61.681 49.641,61.681 L48.861,61.681 z M48.171,57.091 C48.231,56.961 48.271,56.921 48.271,56.871 C48.271,55.041 48.271,53.211 48.271,51.371 C48.271,51.091 48.131,51.051 47.901,51.121 C46.527,51.555 45.317,52.395 44.431,53.531 C44.271,53.751 44.301,53.921 44.561,54.021 C46.077,54.606 47.349,55.689 48.171,57.091 z" fill="#FFFFFF"/>
    <path d="M67.671,59.241 C67.671,57.681 67.671,56.121 67.671,54.561 C67.671,54.181 67.671,53.871 68.201,53.861 C68.731,53.851 69.011,53.861 68.951,54.491 C68.951,54.591 68.951,54.721 69.031,54.771 C69.111,54.821 69.241,54.771 69.341,54.651 C69.931,54.082 70.721,53.766 71.541,53.771 C72.742,53.727 73.818,54.513 74.141,55.671 C74.701,57.199 74.629,58.887 73.941,60.361 C73.543,61.099 72.841,61.625 72.021,61.8 C71.201,61.976 70.345,61.782 69.681,61.271 C69.551,61.171 69.431,60.971 69.241,61.061 C69.051,61.151 69.151,61.371 69.151,61.531 C69.151,62.381 69.151,63.231 69.151,64.081 C69.151,64.631 69.051,64.691 68.421,64.721 C67.791,64.751 67.731,64.571 67.731,64.081 C67.681,62.471 67.671,60.861 67.671,59.241 z M69.091,57.811 C69.091,58.191 69.091,58.571 69.091,58.951 C69.072,59.127 69.13,59.302 69.251,59.431 C69.561,59.814 69.925,60.151 70.331,60.431 C70.685,60.657 71.118,60.727 71.525,60.622 C71.932,60.518 72.278,60.25 72.481,59.881 C73.127,58.67 73.183,57.229 72.631,55.971 C72.381,55.33 71.721,54.948 71.041,55.051 C70.008,55.24 69.218,56.079 69.091,57.121 C69.101,57.331 69.091,57.601 69.091,57.811 z" fill="#FFFFFF"/>
    <path d="M90.031,56.501 C89.965,57.567 90.261,58.624 90.871,59.501 C91.627,60.393 92.834,60.764 93.961,60.451 C94.506,60.285 95.022,60.035 95.491,59.711 C95.871,59.441 96.091,59.571 96.141,60.041 C96.191,60.511 95.891,61.041 95.141,61.411 C93.705,62.069 92.045,62.021 90.651,61.281 C89.632,60.718 88.909,59.74 88.671,58.601 C88.256,57.086 88.316,55.481 88.841,54.001 C89.32,52.753 90.315,51.773 91.57,51.313 C92.826,50.853 94.219,50.958 95.391,51.601 C95.924,51.799 96.216,52.374 96.061,52.921 C96.001,53.371 95.831,53.451 95.451,53.191 C94.97,52.823 94.418,52.558 93.831,52.411 C93.057,52.218 92.239,52.351 91.566,52.778 C90.893,53.205 90.425,53.889 90.271,54.671 C90.084,55.262 90.003,55.882 90.031,56.501 z" fill="#FFFFFF"/>
    <path d="M55.771,58.131 C55.101,58.131 54.421,58.131 53.771,58.131 C53.381,58.131 53.291,58.281 53.321,58.671 C53.431,60.371 54.881,60.891 56.221,60.671 C56.679,60.59 57.13,60.473 57.571,60.321 C57.771,60.241 58.001,59.981 58.201,60.321 C58.348,60.666 58.264,61.065 57.991,61.321 C57.827,61.421 57.653,61.502 57.471,61.561 C56.33,61.958 55.09,61.972 53.941,61.601 C52.94,61.278 52.181,60.455 51.941,59.431 C51.632,58.309 51.656,57.12 52.011,56.011 C52.522,54.404 54.154,53.434 55.811,53.751 C57.197,53.847 58.313,54.928 58.451,56.311 C58.515,56.641 58.552,56.975 58.561,57.311 C58.561,57.861 58.341,58.051 57.791,58.061 z M55.161,57.061 L56.761,57.061 C56.901,57.061 57.141,57.061 57.121,56.881 C57.153,56.234 56.869,55.612 56.361,55.211 C55.821,54.872 55.152,54.81 54.559,55.045 C53.966,55.28 53.521,55.784 53.361,56.401 C53.191,57.061 53.191,57.061 53.861,57.061 z" fill="#FFFFFF"/>
    <path d="M104.551,57.721 C104.724,59.124 104.103,60.507 102.941,61.311 C101.59,62.118 99.897,62.083 98.581,61.221 C97.9,60.673 97.454,59.886 97.331,59.021 C97.065,57.869 97.207,56.661 97.731,55.601 C98.521,54.061 99.921,53.721 101.511,53.841 C103.166,53.935 104.472,55.284 104.511,56.941 C104.542,57.2 104.555,57.461 104.551,57.721 z M103.111,57.721 C103.12,57.341 103.063,56.962 102.941,56.601 C102.803,55.73 102.081,55.07 101.201,55.011 C100.299,54.853 99.406,55.327 99.031,56.161 C98.63,57.133 98.598,58.218 98.941,59.211 C99.141,60.035 99.883,60.611 100.731,60.601 C101.639,60.708 102.503,60.185 102.831,59.331 C103.04,58.821 103.135,58.272 103.111,57.721 z" fill="#FFFFFF"/>
    <path d="M83.241,57.801 C83.295,58.723 83.054,59.637 82.551,60.411 C81.865,61.379 80.735,61.933 79.551,61.881 C78.638,61.98 77.725,61.689 77.038,61.08 C76.351,60.47 75.952,59.6 75.941,58.681 C75.787,57.663 75.93,56.621 76.351,55.681 C76.819,54.595 77.86,53.868 79.041,53.801 C79.935,53.655 80.853,53.81 81.651,54.241 C82.661,54.901 83.262,56.034 83.241,57.241 C83.251,57.391 83.241,57.601 83.241,57.801 z M81.751,57.801 C81.768,57.299 81.694,56.797 81.531,56.321 C81.244,55.556 80.537,55.028 79.722,54.97 C78.907,54.912 78.133,55.335 77.741,56.051 C77.234,57.114 77.198,58.341 77.641,59.431 C77.911,60.139 78.593,60.605 79.351,60.601 C80.107,60.703 80.856,60.366 81.281,59.731 C81.626,59.145 81.789,58.47 81.751,57.791 z" fill="#FFFFFF"/>
    <path d="M60.491,53.871 C61.041,53.751 61.331,54.051 61.571,54.481 C61.921,55.091 62.311,55.691 62.661,56.301 C62.861,56.651 63.011,56.681 63.221,56.301 C63.621,55.631 64.031,54.971 64.441,54.301 C64.769,53.863 65.347,53.692 65.861,53.881 C66.141,54.031 66.041,54.231 65.861,54.451 C65.261,55.451 64.681,56.361 64.061,57.301 C63.881,57.519 63.881,57.833 64.061,58.051 C64.701,59.051 65.321,60.051 65.941,61.051 C66.231,61.521 66.141,61.681 65.601,61.751 C65.024,61.882 64.436,61.584 64.201,61.041 C63.861,60.361 63.421,59.731 63.041,59.041 C62.861,58.731 62.731,58.771 62.571,59.041 C62.111,59.791 61.661,60.551 61.191,61.301 C60.814,61.709 60.225,61.841 59.711,61.631 C59.461,61.481 59.591,61.321 59.711,61.151 C60.371,60.151 61.021,59.071 61.711,58.051 C61.887,57.851 61.887,57.551 61.711,57.351 C61.131,56.471 60.591,55.571 60.031,54.671 C59.911,54.471 59.681,54.291 59.811,54.021 C59.941,53.751 60.261,53.921 60.491,53.871 z" fill="#FFFFFF"/>
    <path d="M90.231,27.891 C90.431,29.281 90.661,30.661 90.811,32.051 C91.117,33.858 91.244,35.69 91.191,37.521 C91.067,38.535 90.798,39.525 90.391,40.461 C90.391,40.581 90.281,40.751 90.111,40.711 C89.941,40.671 89.981,40.501 89.991,40.361 C90.153,39.494 90.24,38.614 90.251,37.731 C90.183,35.971 89.979,34.22 89.641,32.491 C89.521,31.811 89.441,31.121 89.361,30.431 C89.131,28.431 88.911,26.481 88.681,24.511 C88.688,23.904 88.903,23.318 89.291,22.851 C89.411,22.671 89.511,22.741 89.581,22.911 C89.991,23.911 90.391,24.911 90.721,25.911 C90.831,26.251 90.931,26.601 91.051,26.911 C91.149,27.104 91.113,27.338 90.961,27.491 C90.761,27.661 90.631,27.491 90.481,27.371 C90.331,27.251 90.241,27.311 90.241,27.501 C90.241,27.691 90.241,27.741 90.241,27.861 z" fill="#FFFFFF"/>
    <path d="M45.491,28.601 C45.564,28.345 45.737,28.129 45.971,28.001 C46.84,27.441 47.756,26.959 48.711,26.561 C50.441,25.601 52.151,24.701 53.941,23.981 C54.49,23.771 55.059,23.62 55.641,23.531 C55.801,23.531 55.951,23.451 56.071,23.601 C56.176,23.748 56.176,23.945 56.071,24.091 C55.758,24.553 55.284,24.882 54.741,25.011 C51.941,25.961 49.233,27.162 46.651,28.601 C46.413,28.739 46.166,28.86 45.911,28.961 C45.591,29.061 45.441,28.951 45.491,28.601 z" fill="#FFFFFF"/>
    <path d="M72.711,30.451 C72.864,29.904 73.169,29.412 73.591,29.031 C73.721,28.901 73.831,29.031 73.931,29.111 L74.771,29.961 C74.971,30.161 75.101,30.131 75.261,29.891 C76.061,28.751 76.061,28.761 77.071,29.721 C77.731,30.351 77.741,30.381 77.271,31.151 C76.711,32.091 76.711,32.091 75.901,31.381 C75.241,30.801 75.241,30.811 74.821,31.541 C74.401,32.271 74.321,32.211 73.761,31.671 C73.511,31.431 73.241,31.221 72.981,30.991 C72.797,30.876 72.693,30.668 72.711,30.451 z" fill="#FFFFFF"/>
    <path d="M51.941,40.851 C51.627,40.867 51.314,40.833 51.011,40.751 C50.581,40.591 50.451,40.321 50.661,39.911 C50.732,39.771 50.819,39.641 50.921,39.521 C51.161,39.231 51.161,39.001 50.801,38.811 C50.441,38.621 50.441,38.331 50.681,38.011 C50.908,37.683 51.239,37.44 51.621,37.321 C52.041,37.181 52.391,37.451 52.281,37.861 C52.171,38.271 52.381,38.181 52.621,38.141 C52.861,38.101 52.981,37.891 53.111,38.141 C53.241,38.391 53.061,38.581 52.871,38.701 C52.662,38.827 52.445,38.937 52.221,39.031 C52.101,39.091 51.971,39.131 51.851,39.201 C51.731,39.271 51.261,39.551 51.341,39.841 C51.421,40.131 51.811,40.041 52.081,40.051 C53.306,39.97 54.493,39.593 55.541,38.951 C55.751,38.851 56.061,38.581 56.171,38.771 C56.281,38.961 55.981,39.251 55.751,39.381 C54.641,40.214 53.322,40.723 51.941,40.851 z M52.191,38.251 C51.941,38.141 51.781,38.111 51.591,38.251 C51.67,38.332 51.778,38.377 51.891,38.377 C52.004,38.377 52.112,38.332 52.191,38.251 z" fill="#FFFFFF"/>
    <path d="M81.851,42.241 C80.991,42.924 80.043,43.486 79.031,43.911 C78.212,44.285 77.337,44.518 76.441,44.601 C76.011,44.663 75.572,44.608 75.171,44.441 C75.018,44.371 74.905,44.236 74.861,44.075 C74.816,43.913 74.846,43.74 74.941,43.601 C75.116,43.28 75.346,42.992 75.621,42.751 C75.701,42.671 75.831,42.601 75.801,42.461 C75.771,42.321 75.621,42.331 75.511,42.301 C75.401,42.271 74.951,42.371 74.971,42.061 C75.012,41.737 75.275,41.487 75.601,41.461 L75.601,41.461 C75.941,41.521 76.391,41.291 76.601,41.681 C76.811,42.071 76.481,42.421 76.191,42.681 C75.901,42.941 75.871,42.991 75.721,43.161 C75.571,43.331 75.491,43.341 75.541,43.501 C75.591,43.661 75.771,43.701 75.931,43.721 C76.52,43.761 77.112,43.721 77.691,43.601 C78.887,43.34 80.043,42.923 81.131,42.361 L81.791,42.091 z" fill="#FFFFFF"/>
    <path d="M87.651,27.901 C87.611,28.179 87.423,28.412 87.161,28.511 C86.011,28.871 84.861,29.251 83.711,29.631 C82.561,30.011 81.321,30.421 80.151,30.891 C79.991,30.961 79.791,31.191 79.621,30.891 C79.474,30.639 79.553,30.316 79.801,30.161 C79.977,30.051 80.165,29.961 80.361,29.891 C82.612,29.027 84.909,28.286 87.241,27.671 C87.461,27.601 87.631,27.601 87.651,27.901 z" fill="#FFFFFF"/>
    <path d="M24.391,23.661 C24.391,23.661 24.391,23.561 24.391,23.491 C24.581,22.391 24.591,22.401 25.521,23.041 C26.027,23.405 26.449,23.872 26.761,24.411 C26.811,24.491 26.841,24.631 26.961,24.621 C27.081,24.611 27.111,24.461 27.141,24.341 C27.201,23.809 27.311,23.283 27.471,22.771 C27.57,22.487 27.83,22.29 28.131,22.271 C28.451,22.271 28.611,22.491 28.761,22.731 C28.859,22.902 28.835,23.117 28.701,23.261 C28.561,23.461 28.401,23.351 28.251,23.261 C27.931,23.061 27.801,23.261 27.701,23.531 C27.461,24.311 27.521,25.141 27.301,25.921 C27.301,26.061 27.301,26.301 27.141,26.331 C26.981,26.361 26.831,26.161 26.771,25.971 C26.611,25.441 26.353,24.946 26.011,24.511 C25.891,24.381 25.771,24.211 25.591,24.421 C25.411,24.631 25.261,24.591 25.061,24.421 C24.861,24.251 24.401,24.151 24.391,23.661 z" fill="#FFFFFF"/>
    <path d="M38.941,24.601 C39.022,24.06 39.153,23.528 39.331,23.011 C39.491,22.641 39.701,22.331 40.191,22.481 C40.612,22.628 40.885,23.036 40.861,23.481 C40.861,23.641 40.811,23.791 40.631,23.861 C40.451,23.931 40.391,23.771 40.301,23.671 C40.211,23.571 40.081,23.371 39.881,23.441 C39.681,23.511 39.721,23.721 39.701,23.891 L39.521,26.061 C39.521,26.261 39.521,26.521 39.241,26.561 C38.961,26.601 39.001,26.321 38.911,26.171 C38.821,26.021 38.731,25.681 38.591,25.471 C38.451,25.261 38.591,24.651 37.951,24.981 C37.751,25.081 37.011,23.981 37.061,23.711 C37.06,23.695 37.06,23.678 37.061,23.661 C37.181,23.401 37.061,22.991 37.441,22.921 C37.821,22.851 37.811,23.231 37.971,23.411 C38.321,23.761 38.611,24.131 38.941,24.601 z" fill="#FFFFFF"/>
    <path d="M48.581,23.841 C48.621,24.337 48.371,24.812 47.941,25.061 C47.798,25.162 47.616,25.187 47.452,25.127 C47.288,25.067 47.164,24.93 47.121,24.761 C46.943,24.123 46.982,23.445 47.231,22.831 C47.307,22.368 47.477,21.926 47.731,21.531 C47.791,21.451 47.851,21.331 47.971,21.381 C48.091,21.431 48.091,21.561 48.061,21.651 C47.961,22.001 47.851,22.341 47.731,22.651 C47.588,23.062 47.524,23.496 47.541,23.931 C47.541,24.081 47.591,24.251 47.791,24.261 C47.991,24.271 48.021,24.141 48.071,24.011 C48.082,23.925 48.113,23.843 48.161,23.771 C48.261,23.641 48.161,23.341 48.421,23.381 C48.681,23.421 48.531,23.731 48.581,23.841 z" fill="#FFFFFF"/>
    <path d="M107.381,59.831 C108.071,59.831 108.381,60.111 108.381,60.831 C108.381,61.551 108.111,61.771 107.441,61.781 C106.771,61.791 106.441,61.531 106.441,60.781 C106.441,60.031 106.691,59.831 107.381,59.831 z" fill="#FFFFFF"/>
    <path d="M31.271,27.731 C30.8,27.476 30.38,27.137 30.031,26.731 C30.033,26.665 30.05,26.6 30.081,26.541 C30.251,26.241 30.431,25.951 30.611,25.661 C30.791,25.371 30.891,25.331 31.091,25.591 C31.141,25.661 31.241,25.681 31.301,25.741 C31.551,25.971 32.051,26.121 32.011,26.431 C31.884,26.858 31.681,27.258 31.411,27.611 C31.381,27.701 31.301,27.721 31.271,27.731 z" fill="#FFFFFF"/>
    <path d="M149.491,76.501 C132.142,76.485 118.09,62.41 118.101,45.061 C118.112,27.712 132.182,13.656 149.531,13.661 C166.88,13.667 180.941,27.732 180.941,45.081 C180.919,62.437 166.846,76.496 149.491,76.501 z M149.491,14.181 C132.425,14.181 118.591,28.016 118.591,45.081 C118.591,62.147 132.425,75.981 149.491,75.981 C166.556,75.981 180.391,62.147 180.391,45.081 C180.374,28.022 166.549,14.198 149.491,14.181 z" fill="#FFFFFF"/>
    <path d="M118.021,7.501 C118.021,7.501 128.761,7.121 130.121,15.941 C131.581,25.471 135.541,25.501 137.811,26.201 C137.811,26.201 134.521,26.571 134.151,28.771 C133.781,30.971 139.281,43.771 151.011,41.231 C151.011,41.231 154.131,55.711 171.361,51.311 C188.591,46.911 190.601,45.601 190.601,45.601 C190.601,45.601 193.531,56.601 182.171,59.161 C182.171,59.161 182.171,65.391 174.101,66.161 C174.101,66.161 160.541,76.801 144.781,65.801 C140.451,62.801 136.131,57.111 133.231,49.851 C131.571,45.681 129.411,33.961 126.081,24.011 C123.101,15.071 118.691,7.431 118.021,7.501 z" fill="#FFFFFF"/>
    <path d="M190.601,45.601 C190.601,45.601 188.601,46.881 171.361,51.281 C169.367,51.811 167.314,52.09 165.251,52.111 C153.361,52.111 151.011,41.201 151.011,41.201 C150.026,41.421 149.02,41.535 148.011,41.541 C138.361,41.541 133.841,30.741 134.171,28.741 C134.541,26.541 137.831,26.171 137.831,26.171 C135.561,25.471 131.601,25.441 130.141,15.911 C128.871,7.831 119.681,7.501 118.221,7.501 L118.031,7.501 C118.751,7.501 123.121,15.131 126.031,24.001 C129.361,33.941 131.521,45.671 133.181,49.841 C136.081,57.101 140.401,62.771 144.731,65.791 C149.052,68.975 154.263,70.724 159.631,70.791 C164.796,70.761 169.829,69.148 174.051,66.171 C182.121,65.441 182.121,59.171 182.121,59.171 C193.531,56.601 190.601,45.601 190.601,45.601 z M188.601,53.871 C187.311,56.001 185.081,57.441 181.971,58.141 L181.341,58.301 L181.341,58.301 C179.534,58.752 177.7,59.086 175.851,59.301 C173.989,59.518 172.115,59.625 170.241,59.621 C169.301,59.621 168.361,59.621 167.421,59.541 L166.021,59.421 L165.321,59.351 L164.621,59.251 L163.231,59.051 L161.841,58.761 L161.151,58.621 L160.471,58.431 L159.111,58.061 L160.451,58.491 L161.131,58.711 L161.811,58.891 L163.191,59.241 L164.581,59.511 L165.281,59.641 L165.981,59.741 C166.451,59.801 166.921,59.881 167.391,59.931 C168.331,60.011 169.281,60.111 170.231,60.141 C172.133,60.244 174.04,60.23 175.941,60.101 C177.696,59.978 179.442,59.751 181.171,59.421 C181.061,60.421 180.291,64.421 174.291,65.101 L174.291,65.101 C172.801,65.261 171.291,65.331 169.741,65.351 C168.191,65.371 166.681,65.301 165.161,65.151 C163.641,64.993 162.134,64.729 160.651,64.361 C159.164,63.977 157.73,63.413 156.381,62.681 C157.68,63.482 159.07,64.126 160.521,64.601 C162.001,65.044 163.512,65.378 165.041,65.601 C166.575,65.834 168.12,65.988 169.671,66.061 C170.511,66.061 171.351,66.131 172.201,66.131 C163.855,71.283 153.205,70.791 145.371,64.891 C140.971,61.811 136.891,56.171 134.201,49.411 C133.156,46.283 132.275,43.102 131.561,39.881 C130.371,35.051 128.881,29.021 127.071,23.621 C125.717,19.618 124.069,15.721 122.141,11.961 C121.401,10.531 120.801,9.471 120.311,8.691 C123.311,9.111 128.251,10.621 129.091,16.091 C130.091,22.931 132.491,25.261 134.661,26.281 C133.851,26.811 133.294,27.65 133.121,28.601 C132.861,30.181 134.391,34.091 137.011,37.181 C139.676,40.552 143.714,42.549 148.011,42.621 C148.774,42.616 149.537,42.553 150.291,42.431 C150.876,44.19 151.744,45.842 152.861,47.321 C155.795,51.182 160.425,53.372 165.271,53.191 C167.418,53.168 169.554,52.879 171.631,52.331 C183.011,49.421 187.821,47.861 189.821,47.101 C190.162,49.444 189.723,51.833 188.571,53.901 z" fill="#FFFFFF"/>
    <path d="M133.601,49.841 L134.881,73.491 C134.881,73.491 130.881,75.691 128.281,69.821 C128.281,69.821 124.281,69.821 125.351,65.421 C125.351,65.421 120.951,64.321 123.521,59.191 C123.521,59.191 120.951,56.261 123.521,54.061 L128.281,50.761 L128.101,28.951 z" fill="#FFFFFF"/>
    <path d="M134.121,49.811 L127.551,26.601 L127.761,50.521 L123.221,53.601 L123.221,53.601 C122.462,54.204 121.988,55.095 121.911,56.061 C121.887,57.19 122.239,58.294 122.911,59.201 C122.128,60.562 121.992,62.2 122.541,63.671 C123.008,64.586 123.794,65.297 124.751,65.671 C124.375,66.723 124.526,67.89 125.158,68.811 C125.79,69.732 126.825,70.293 127.941,70.321 C128.591,72.059 129.93,73.452 131.641,74.171 C132.108,74.328 132.598,74.409 133.091,74.411 C133.785,74.411 134.469,74.25 135.091,73.941 L135.381,73.791 z M131.941,73.191 C130.479,72.548 129.35,71.328 128.821,69.821 C129.171,69.421 129.491,69.021 129.821,68.591 C130.166,68.131 130.467,67.638 130.721,67.121 C131.187,66.092 131.594,65.037 131.941,63.961 C131.472,64.99 130.944,65.992 130.361,66.961 C130.061,67.413 129.727,67.841 129.361,68.241 C129.001,68.631 128.621,69.011 128.241,69.351 C127.438,69.311 126.685,68.951 126.151,68.351 C125.624,67.517 125.521,66.484 125.871,65.561 L125.871,65.561 C126.171,65.341 126.461,65.111 126.731,64.871 C127.057,64.581 127.364,64.271 127.651,63.941 C127.932,63.625 128.193,63.291 128.431,62.941 C128.67,62.587 128.871,62.208 129.031,61.811 C128.809,62.167 128.555,62.502 128.271,62.811 C127.985,63.119 127.681,63.409 127.361,63.681 C127.04,63.939 126.706,64.179 126.361,64.401 C126.051,64.601 125.731,64.771 125.361,64.941 C124.539,64.677 123.856,64.098 123.461,63.331 C123.011,62.331 123.181,61.041 123.961,59.471 L123.961,59.471 L124.301,59.261 L124.921,58.801 C125.317,58.495 125.691,58.16 126.041,57.801 C125.612,58.046 125.167,58.263 124.711,58.451 L124.021,58.691 L123.751,58.781 C123.176,58.071 122.862,57.185 122.861,56.271 C122.92,55.592 123.261,54.968 123.801,54.551 L128.801,51.111 L128.651,33.181 L133.081,50.001 L134.341,73.231 C133.559,73.491 132.713,73.477 131.941,73.191 z" fill="#FFFFFF"/>
  </g>
</svg>
