<?xml version="1.0" encoding="UTF-8"?>
<!DOCTYPE svg PUBLIC "-//W3C//DTD SVG 1.1//EN" "http://www.w3.org/Graphics/SVG/1.1/DTD/svg11.dtd">
<svg version="1.1" xmlns="http://www.w3.org/2000/svg" xmlns:xlink="http://www.w3.org/1999/xlink" x="0" y="0" width="70" height="70" viewBox="0, 0, 70, 70">
  <g id="Layer_2">
    <path d="M65.407,10.254 C65.402,7.126 62.865,4.592 59.736,4.593 L10.254,4.593 C7.129,4.598 4.598,7.129 4.593,10.254 L4.593,47.005 C4.592,50.133 7.126,52.67 10.254,52.676 L29.334,52.676 L29.334,58.884 L27.758,58.884 C24.631,58.884 22.097,61.419 22.097,64.546 C22.097,65.018 22.477,65.402 22.949,65.407 L47.014,65.407 C47.486,65.402 47.866,65.018 47.866,64.546 C47.869,63.043 47.273,61.602 46.211,60.54 C45.148,59.477 43.707,58.882 42.205,58.884 L40.666,58.884 L40.666,52.676 L59.736,52.676 C62.866,52.67 65.402,50.134 65.407,47.005 z M42.242,60.598 C43.909,60.605 45.392,61.658 45.948,63.23 L46.115,63.684 L23.913,63.684 L24.07,63.23 C24.624,61.656 26.109,60.602 27.777,60.598 z M31.122,58.875 L31.122,52.666 L39.008,52.666 L39.008,58.875 z M63.684,47.005 C63.669,49.174 61.906,50.924 59.736,50.924 L10.254,50.924 C9.208,50.924 8.205,50.508 7.466,49.767 C6.727,49.027 6.314,48.023 6.316,46.977 L6.316,43.066 L63.684,43.066 z M14.785,22.124 L18.195,15.304 L21.606,22.124 z M22.143,23.848 L22.143,41.343 L19.048,41.343 L19.048,23.848 z M17.334,23.848 L17.334,41.343 L14.248,41.343 L14.248,23.848 z M37.72,38.257 L37.72,38.591 C37.72,39.388 37.72,40.203 37.775,41 L37.775,41.343 L32.253,41.343 L32.253,41 C32.253,40.203 32.253,39.397 32.308,38.591 L32.308,38.257 z M32.392,36.543 L32.392,36.181 C32.595,32.734 32.929,30.168 33.179,28.629 L33.244,28.249 L33.615,28.351 C34.52,28.611 35.476,28.639 36.395,28.435 L36.747,28.351 L36.802,28.713 C37.034,30.223 37.358,32.744 37.544,36.181 L37.544,36.543 z M54.214,19.048 L55.761,19.048 L55.761,23.329 L54.214,23.329 C53.738,23.329 53.352,23.715 53.352,24.191 C53.352,24.667 53.738,25.053 54.214,25.053 L55.761,25.053 L55.761,29.334 L54.214,29.334 C53.738,29.334 53.352,29.719 53.352,30.195 C53.352,30.671 53.738,31.057 54.214,31.057 L55.761,31.057 L55.761,36.543 L54.214,36.543 C53.886,36.509 53.568,36.664 53.394,36.944 C53.219,37.223 53.219,37.577 53.394,37.856 C53.568,38.136 53.886,38.291 54.214,38.257 L55.761,38.257 L55.761,41.343 L47.876,41.343 L47.876,14.239 L55.761,14.239 L55.761,17.324 L54.214,17.324 C53.738,17.324 53.352,17.71 53.352,18.186 C53.357,18.66 53.74,19.043 54.214,19.048 z M63.684,41.343 L57.476,41.343 L57.476,13.377 C57.476,12.901 57.09,12.515 56.614,12.515 L47.005,12.515 C46.529,12.515 46.143,12.901 46.143,13.377 L46.143,41.343 L39.462,41.343 L39.462,41.009 C39.462,39.768 39.415,38.544 39.369,37.358 C39.255,34.155 38.946,30.961 38.442,27.795 L38.442,27.592 L38.609,27.462 C40.949,25.753 41.617,22.551 40.157,20.049 L35.95,12.867 C35.798,12.6 35.516,12.435 35.208,12.432 C34.901,12.433 34.618,12.599 34.467,12.867 L30.297,20.077 C28.934,22.448 29.46,25.454 31.548,27.221 L31.687,27.36 L31.687,27.545 C31.142,30.795 30.805,34.075 30.677,37.368 C30.594,38.572 30.538,39.805 30.538,41.009 L30.538,41.343 L23.857,41.343 L23.857,22.986 C23.857,22.858 23.829,22.731 23.774,22.616 L23.774,22.616 L18.955,12.997 C18.811,12.704 18.513,12.517 18.186,12.515 C17.859,12.515 17.56,12.702 17.417,12.997 L12.617,22.588 L12.617,22.588 C12.563,22.707 12.534,22.837 12.534,22.968 L12.534,41.343 L6.316,41.343 L6.316,10.254 C6.316,8.079 8.079,6.316 10.254,6.316 L59.736,6.316 C61.913,6.316 63.679,8.078 63.684,10.254 z" fill="#2D2D2D" id="Path_764"/>
    <path d="M35.227,29 C33.044,28.986 31.031,27.816 29.939,25.925 C28.847,24.034 28.839,21.706 29.917,19.808 L35.227,10.616 L40.537,19.808 C42.206,22.736 41.196,26.463 38.276,28.148 C37.349,28.688 36.3,28.982 35.227,29 z" fill="#E5B037" id="Path_765"/>
  </g>
</svg>
