<?xml version="1.0" encoding="UTF-8"?>
<!DOCTYPE svg PUBLIC "-//W3C//DTD SVG 1.1//EN" "http://www.w3.org/Graphics/SVG/1.1/DTD/svg11.dtd">
<svg version="1.1" xmlns="http://www.w3.org/2000/svg" xmlns:xlink="http://www.w3.org/1999/xlink" x="0" y="0" width="80.181" height="80.674" viewBox="0, 0, 80.181, 80.674">
  <g id="Layer_1">
    <path d="M50.113,42.937 L28.771,42.937 C28.373,42.938 28.051,43.26 28.049,43.657 L28.049,57.392 C28.054,59.476 29.742,61.164 31.825,61.169 L34.878,61.169 C35.095,61.169 35.302,61.258 35.451,61.415 C35.587,61.561 35.665,61.752 35.669,61.951 L35.669,63.472 L34.988,75.844 C34.98,75.957 34.98,76.044 34.98,76.138 C34.977,77.342 35.455,78.498 36.308,79.347 C37.157,80.201 38.312,80.68 39.516,80.677 C42.02,80.668 44.048,78.641 44.057,76.137 C44.057,76.054 44.05,75.963 44.043,75.865 L44.043,75.837 L43.228,63.506 L43.228,63.484 L43.228,61.964 C43.222,61.53 43.568,61.173 44.001,61.164 L44.042,61.164 L47.069,61.155 C49.15,61.156 50.839,59.474 50.847,57.394 L50.847,43.662 C50.844,43.259 50.516,42.935 50.113,42.937 z M29.497,54.468 L29.497,44.394 L31.858,44.394 L31.858,49.762 C31.861,50.164 32.187,50.488 32.589,50.489 C32.781,50.489 32.966,50.413 33.103,50.278 C33.239,50.139 33.315,49.952 33.315,49.757 L33.315,44.394 L36.431,44.394 L36.431,49.762 C36.433,50.165 36.759,50.49 37.161,50.491 C37.352,50.491 37.534,50.415 37.667,50.28 C37.808,50.144 37.887,49.957 37.889,49.761 L37.889,44.394 L41.005,44.394 L41.005,49.762 C41.006,50.164 41.332,50.49 41.735,50.491 C41.925,50.491 42.107,50.415 42.24,50.28 C42.382,50.148 42.462,49.963 42.461,49.769 L42.461,44.395 L45.577,44.395 L45.577,49.763 C45.579,50.166 45.905,50.491 46.307,50.492 C46.707,50.493 47.032,50.171 47.035,49.772 L47.035,44.396 L49.389,44.396 L49.389,55.14 L29.498,55.14 z M41.696,78.325 C41.12,78.899 40.34,79.222 39.527,79.225 L39.521,79.225 C37.822,79.22 36.443,77.848 36.431,76.148 C36.429,76.087 36.433,76.026 36.444,75.966 L37.049,64.847 L37.084,64.213 L41.815,64.213 L41.857,64.839 L42.591,75.908 C42.602,75.989 42.606,76.071 42.604,76.153 C42.599,76.969 42.271,77.749 41.691,78.324 z M49.396,57.269 L49.396,57.403 C49.386,58.677 48.353,59.706 47.078,59.711 L44.028,59.711 C42.785,59.713 41.777,60.72 41.776,61.964 L41.776,62.764 L37.135,62.764 L37.135,61.964 C37.134,60.72 36.126,59.713 34.882,59.711 L31.826,59.711 C30.546,59.708 29.507,58.675 29.497,57.395 L29.497,56.587 L49.397,56.587 z" fill="#2D2D2D" id="Path_168"/>
    <path d="M65.434,-0.003 L14.733,-0.003 C14.232,-0.002 13.826,0.404 13.825,0.905 L13.825,51.612 C13.826,52.113 14.232,52.519 14.733,52.52 L25.108,52.52 L25.108,50.703 L16.927,50.703 L18.07,49.559 L27.317,40.311 L27.517,40.111 L52.576,40.111 L52.776,40.311 L62.024,49.559 L63.168,50.703 L54.249,50.703 L54.249,52.52 L65.449,52.52 C65.949,52.519 66.355,52.113 66.355,51.612 L66.355,0.905 C66.355,0.662 66.258,0.429 66.084,0.258 C65.911,0.088 65.677,-0.006 65.434,-0.003 z M26.226,14.05 L26.226,38.55 L26.226,38.828 L26.026,39.028 L16.781,48.277 L15.637,49.422 L15.637,3.185 L16.781,4.329 L26.029,13.578 L26.229,13.778 z M52.126,14.885 L52.121,37.628 L52.121,38.298 L44.161,38.298 L44.161,37.62 L42.348,37.62 L42.348,38.298 L37.815,38.298 L37.815,37.62 L36,37.62 L36,38.297 L28.043,38.297 L28.043,14.215 L52.125,14.215 z M52.653,12.401 L27.42,12.401 L27.219,12.201 L17.972,2.952 L16.827,1.808 L63.236,1.808 L62.092,2.952 L52.846,12.201 z M64.53,4.717 L64.53,47.888 L64.53,49.505 L63.385,48.361 L54.137,39.112 L53.937,38.912 L53.937,13.68 L54.137,13.48 L63.389,4.234 L64.534,3.091 z" fill="#2D2D2D" id="Path_171"/>
    <path d="M43.26,22.883 L35.872,22.883 C35.062,22.884 34.406,23.541 34.404,24.351 L34.404,38.322 L44.728,38.322 L44.728,24.351 C44.728,23.541 44.071,22.884 43.26,22.883 z" fill="#E5B037" id="Path_175"/>
  </g>
</svg>
