<svg xmlns="http://www.w3.org/2000/svg" width="159.918" height="24.935" viewBox="0 0 159.918 24.935">
  <g id="Group_33" data-name="Group 33" transform="translate(0)">
    <path id="Path_87" data-name="Path 87" d="M.848,4.206H4.283V20.622H14.556V23.75H.848Z" transform="translate(-0.848 -3.364)" fill="#f8f8f8"/>
    <path id="Path_88" data-name="Path 88" d="M75.217.856h3.632V4.065H75.217Zm.139,5.47h3.379V21.071H75.356Z" transform="translate(-60.335 -0.685)" fill="#f8f8f8"/>
    <path id="Path_89" data-name="Path 89" d="M107.9,18.094v2.292H104.52V0H107.9V8.1a5.888,5.888,0,0,1,5-2.766c3.489,0,6.867,2.766,6.867,7.65v.057c0,4.884-3.351,7.648-6.867,7.648A6.006,6.006,0,0,1,107.9,18.094Zm8.43-5.053v-.057c0-2.843-1.925-4.717-4.213-4.717a4.442,4.442,0,0,0-4.3,4.717v.057a4.425,4.425,0,0,0,4.3,4.717C114.43,17.758,116.328,15.948,116.328,13.041Z" transform="translate(-83.774)" fill="#f8f8f8"/>
    <path id="Path_90" data-name="Path 90" d="M178.155,46.589l1.141-2.513a4.167,4.167,0,0,0,1.984.56c.949,0,1.536-.42,2.091-1.7l-6.143-14.745h3.6l4.188,10.946,3.823-10.946h3.519L186.5,43.349c-1.172,3.018-2.484,4.134-4.858,4.134A6.867,6.867,0,0,1,178.155,46.589Z" transform="translate(-141.933 -22.548)" fill="#f8f8f8"/>
    <path id="Path_91" data-name="Path 91" d="M258.578,42.036V40.218a5.957,5.957,0,0,1-4.778,2.122c-2.791,0-5.246-1.587-5.246-4.551v-.052c0-3.267,2.538-4.832,5.977-4.832a12.577,12.577,0,0,1,4.076.613v-.275c0-2.042-1.286-3.16-3.634-3.16a10.235,10.235,0,0,0-4.213.924l-.921-2.708a12.664,12.664,0,0,1,5.612-1.232c4.353,0,6.476,2.3,6.476,6.226v8.744Zm.082-6.171a9.647,9.647,0,0,0-3.378-.588c-2.121,0-3.379.871-3.379,2.288v.059c0,1.4,1.258,2.173,2.85,2.173,2.232,0,3.907-1.252,3.907-3.091Z" transform="translate(-198.986 -21.65)" fill="#f8f8f8"/>
    <path id="Path_92" data-name="Path 92" d="M325.156,26.965h3.379v2.29a5.3,5.3,0,0,1,4.608-2.6c3.321,0,5.247,2.236,5.247,5.667V41.71h-3.38V33.331c0-2.286-1.141-3.6-3.156-3.6-1.953,0-3.319,1.369-3.319,3.657v8.32h-3.379Z" transform="translate(-260.259 -21.324)" fill="#f8f8f8"/>
    <path id="Path_93" data-name="Path 93" d="M398.967,19.787l.643-.7a9.975,9.975,0,0,0,7.2,2.959c3.377,0,5.584-1.84,5.584-4.3V17.7c0-2.292-1.31-3.519-6.028-4.5-4.777-.948-6.647-2.449-6.647-5.27V7.866c0-2.794,2.651-5.052,6.339-5.052A10.3,10.3,0,0,1,412.7,5.1l-.585.755A9.58,9.58,0,0,0,406,3.681c-3.21,0-5.332,1.925-5.332,4.1v.055c0,2.263,1.313,3.519,6.06,4.5,4.857.975,6.615,2.54,6.615,5.276v.052c0,3.02-2.593,5.253-6.586,5.253A11.082,11.082,0,0,1,398.967,19.787Z" transform="translate(-319.299 -2.251)" fill="#f8f8f8"/>
    <path id="Path_94" data-name="Path 94" d="M488.259,30.215h.9v3.88a6.62,6.62,0,0,1,6.226-4.215,7.028,7.028,0,0,1,6.953,7.339v.06a7.049,7.049,0,0,1-6.953,7.341,6.561,6.561,0,0,1-6.226-4.159v8.294h-.9Zm13.123,7.09v-.053c0-3.714-2.6-6.508-6.085-6.508a6.286,6.286,0,0,0-6.2,6.477v.06a6.3,6.3,0,0,0,6.2,6.476C498.844,43.756,501.382,41.073,501.382,37.3Z" transform="translate(-390.723 -23.901)" fill="#f8f8f8"/>
    <path id="Path_95" data-name="Path 95" d="M575.21,3.649h1.2v1.7h-1.2Zm.139,5.584h.922V23.3h-.922Z" transform="translate(-460.274 -2.919)" fill="#f8f8f8"/>
    <path id="Path_96" data-name="Path 96" d="M597.8,13.379v-.06a7.044,7.044,0,0,1,6.955-7.339,6.552,6.552,0,0,1,6.222,4.162V0h.892V20.386h-.891V16.5a6.623,6.623,0,0,1-6.222,4.217A7.027,7.027,0,0,1,597.8,13.379Zm13.234,0v-.06a6.3,6.3,0,0,0-6.2-6.477c-3.544,0-6.082,2.685-6.082,6.45v.059c0,3.716,2.594,6.5,6.082,6.5A6.288,6.288,0,0,0,611.038,13.379Z" transform="translate(-478.347)" fill="#f8f8f8"/>
    <path id="Path_97" data-name="Path 97" d="M684.316,37.251v-.059c0-4.129,2.847-7.312,6.727-7.312,4.248,0,6.457,3.625,6.457,7.4v.305H685.294c.167,3.826,2.874,6.2,6.034,6.2a6.382,6.382,0,0,0,5.049-2.6l.671.527a7.043,7.043,0,0,1-5.75,2.907C687.5,44.621,684.316,41.742,684.316,37.251Zm12.206-.475c-.145-3.074-2.015-6.06-5.534-6.06-3.18,0-5.527,2.6-5.695,6.06Z" transform="translate(-547.547 -23.901)" fill="#f8f8f8"/>
    <path id="Path_98" data-name="Path 98" d="M765.68,30.413h.889v4.3c.84-2.4,2.991-4.666,5.978-4.584v.927h-.142c-3.407,0-5.836,3.292-5.836,6.753v6.674h-.889Z" transform="translate(-612.63 -24.099)" fill="#f8f8f8"/>
  </g>
</svg>
