<?xml version="1.0" encoding="UTF-8"?>
<!DOCTYPE svg PUBLIC "-//W3C//DTD SVG 1.1//EN" "http://www.w3.org/Graphics/SVG/1.1/DTD/svg11.dtd">
<svg version="1.1" xmlns="http://www.w3.org/2000/svg" xmlns:xlink="http://www.w3.org/1999/xlink" x="0" y="0" width="200" height="57" viewBox="0, 0, 200, 57">
  <g id="Layer_1">
    <path d="M8.509,36.992 L8.509,36.992 L8.509,34.579 L8.509,34.579 z" fill="#C5AEC5"/>
    <path d="M12.509,44.311 L12.509,44.311 C12.556,44.482 12.556,44.662 12.509,44.832 z" fill="#C5AEC5"/>
    <path d="M12.509,42.381 L12.509,42.381 L12.509,41.937 C12.605,41.956 12.509,42.13 12.509,42.381 z" fill="#C5AEC5"/>
    <path d="M38.659,23.806 L40.37,23.806 L40.37,22.135 C40.37,21.498 40.37,20.822 40.37,20.186 C40.493,18.505 41.797,17.15 43.473,16.963 C44.717,16.863 45.968,16.863 47.212,16.963 L47.212,23.925 L49.281,23.925 L49.281,12.309 C50.868,11.922 52.544,12.231 53.889,13.158 C55.234,14.085 56.119,15.542 56.322,17.162 C56.549,18.048 56.682,18.954 56.72,19.867 L56.72,25.954 L54.015,25.954 L54.015,21.976 C54.087,20.726 54.021,19.472 53.816,18.236 C53.695,17.5 53.424,16.796 53.02,16.168 C52.769,15.791 52.408,15.499 51.986,15.332 L51.986,25.914 L46.934,25.914 C46.207,27.418 44.618,28.308 42.956,28.142 L40.29,28.142 L40.29,26.113 C40.125,26.045 39.939,26.045 39.773,26.113 C36.034,26.113 32.294,26.113 28.555,26.113 C28.254,26.08 27.971,26.263 27.878,26.551 C27.395,27.45 26.505,28.058 25.491,28.182 C24.167,28.287 22.837,28.287 21.513,28.182 L21.513,25.994 L20.24,25.994 C20.259,26.312 20.259,26.631 20.24,26.949 C20.151,28.198 19.179,29.204 17.933,29.335 C16.41,29.435 14.881,29.435 13.358,29.335 L13.358,27.068 C13.688,27.026 14.022,27.026 14.353,27.068 L16.899,27.068 C17.654,27.068 17.893,26.71 17.774,25.954 C17.35,25.992 16.924,25.992 16.501,25.954 C15.342,25.77 14.308,25.125 13.633,24.165 C12.959,23.206 12.702,22.014 12.92,20.862 C13.042,19.025 14.407,17.511 16.222,17.202 C17.527,16.911 18.865,16.791 20.2,16.844 L20.2,23.806 L21.593,23.806 C21.593,23.607 21.593,23.408 21.593,23.249 C21.593,22.294 21.593,21.379 21.593,20.424 C21.624,18.631 22.991,17.144 24.775,16.963 C26.099,16.853 27.43,16.853 28.754,16.963 L28.754,23.925 L35.835,23.925 C35.835,22.732 35.835,21.578 35.835,20.385 C35.835,19.788 35.079,19.271 34.323,19.271 L30.504,19.271 L30.504,17.003 C30.504,17.003 30.743,17.003 30.902,17.003 C32.439,16.917 33.981,16.93 35.516,17.043 C37.368,17.269 38.735,18.879 38.659,20.743 z M17.694,19.112 C16.739,19.112 15.904,19.112 15.427,20.186 C14.951,21.01 14.951,22.026 15.427,22.851 C15.78,23.502 16.478,23.889 17.217,23.846 C17.956,23.802 17.615,23.846 17.615,23.527 z M24.378,25.835 C25.571,25.835 25.81,25.835 25.81,24.641 L25.81,19.748 C25.81,19.549 25.81,19.35 25.81,19.191 C24.736,19.191 24.417,19.43 24.417,20.464 L24.417,25.835 z M44.547,19.231 C43.632,19.231 43.115,19.231 43.115,20.066 L43.115,25.755 L43.115,25.755 C44.189,25.755 44.467,25.755 44.467,24.562 L44.467,19.231 z" fill="#743974"/>
    <path d="M94.075,19.271 L94.075,16.924 C94.075,16.924 94.313,16.924 94.433,16.924 C96.01,16.844 97.591,16.857 99.167,16.963 C99.932,16.991 100.652,17.338 101.15,17.92 C101.649,18.502 101.882,19.266 101.792,20.027 L101.792,24.005 L104.02,24.005 L104.02,12.269 L107.123,12.269 L107.123,23.806 L110.027,23.806 L110.027,12.269 L112.692,12.269 L112.692,25.954 L86.437,25.954 L86.437,12.269 L89.102,12.269 L89.102,23.766 L91.21,23.766 C91.21,21.618 91.449,19.708 94.075,19.271 z M95.586,19.271 C96.515,19.511 97.288,20.153 97.695,21.021 C98.039,21.907 98.189,22.857 98.132,23.806 C98.528,23.866 98.93,23.866 99.326,23.806 C99.326,22.612 99.326,21.459 99.326,20.305 C99.348,20.049 99.262,19.795 99.088,19.606 C98.914,19.417 98.668,19.31 98.411,19.311 z M95.586,23.806 C95.586,23.05 95.586,22.294 94.95,21.817 C94.521,21.56 93.986,21.56 93.558,21.817 C93.12,22.336 92.998,23.052 93.239,23.686 z" fill="#743974"/>
    <path d="M134.97,23.806 L134.97,16.884 L137.636,16.884 L137.636,23.806 L140.38,23.806 L140.38,16.884 L142.926,16.884 L142.926,23.766 L147.7,23.766 L147.7,16.884 L150.405,16.884 L150.405,23.766 L152.633,23.766 L152.633,12.269 L155.338,12.269 L155.338,25.994 L127.491,25.994 L127.491,12.269 L130.157,12.269 L130.157,23.806 z" fill="#743974"/>
    <path d="M179.088,8.967 C189.875,8.945 198.638,17.673 198.66,28.46 C198.682,39.248 189.955,48.011 179.167,48.033 C168.38,48.055 159.617,39.327 159.595,28.54 C159.617,17.77 168.318,9.033 179.088,8.967 z M197.507,28.5 C197.529,18.322 189.292,10.056 179.114,10.041 C168.937,10.027 160.676,18.269 160.669,28.447 C160.662,38.625 168.91,46.879 179.088,46.879 C189.236,46.857 197.463,38.648 197.507,28.5 z" fill="#743974"/>
    <path d="M78.202,16.804 L78.202,23.806 L82.18,23.806 L82.18,16.884 L84.845,16.884 L84.845,25.954 C84.662,25.993 84.472,25.993 84.289,25.954 L66.148,25.954 C65.685,25.993 65.219,25.993 64.756,25.954 C63.104,25.752 61.796,24.461 61.573,22.811 C61.534,22.521 61.534,22.226 61.573,21.936 L61.573,18.555 L64.159,18.555 L64.159,20.544 C64.144,21.081 64.211,21.618 64.358,22.135 C64.605,23.081 65.491,23.717 66.466,23.647 L71.32,23.647 L70.842,23.13 C69.911,22.025 69.652,20.502 70.166,19.151 C70.646,17.848 71.844,16.946 73.229,16.844 C74.94,16.685 76.531,16.924 78.202,16.804 z M75.497,19.311 C74.897,19.152 74.267,19.152 73.667,19.311 C73.324,19.417 73.041,19.664 72.89,19.989 C72.738,20.315 72.732,20.69 72.871,21.021 C73.137,21.673 73.545,22.257 74.065,22.732 C74.485,23.118 74.97,23.428 75.497,23.647 z" fill="#743974"/>
    <path d="M2.509,26.471 L2.509,22.785 L4.602,22.785 L4.602,24.996 C4.602,25.557 4.602,26.146 4.602,26.706 C4.586,26.993 4.686,27.274 4.881,27.485 C5.075,27.696 5.347,27.819 5.634,27.827 C6.517,27.886 7.403,27.886 8.287,27.827 C8.579,27.835 8.861,27.723 9.067,27.516 C9.274,27.31 9.386,27.028 9.378,26.736 C9.392,26.52 9.392,26.303 9.378,26.087 L9.378,16.83 L11.353,16.83 C11.353,16.978 11.353,17.125 11.353,17.272 L11.353,26.677 C11.354,27.057 11.294,27.436 11.176,27.797 C10.98,28.801 10.105,29.528 9.083,29.537 C7.67,29.64 6.251,29.64 4.838,29.537 C3.782,29.48 2.91,28.694 2.744,27.65 C2.635,27.263 2.556,26.869 2.509,26.471 z" fill="#743974"/>
    <path d="M120.012,23.806 L123.235,23.806 L123.235,16.884 L125.9,16.884 L125.9,25.994 L117.387,25.994 C117.387,25.516 117.387,12.826 117.387,12.229 L120.012,12.229 L120.012,23.806 z" fill="#743974"/>
    <path d="M141.352,40.236 C141.332,41.453 140.815,42.61 139.921,43.437 C139.027,44.263 137.833,44.688 136.618,44.612 C135.446,44.613 134.326,44.132 133.52,43.282 C132.715,42.431 132.295,41.286 132.361,40.116 C132.389,38.883 132.927,37.717 133.847,36.895 C134.767,36.073 135.986,35.67 137.214,35.78 C138.385,35.725 139.52,36.188 140.318,37.047 C141.115,37.906 141.494,39.072 141.352,40.236 z M138.726,40.633 C138.746,40.395 138.746,40.156 138.726,39.917 C138.624,38.605 137.879,37.429 136.737,36.775 C136.632,36.668 136.489,36.607 136.339,36.607 C136.189,36.607 136.046,36.668 135.941,36.775 C135.267,37.599 134.952,38.66 135.066,39.718 C134.978,41.207 135.731,42.62 137.015,43.378 C137.255,43.587 137.611,43.587 137.851,43.378 C138.506,42.621 138.822,41.63 138.726,40.633 z" fill="#743974"/>
    <path d="M77.781,35.78 C78.971,35.687 80.141,36.135 80.966,36.998 C81.791,37.862 82.184,39.05 82.037,40.236 C82.018,41.453 81.501,42.61 80.607,43.437 C79.712,44.263 78.519,44.688 77.303,44.612 C76.135,44.624 75.015,44.152 74.208,43.308 C73.401,42.463 72.981,41.322 73.047,40.156 C73.055,38.935 73.568,37.771 74.465,36.942 C75.362,36.113 76.562,35.692 77.781,35.78 z M79.372,40.713 C79.392,40.515 79.392,40.315 79.372,40.116 C79.335,38.835 78.684,37.651 77.622,36.934 C76.985,36.496 76.826,36.536 76.349,37.172 C75.789,38.06 75.563,39.117 75.712,40.156 C75.736,41.502 76.44,42.745 77.582,43.458 C77.736,43.575 77.934,43.621 78.124,43.583 C78.314,43.545 78.479,43.427 78.576,43.259 C79.171,42.551 79.458,41.634 79.372,40.713 z" fill="#743974"/>
    <path d="M128.741,35.899 L130.531,35.899 C130.703,35.887 130.872,35.951 130.994,36.073 C131.116,36.195 131.179,36.364 131.168,36.536 Q131.168,40.196 131.168,43.816 C131.193,43.973 131.144,44.134 131.035,44.25 C130.926,44.367 130.769,44.427 130.611,44.413 L128.741,44.413 L128.741,40.713 L125.638,40.713 L125.638,44.413 L123.689,44.413 C123.544,44.413 123.406,44.353 123.308,44.247 C123.21,44.142 123.16,44 123.171,43.856 C123.171,41.389 123.171,38.963 123.171,36.496 C123.171,36.098 123.41,35.899 123.768,35.899 L125.558,35.899 L125.558,39.878 L128.701,39.878 C128.82,38.445 128.661,37.212 128.741,35.899 z" fill="#743974"/>
    <path d="M69.466,44.452 C69.466,42.662 69.466,40.912 69.466,39.042 L66.801,42.742 C65.966,41.548 65.17,40.395 64.215,39.241 L64.215,43.219 C64.215,44.134 64.215,44.254 63.101,44.572 L63.101,38.963 C63.101,38.366 63.101,37.769 62.544,37.371 C63.204,36.842 63.829,36.271 64.414,35.661 C65.448,37.093 66.483,38.525 67.676,39.957 L69.188,37.809 C69.423,37.506 69.635,37.187 69.824,36.854 C69.975,36.467 70.274,36.157 70.656,35.992 C71.037,35.828 71.468,35.823 71.853,35.979 C72.238,36.135 71.853,36.257 71.853,36.417 Q71.853,40.037 71.853,43.697 C71.853,44.333 71.853,44.452 71.097,44.452 z" fill="#743974"/>
    <path d="M88.323,39.838 C88.819,39.988 89.299,40.188 89.755,40.434 C90.363,40.771 90.74,41.411 90.74,42.105 C90.74,42.8 90.363,43.44 89.755,43.776 C89.065,44.244 88.239,44.468 87.408,44.413 L83.907,44.413 C83.39,44.413 83.191,44.214 83.191,43.736 C83.31,41.364 83.31,38.988 83.191,36.615 C83.167,36.416 83.233,36.215 83.371,36.069 C83.51,35.923 83.706,35.846 83.907,35.86 C85.232,35.777 86.56,35.777 87.885,35.86 C88.42,35.897 88.938,36.06 89.397,36.337 C89.921,36.623 90.247,37.172 90.247,37.769 C90.247,38.366 89.921,38.916 89.397,39.201 C89.085,39.483 88.72,39.7 88.323,39.838 z M85.697,40.434 L85.697,43.816 C86.357,43.802 87.007,43.654 87.607,43.378 C88.112,43.162 88.43,42.654 88.402,42.105 C88.41,41.583 88.116,41.103 87.647,40.872 C87.03,40.606 86.369,40.457 85.697,40.434 z M85.697,39.878 C87.169,39.878 87.965,39.201 87.965,38.167 C87.965,37.133 87.05,36.576 85.697,36.615 z" fill="#743974"/>
    <path d="M18.944,39.838 L20.137,40.315 C20.852,40.604 21.323,41.295 21.331,42.066 C21.357,42.864 20.902,43.6 20.177,43.935 C19.549,44.255 18.853,44.419 18.148,44.413 L14.647,44.413 C14.17,44.413 13.971,44.214 13.971,43.697 C14.09,41.351 14.09,39.001 13.971,36.655 C13.971,36.098 14.21,35.86 14.727,35.86 C16.052,35.773 17.381,35.773 18.705,35.86 C19.292,35.881 19.859,36.075 20.336,36.417 C20.803,36.717 21.086,37.234 21.086,37.789 C21.086,38.344 20.803,38.861 20.336,39.161 C19.907,39.452 19.438,39.68 18.944,39.838 z M16.278,43.816 C17.004,43.85 17.723,43.67 18.347,43.299 C18.719,43.089 18.969,42.717 19.024,42.294 C19.079,41.872 18.931,41.448 18.626,41.151 C17.958,40.66 17.146,40.408 16.318,40.434 z M16.278,39.838 C17.711,39.838 18.586,39.122 18.546,38.048 C18.308,37.027 17.307,36.377 16.278,36.576 z" fill="#743974"/>
    <path d="M142.465,37.093 L144.455,35.621 C145.926,37.491 147.398,39.321 149.109,41.111 C149.109,39.679 149.109,38.366 149.109,37.133 C149.109,36.536 149.109,36.138 149.825,35.979 L150.342,35.979 L150.342,41.827 C150.342,42.424 150.342,43.02 150.939,43.378 C150.263,43.935 149.706,44.492 149.149,45.049 L144.375,39.4 C144.375,39.4 144.375,39.679 144.375,39.798 C144.375,41.111 144.375,42.424 144.375,43.776 C144.375,44.254 144.375,44.532 143.818,44.691 C143.59,44.742 143.374,44.837 143.182,44.97 C142.989,45.102 143.182,44.612 143.182,44.452 C143.182,42.543 143.182,40.474 143.182,38.764 C143.022,37.928 143.062,37.451 142.465,37.093 z" fill="#743974"/>
    <path d="M39.869,44.691 L39.869,38.445 C39.869,37.888 39.869,37.332 39.352,36.934 L41.341,35.462 C42.813,37.332 44.285,39.161 45.995,40.952 L45.995,39.161 C45.995,38.326 45.995,37.491 45.995,36.655 C45.921,36.293 46.152,35.939 46.512,35.86 L47.109,35.541 C47.168,35.736 47.168,35.944 47.109,36.138 L47.109,41.509 C47.109,42.066 47.109,42.583 47.746,42.941 C47.069,43.498 46.512,44.055 45.956,44.612 L41.182,39.002 C40.943,39.002 41.182,39.281 41.182,39.44 C41.182,40.713 41.182,41.946 41.182,43.219 C41.182,43.776 41.182,44.094 40.545,44.254 C40.306,44.376 40.079,44.523 39.869,44.691 z" fill="#743974"/>
    <path d="M117.522,41.469 C117.531,42.466 117.597,43.463 117.721,44.452 L115.533,44.452 C115.241,44.411 115.032,44.15 115.056,43.856 C115.056,41.429 115.056,39.002 115.056,36.536 C115.031,36.368 115.084,36.198 115.201,36.074 C115.317,35.95 115.483,35.885 115.653,35.899 C116.977,35.8 118.307,35.8 119.631,35.899 C120.779,36.058 121.681,36.961 121.838,38.11 C121.996,39.258 121.37,40.37 120.307,40.832 C119.711,41.076 119.08,41.224 118.437,41.27 z M117.522,40.713 C118.328,40.875 119.152,40.535 119.608,39.852 C120.065,39.169 120.065,38.278 119.608,37.596 C119.152,36.913 118.328,36.573 117.522,36.735 z" fill="#743974"/>
    <path d="M108.969,35.939 C108.691,36.854 108.691,36.854 107.816,36.854 L105.827,36.854 L105.827,39.758 L107.577,38.485 L108.969,40.156 L107.259,41.469 L105.787,40.076 L105.787,43.498 L108.054,43.498 C109.009,43.498 109.009,43.498 109.327,44.452 L103.877,44.452 C103.48,44.452 103.281,44.174 103.281,43.736 C103.281,42.424 103.281,41.071 103.281,39.758 C103.281,38.445 103.281,37.69 103.281,36.655 C103.243,36.46 103.298,36.258 103.431,36.109 C103.564,35.961 103.758,35.883 103.957,35.899 L108.93,35.899 z" fill="#743974"/>
    <path d="M154.758,43.498 L157.025,43.498 C157.98,43.498 157.98,43.498 158.299,44.452 L152.888,44.452 C152.49,44.452 152.252,44.254 152.292,43.856 C152.292,41.429 152.292,39.002 152.292,36.576 C152.268,36.404 152.321,36.231 152.435,36.101 C152.55,35.972 152.715,35.898 152.888,35.899 C154.599,35.899 156.27,35.899 157.98,35.899 C157.702,36.854 157.702,36.854 156.827,36.854 L154.798,36.854 L154.798,39.758 L156.548,38.485 L157.98,40.156 L156.309,41.469 L154.758,39.957 C154.678,41.19 154.758,42.424 154.758,43.498 z" fill="#743974"/>
    <path d="M57.611,43.219 L55.503,44.771 L52.281,39.281 C50.968,41.071 49.814,42.901 48.7,44.731 C48.7,44.731 48.7,44.731 48.7,44.731 C48.024,43.856 48.024,43.856 48.7,42.941 L51.445,38.724 C51.713,38.446 51.713,38.007 51.445,37.729 L51.008,37.093 L53.037,35.661 C54.429,38.167 55.901,40.713 57.611,43.219 z" fill="#743974"/>
    <path d="M34.021,35.541 C35.573,38.207 37.164,40.753 38.835,43.219 L36.726,44.771 L33.504,39.281 C32.231,41.071 31.077,42.901 29.924,44.771 L29.287,43.895 C29.287,43.657 29.287,43.537 29.287,43.378 C30.282,41.787 31.316,40.236 32.35,38.644 C32.489,38.516 32.568,38.336 32.568,38.147 C32.568,37.958 32.489,37.778 32.35,37.65 C32.186,37.451 32.04,37.238 31.913,37.013 z" fill="#743974"/>
    <path d="M23.996,35.661 C24.707,36.93 25.519,38.141 26.423,39.281 L28.77,35.661 L29.566,36.735 L27.417,39.878 C27.151,40.233 27.011,40.667 27.02,41.111 C27.068,42.229 27.174,43.345 27.338,44.452 L24.951,44.452 C24.633,44.452 24.553,44.254 24.593,43.935 C24.653,43.035 24.653,42.131 24.593,41.23 C24.6,40.983 24.515,40.742 24.354,40.554 L22.126,37.809 C21.848,37.491 21.808,37.212 22.126,36.974 C22.445,36.735 23.439,36.138 23.996,35.661 z" fill="#743974"/>
    <path d="M100.126,35.939 C100.126,38.445 100.126,40.952 100.126,43.458 L103.269,43.458 C103.204,43.725 103.097,43.981 102.951,44.214 C102.894,44.402 102.708,44.52 102.513,44.492 L98.336,44.492 C97.819,44.492 97.58,44.293 97.62,43.776 C97.739,41.431 97.739,39.08 97.62,36.735 C97.575,36.524 97.64,36.304 97.792,36.151 C97.945,35.999 98.165,35.934 98.376,35.979 z" fill="#743974"/>
    <path d="M93.125,44.452 C93.125,43.418 93.125,42.463 93.125,41.469 C93.125,40.474 93.125,38.286 93.125,36.695 C93.125,36.138 93.363,35.899 93.92,35.939 L95.75,35.939 C95.75,36.456 95.75,36.974 95.75,37.491 C95.75,39.52 95.75,41.469 95.75,43.617 C95.75,44.254 95.75,44.452 94.955,44.452 z" fill="#743974"/>
    <path d="M3.86,35.754 C3.86,38.26 3.86,40.766 3.86,43.273 L7.003,43.273 C6.938,43.54 6.831,43.795 6.685,44.028 C6.628,44.217 6.442,44.335 6.247,44.307 L2.07,44.307 C1.553,44.307 1.314,44.108 1.354,43.591 C1.473,41.245 1.473,38.895 1.354,36.55 C1.309,36.338 1.373,36.119 1.526,35.966 C1.679,35.813 1.899,35.748 2.11,35.794 z" fill="#743974"/>
    <path d="M8.859,44.267 C8.859,43.233 8.859,42.278 8.859,41.284 C8.859,40.289 8.859,38.101 8.859,36.51 C8.859,35.953 9.097,35.714 9.654,35.754 L11.484,35.754 C11.484,36.271 11.484,36.788 11.484,37.305 C11.484,39.334 11.484,41.284 11.484,43.432 C11.484,44.068 11.484,44.267 10.689,44.267 z" fill="#743974"/>
    <path d="M134.015,29.614 L131.668,29.614 L131.668,27.267 L134.015,27.267 z" fill="#743974"/>
    <path d="M84.845,15.094 L82.498,15.094 L82.498,12.747 L84.845,12.747 z" fill="#743974"/>
    <path d="M81.424,12.747 L81.424,15.094 L79.276,15.094 L79.276,12.747 z" fill="#743974"/>
    <path d="M125.661,15.094 L123.314,15.094 L123.314,12.747 L125.661,12.747 z" fill="#743974"/>
    <path d="M76.054,12.747 L76.054,15.094 L73.667,15.094 L73.667,12.747 z" fill="#743974"/>
    <path d="M140.221,27.267 L142.608,27.267 L142.608,29.574 L140.221,29.574 z" fill="#743974"/>
    <path d="M146.905,29.574 L144.558,29.574 L144.558,27.267 L146.905,27.267 z" fill="#743974"/>
    <path d="M134.97,29.574 L134.97,27.267 L137.317,27.267 L137.317,29.574 z" fill="#743974"/>
    <path d="M150.286,27.267 L150.286,29.574 L147.939,29.574 L147.939,27.267 z" fill="#743974"/>
    <path d="M34.976,42.981 L33.385,44.373 L31.754,42.981 L33.345,41.23 z" fill="#743974"/>
    <path d="M50.451,42.981 L52.082,41.23 L53.713,42.981 L52.082,44.373 z" fill="#743974"/>
    <path d="M183.464,20.265 C182.748,22.254 182.032,24.243 181.355,25.994 C180.679,27.744 180.401,28.58 179.963,29.972 C179.848,30.197 179.768,30.439 179.724,30.688 C179.724,31.245 179.724,31.404 180.361,31.404 C181.554,31.404 182.708,31.404 183.901,31.404 C184.324,31.386 184.717,31.182 184.976,30.847 C185.431,30.365 185.76,29.777 185.93,29.137 C186.885,26.431 187.84,23.766 188.755,21.18 C188.835,20.776 189.224,20.511 189.63,20.584 L193.847,20.584 L192.375,24.562 C191.5,26.988 190.624,29.415 189.71,31.842 C189.305,33.006 188.589,34.038 187.641,34.825 C187.147,35.192 186.546,35.388 185.93,35.382 L176.582,35.382 C175.11,35.382 174.433,34.666 174.433,33.194 C174.473,32.265 174.675,31.349 175.03,30.489 C176.144,27.346 177.298,24.243 178.412,21.101 C178.412,20.703 178.69,20.584 179.128,20.584 z" fill="#743974"/>
    <path d="M174.155,20.027 L171.689,26.869 C171.132,28.341 170.575,29.773 170.097,31.245 C169.877,31.985 169.877,32.773 170.097,33.513 C170.199,34.183 170.736,34.704 171.41,34.786 C171.937,34.834 172.458,34.941 172.962,35.104 C172.117,35.222 171.26,35.222 170.415,35.104 L166.437,35.104 C165.818,35.175 165.204,34.926 164.81,34.443 C164.415,33.96 164.294,33.31 164.488,32.717 C164.613,32.116 164.8,31.529 165.045,30.966 C166.517,27.506 167.671,23.885 169.023,20.385 C169.023,19.987 169.341,19.867 169.739,19.867 C170.774,20.066 172.484,20.027 174.155,20.027 z M173.837,20.265 L169.58,20.265 C169.196,20.192 168.825,20.44 168.745,20.822 C167.432,24.442 166.278,28.102 164.767,31.683 C164.525,32.182 164.376,32.721 164.329,33.274 C164.283,33.73 164.436,34.183 164.748,34.518 C165.06,34.854 165.502,35.038 165.96,35.024 L171.012,35.024 C170.213,34.787 169.653,34.067 169.62,33.234 C169.535,32.506 169.63,31.768 169.898,31.086 C170.535,29.375 171.171,27.665 171.768,25.914 z" fill="#743974"/>
    <path d="M176.104,19.032 C174.795,18.924 173.81,17.795 173.88,16.484 C173.95,15.172 175.051,14.155 176.364,14.188 C177.677,14.221 178.725,15.292 178.73,16.605 C178.72,17.281 178.434,17.923 177.938,18.382 C177.441,18.841 176.779,19.076 176.104,19.032 z M178.213,16.645 C178.191,15.512 177.278,14.598 176.144,14.577 C174.988,14.598 174.057,15.529 174.036,16.685 C174.057,17.834 174.995,18.754 176.144,18.754 C176.7,18.754 177.232,18.53 177.621,18.134 C178.01,17.737 178.223,17.201 178.213,16.645 z" fill="#743974"/>
    <path d="M172.086,39.758 C172.96,39.204 173.932,38.826 174.951,38.644 C176.329,38.437 177.736,38.718 178.929,39.44 C180.16,40.151 181.676,40.151 182.907,39.44 C183.303,39.211 183.676,38.945 184.021,38.644 L184.538,38.286 L184.538,38.286 C183.539,39.429 182.076,40.058 180.56,39.997 C179.971,39.951 179.401,39.774 178.889,39.48 C176.757,38.251 174.099,38.408 172.126,39.878 C171.827,40.095 171.507,40.281 171.171,40.434 C171.973,39.21 172.937,38.099 174.036,37.133 L174.036,37.133 C173.264,37.824 172.571,38.598 171.967,39.44 L171.967,39.44 L171.967,39.44 L171.967,39.44 z" fill="#743974"/>
    <path d="M173.916,37.252 C175.228,35.739 177.422,35.357 179.167,36.337 C181.455,37.618 184.287,37.415 186.368,35.82 C188.449,34.225 186.686,35.422 187.004,35.502 L187.004,35.502 C186.855,35.778 186.667,36.033 186.447,36.257 L186.447,36.257 L186.447,36.257 L186.447,36.257 L186.447,36.257 C186.018,36.416 185.605,36.616 185.214,36.854 C183.441,37.672 181.381,37.583 179.685,36.615 C178.454,35.905 176.937,35.905 175.706,36.615 C175.208,36.901 174.73,37.22 174.274,37.57 z" fill="#743974"/>
    <path d="M186.408,36.257 C186.041,36.796 185.628,37.302 185.174,37.769 L185.174,37.769 C185.453,37.411 185.771,37.053 186.05,36.655 C186.328,36.257 186.328,36.655 186.05,36.297 L186.328,36.297 z" fill="#743974"/>
    <path d="M185.174,37.769 C185.174,37.769 185.174,37.769 185.174,37.769 C185.174,37.769 185.174,37.769 185.174,37.769 z" fill="#743974"/>
    <path d="M184.458,38.445 C184.458,38.445 184.458,38.445 184.458,38.445 C184.458,38.445 184.458,38.445 184.458,38.644 z" fill="#743974"/>
    <path d="M187.084,35.382 L187.124,35.342 L187.084,35.382 L187.084,35.382 z" fill="#743974"/>
    <path d="M187.084,35.382 L187.084,35.382 L187.084,35.382 C187.084,35.382 187.084,35.382 187.084,35.382 z" fill="#743974"/>
    <path d="M186.368,36.218 L186.368,36.218 L186.368,36.218 L186.368,36.218 z" fill="#C5AEC5"/>
  </g>
</svg>
