<?xml version="1.0" encoding="UTF-8"?>
<!DOCTYPE svg PUBLIC "-//W3C//DTD SVG 1.1//EN" "http://www.w3.org/Graphics/SVG/1.1/DTD/svg11.dtd">
<svg version="1.1" xmlns="http://www.w3.org/2000/svg" xmlns:xlink="http://www.w3.org/1999/xlink" x="0" y="0" width="150" height="80.674" viewBox="0, 0, 150, 80.674">
  <g id="Artwork_214">
    <path d="M11.803,12.172 C14.305,12.28 16.795,12.575 19.253,13.053 C20.002,13.16 20.758,13.22 21.514,13.231 C23.115,13.368 24.705,13.607 26.275,13.945 C26.542,14 26.812,14.032 27.084,14.041 C29.267,14.093 31.438,14.381 33.559,14.897 C34.047,14.971 34.542,14.991 35.035,14.957 C37.049,15.028 39.047,15.343 40.985,15.897 C41.378,15.968 41.777,15.992 42.176,15.969 C43.786,16.088 45.381,16.367 46.936,16.802 C47.91,17.065 48.864,17.395 49.793,17.79 C49.942,17.82 50.066,17.923 50.126,18.063 C50.218,18.01 50.331,18.01 50.423,18.063 C52.292,18.873 54.148,19.706 56.053,20.444 C57.593,21.073 59.186,21.563 60.813,21.907 C61.207,21.98 61.61,21.98 62.004,21.907 C62.338,21.883 62.62,21.649 62.706,21.324 C62.772,21.05 63.019,20.858 63.301,20.86 C64.16,20.827 65.019,20.928 65.848,21.158 C67.708,21.61 69.537,22.182 71.322,22.871 C72.739,23.395 74.143,24.062 75.559,24.514 C76.321,24.788 77.118,24.919 77.94,25.168 C81.342,26.283 84.627,27.73 87.747,29.489 C88.532,29.929 89.294,30.405 90.127,30.846 C90.96,31.286 91.722,31.512 92.507,31.857 C95.212,33.06 97.843,34.423 100.386,35.939 C101.016,36.256 101.669,36.526 102.338,36.749 C104.916,37.765 107.422,38.958 109.836,40.319 C111.764,41.426 113.847,42.164 115.846,43.092 C116.858,43.556 117.881,44.009 118.881,44.52 C121.547,45.865 124.165,47.282 126.712,48.841 C131.479,51.753 136.026,55.01 140.316,58.588 C142.641,60.511 144.866,62.553 146.981,64.705 C147.866,65.589 148.682,66.54 149.42,67.55 C149.632,67.84 149.797,68.161 149.908,68.502 C149.48,68.133 149.159,67.74 148.801,67.371 C146.921,65.408 144.933,63.575 142.851,61.801 C140.768,60.028 138.483,58.231 136.21,56.541 Q132.104,53.53 127.783,50.828 C125.105,49.15 122.392,47.543 119.583,46.068 C117.322,44.892 114.989,43.863 112.597,42.985 C110.893,42.351 109.137,41.87 107.348,41.545 C105.455,41.17 103.506,41.17 101.612,41.545 C100.252,41.81 99.02,42.522 98.113,43.568 C97.389,44.492 96.859,45.553 96.554,46.686 C96.014,48.601 95.272,50.452 94.34,52.209 C93.351,54.096 91.86,55.673 90.032,56.767 C88.293,57.72 86.321,58.161 84.343,58.041 C82.015,57.911 79.726,57.392 77.571,56.505 C75.606,55.714 73.705,54.775 71.882,53.696 C69.942,52.506 68.073,51.316 66.24,50.007 Q63.206,47.817 60.29,45.413 C58.933,44.294 57.576,43.176 56.279,41.997 Q52.923,38.986 49.697,35.832 C47.686,33.892 45.639,31.857 43.663,29.834 Q41.735,27.942 39.795,25.954 C38.796,24.99 37.903,23.931 36.915,22.967 C35.021,21.116 32.897,19.516 30.595,18.206 C28.404,16.955 26.091,15.93 23.692,15.147 C21.102,14.298 18.441,13.676 15.742,13.291 C12.411,12.823 9.048,12.628 5.685,12.708 C3.995,12.708 2.317,12.85 0.639,13.017 C0.461,13.017 0.27,13.017 0.092,13.017 C0.255,13.064 0.428,13.064 0.592,13.017 C1.591,12.791 2.603,12.684 3.603,12.553 C4.364,12.47 5.126,12.386 5.9,12.339 C5.971,12.339 6.173,12.422 6.078,12.184 L6.257,12.184 C6.257,12.351 6.34,12.303 6.411,12.303 C6.483,12.303 6.733,12.303 6.804,12.184 L8.256,12.184 C8.256,12.267 8.351,12.255 8.399,12.255 L11.803,12.255 M24.216,14.302 C24.288,14.421 24.395,14.433 24.49,14.469 C26.359,15.093 28.178,15.861 29.929,16.766 C32.406,18.059 34.736,19.615 36.879,21.408 C38.391,22.669 39.724,24.121 41.152,25.466 C43.021,27.227 44.841,29.036 46.698,30.786 C49.804,33.726 52.935,36.618 56.219,39.391 C57.41,40.438 58.6,41.486 59.921,42.497 Q62.42,44.508 65.062,46.377 C66.49,47.389 67.978,48.317 69.478,49.245 C70.144,49.65 70.846,49.983 71.537,50.328 C73.954,51.639 76.566,52.555 79.273,53.042 C80.667,53.28 82.091,53.28 83.486,53.042 C85.763,52.617 87.811,51.387 89.258,49.579 C90.219,48.356 91.067,47.05 91.793,45.675 C92.51,44.367 93.368,43.142 94.352,42.021 C95.841,40.34 97.941,39.325 100.184,39.2 C102.032,39.096 103.886,39.244 105.694,39.641 L107.051,39.938 C107.051,39.807 106.956,39.807 106.896,39.784 C104.455,38.542 101.91,37.514 99.291,36.713 C97.369,36.106 95.355,35.84 93.34,35.927 C92.338,35.964 91.36,36.25 90.496,36.761 C89.456,37.47 88.715,38.538 88.413,39.76 C88.029,41.232 87.512,42.666 86.866,44.044 C86.417,44.935 85.848,45.759 85.176,46.496 C83.655,48.077 81.537,48.942 79.344,48.876 C77.304,48.851 75.286,48.447 73.393,47.686 C71.327,46.883 69.336,45.899 67.443,44.747 C64.853,43.185 62.361,41.468 59.98,39.605 C57.326,37.463 54.744,35.321 52.232,33.059 C50.649,31.631 49.09,30.167 47.472,28.715 C46.781,28.072 46.103,27.394 45.413,26.739 C44.223,25.549 42.878,24.359 41.652,23.169 C40.505,21.979 39.28,20.865 37.986,19.837 C36.442,18.687 34.783,17.702 33.035,16.897 C30.328,15.653 27.472,14.761 24.537,14.243 C24.418,14.243 24.288,14.16 24.157,14.243 M97.399,35.082 C97.399,35.082 97.399,35.082 97.399,35.082 L97.256,34.987 C95.396,34.013 93.485,33.139 91.531,32.369 C90.722,32.048 89.901,31.762 89.068,31.488 C87.281,30.836 85.388,30.521 83.486,30.56 C81.792,30.473 80.306,31.681 80.046,33.357 C79.855,34.314 79.572,35.251 79.201,36.154 C78.542,37.77 77.178,38.994 75.5,39.474 C74.33,39.76 73.112,39.788 71.929,39.557 C69.688,39.102 67.531,38.299 65.538,37.177 C63.168,35.934 60.892,34.518 58.731,32.94 C56.707,31.5 54.732,29.977 52.78,28.406 C50.828,26.835 49.209,25.478 47.531,23.978 C46.341,22.919 45.08,21.884 43.889,20.789 C42.48,19.488 40.908,18.376 39.212,17.48 C36.302,16.016 33.162,15.062 29.929,14.659 C29.615,14.597 29.296,14.565 28.977,14.564 L28.977,14.648 L29.203,14.731 C31.21,15.338 33.155,16.135 35.011,17.111 C36.898,18.103 38.671,19.3 40.295,20.682 C42.223,22.336 44.032,24.121 45.925,25.811 C47.293,27.001 48.65,28.275 50.031,29.477 Q53.196,32.238 56.457,34.892 C58.278,36.368 60.159,37.784 62.087,39.117 C63.063,39.795 64.074,40.438 65.098,41.057 C67.256,42.391 69.56,43.473 71.965,44.282 C73.277,44.718 74.643,44.966 76.024,45.02 C78.961,45.125 81.712,43.588 83.164,41.033 C83.783,40.069 84.355,39.058 84.902,38.082 C85.516,37.038 86.324,36.121 87.282,35.38 C88.444,34.583 89.825,34.167 91.234,34.19 C92.741,34.149 94.246,34.313 95.709,34.678 L97.22,35.035 M34.928,15.195 C34.928,15.195 34.928,15.254 34.928,15.266 L35.582,15.493 C38.833,16.523 41.847,18.19 44.449,20.396 C46.222,21.896 48.019,23.371 49.793,24.835 C51.566,26.299 53.089,27.477 54.779,28.751 C57.831,31.144 61.112,33.229 64.574,34.975 C66.467,35.985 68.535,36.623 70.668,36.856 C72.044,37.015 73.43,36.659 74.56,35.856 C75.4,35.22 76.09,34.407 76.583,33.476 C76.956,32.752 77.382,32.055 77.856,31.393 C78.482,30.502 79.38,29.838 80.415,29.501 C81.48,29.23 82.587,29.165 83.676,29.31 C84.927,29.453 86.162,29.712 87.366,30.084 C87.473,30.084 87.592,30.191 87.699,30.084 C87.806,29.977 87.639,29.929 87.58,29.893 L86.902,29.501 C83.947,27.862 80.828,26.541 77.595,25.561 C76.258,25.126 74.857,24.925 73.453,24.966 C72.628,24.954 71.925,25.564 71.822,26.382 C71.768,26.637 71.732,26.896 71.715,27.156 C71.703,28.015 71.347,28.833 70.728,29.427 C70.108,30.022 69.277,30.344 68.418,30.322 C66.867,30.341 65.327,30.041 63.896,29.441 C61.828,28.643 59.836,27.659 57.945,26.501 C54.16,24.3 50.614,21.741 47.079,19.194 C46.039,18.433 44.927,17.775 43.758,17.23 C41.409,16.176 38.898,15.524 36.332,15.302 C35.867,15.228 35.398,15.192 34.928,15.195 M41.604,16.004 C41.667,16.108 41.771,16.182 41.89,16.207 C43.547,16.757 45.124,17.525 46.579,18.492 C49.233,20.301 51.852,22.145 54.577,23.847 C56.79,25.271 59.114,26.513 61.527,27.561 C62.78,28.122 64.107,28.499 65.467,28.679 C66.667,28.91 67.902,28.51 68.74,27.62 C69.151,27.087 69.506,26.513 69.799,25.906 C70.305,24.95 71.277,24.331 72.358,24.276 C73.025,24.238 73.695,24.266 74.357,24.359 C74.453,24.359 74.548,24.359 74.667,24.359 C74.786,24.359 74.5,24.216 74.405,24.181 C73.215,23.705 71.894,23.288 70.62,22.86 C69.073,22.348 67.514,21.848 65.931,21.455 C65.348,21.289 64.75,21.181 64.146,21.134 C63.658,21.134 63.563,21.229 63.777,21.658 L63.848,21.824 C63.993,22.003 64.017,22.252 63.908,22.455 C63.798,22.658 63.578,22.775 63.348,22.752 C63.178,22.764 63.007,22.764 62.837,22.752 C62.261,22.726 61.69,22.634 61.135,22.479 C58.268,21.688 55.473,20.656 52.78,19.396 C51.506,18.789 50.233,18.206 48.924,17.623 C46.853,16.811 44.684,16.279 42.473,16.04 C42.211,16.04 41.938,15.861 41.652,16.04 M107.11,39.962 L107.11,39.962 L107.11,39.962 z" fill="#A62D2A"/>
    <path d="M107.122,39.926 L107.134,39.95 L107.11,39.938 L107.122,39.926 z" fill="#FDFCFC"/>
  </g>
</svg>
