<?xml version="1.0" encoding="UTF-8"?>
<!DOCTYPE svg PUBLIC "-//W3C//DTD SVG 1.1//EN" "http://www.w3.org/Graphics/SVG/1.1/DTD/svg11.dtd">
<svg version="1.1" xmlns="http://www.w3.org/2000/svg" xmlns:xlink="http://www.w3.org/1999/xlink" x="0" y="0" width="200" height="150" viewBox="0, 0, 200, 150">
  <g id="LITC">
    <path d="M29.913,88.72 C28.812,88.078 27.66,87.528 26.469,87.076 L25.138,86.41 C25.96,85.588 26.664,84.805 27.408,84.023 C32.457,78.66 37.35,73.062 41.773,67.543 C45.688,62.572 49.602,57.523 53.203,52.199 C55.587,48.909 57.67,45.411 59.427,41.748 C59.427,41.357 60.014,40.965 59.427,40.535 C58.84,40.104 58.527,40.535 58.174,40.848 C55.302,43.133 52.606,45.632 50.111,48.324 C43.104,55.683 36.411,63.277 29.757,70.949 C29.522,71.262 29.209,71.536 28.895,71.888 C27.881,71.281 26.913,70.601 25.999,69.853 L29.913,65.312 C36.651,57.602 43.994,50.442 51.872,43.901 C53.776,42.263 55.93,40.942 58.253,39.987 C57.782,39.403 57.034,39.119 56.296,39.243 C53.742,39.355 51.244,40.023 48.976,41.2 C43.149,44.1 37.749,47.788 32.927,52.16 C28.776,55.663 24.854,59.429 21.184,63.433 C20.217,62.889 19.3,62.26 18.444,61.554 C18.668,61.132 18.974,60.76 19.344,60.458 C21.722,57.988 24.244,55.661 26.899,53.491 C32.715,48.27 39.32,44.002 46.471,40.848 C49.65,39.415 53.127,38.771 56.609,38.969 C56.335,38.421 55.865,38.382 55.434,38.264 C51.706,37.174 47.765,37.026 43.966,37.834 C37.232,39.277 30.848,42.03 25.177,45.936 C22.617,47.605 20.148,49.409 17.779,51.338 L15.078,49.577 C16.135,48.645 17.26,47.795 18.444,47.032 C24.905,42.161 32.342,38.742 40.247,37.012 C44.941,35.965 49.82,36.086 54.456,37.364 C52.83,36.531 51.108,35.9 49.328,35.485 C40.907,33.577 32.107,34.26 24.081,37.442 C17.405,39.844 11.213,43.424 5.801,48.011 C5.608,48.23 5.33,48.355 5.038,48.355 C4.746,48.355 4.468,48.23 4.274,48.011 L2.121,46.484 L2.121,46.484 C2.516,46.219 2.895,45.932 3.257,45.623 C9.862,40.279 17.579,36.481 25.842,34.506 C31.397,33.132 37.162,32.827 42.83,33.606 C45.476,34.02 48.091,34.608 50.659,35.368 C48.608,34.297 46.423,33.507 44.161,33.019 C34.864,30.569 25.071,30.732 15.861,33.489 C14.672,33.925 13.35,33.358 12.847,32.197 C14.574,31.654 16.34,31.249 18.131,30.984 L23.572,30.005 L32.575,30.005 C34.211,30.383 35.873,30.645 37.546,30.788 C42.279,31.568 46.886,32.977 51.246,34.976 C56.338,37.342 61.006,40.529 65.064,44.41 C70.431,49.405 74.536,55.603 77.041,62.494 C79.251,68.496 80.12,74.909 79.586,81.283 C79.596,81.465 79.596,81.648 79.586,81.831 C78.874,81.465 78.215,81.004 77.629,80.461 C77.237,80.187 77.629,79.717 77.629,79.325 C78.327,72.798 77.524,66.197 75.28,60.028 C73.781,55.981 71.537,52.25 68.665,49.029 C65.792,45.807 68.43,48.637 68.234,48.559 C75.789,60.967 75.437,73.806 70.387,87.076 C69.448,86.41 68.665,85.823 67.843,85.314 C67.021,84.805 67.608,84.531 67.843,84.14 C69.343,80.756 70.446,77.209 71.131,73.571 C72.757,65.948 71.892,58.003 68.665,50.907 C67.817,49.024 66.725,47.26 65.416,45.662 C65.142,45.31 64.946,44.879 64.437,44.84 C63.929,44.801 64.437,44.84 64.203,44.84 L64.203,44.84 L64.437,44.84 C65.602,46.859 66.509,49.016 67.138,51.26 C68.388,56.833 68.24,62.628 66.708,68.13 C65.023,74.619 62.3,80.792 58.644,86.41 C58.296,87.089 57.862,87.721 57.352,88.289 L54.652,86.254 L57.431,81.752 C62.302,74.361 65.311,65.9 66.199,57.092 C66.657,52.87 65.853,48.606 63.889,44.84 C63.487,43.965 62.833,43.229 62.01,42.727 C63.362,46.605 63.362,50.826 62.01,54.704 C60.034,61.652 56.997,68.254 53.008,74.276 C52.058,73.758 51.166,73.141 50.346,72.436 L52.029,69.892 C53.634,67.426 55.121,64.803 56.491,62.063 C58.827,57.871 60.541,53.362 61.58,48.676 C61.912,46.931 61.912,45.138 61.58,43.392 C61.565,42.766 61.297,42.172 60.836,41.748 L60.836,41.748 C59.662,47.448 57.431,52.878 54.26,57.758 C49.187,66.48 43.274,74.687 36.607,82.261 C34.806,84.375 32.692,86.175 31.127,88.602 z" fill="#3E84A1"/>
    <path d="M196.976,68.639 C196.472,68.739 195.953,68.739 195.449,68.639 C189.617,68.639 183.707,68.639 177.913,68.365 C175.986,68.276 174.114,67.696 172.472,66.682 C172.309,66.208 171.835,65.913 171.337,65.978 C169.294,64.835 168.023,62.682 168.01,60.341 C168.01,54.704 168.01,49.107 168.01,43.509 C168.083,41.308 169.241,39.285 171.102,38.108 C173.985,36.166 177.417,35.205 180.888,35.368 C186.173,35.368 191.496,35.368 196.78,35.368 C197.073,35.272 197.388,35.272 197.681,35.368 C197.781,36.926 197.217,38.454 196.128,39.573 C195.039,40.692 193.526,41.298 191.966,41.239 C188.051,41.043 184.137,41.239 180.223,41.239 C178.551,41.275 176.955,41.947 175.76,43.118 C175.106,43.736 174.75,44.606 174.782,45.506 C174.782,49.968 174.782,54.391 174.782,58.854 C174.782,59.284 175.173,59.558 174.978,59.989 L174.978,59.989 L174.978,59.989 C174.978,60.419 174.978,60.85 175.173,61.28 C175.832,65.474 179.461,68.554 183.707,68.522 C187.621,68.522 191.887,68.522 195.958,68.522 C196.311,68.522 196.663,68.522 196.976,68.522" fill="#F4921F"/>
    <path d="M151.609,43.783 C151.765,45.005 151.765,46.241 151.609,47.463 C151.609,54 151.609,60.576 151.609,67.034 C151.609,67.308 151.609,67.622 151.609,67.974 L145.072,67.974 C144.798,67.7 145.072,67.308 145.072,66.917 C145.072,59.754 145.072,52.591 145.072,45.388 C145.112,44.854 145.112,44.318 145.072,43.783 C145.042,43.129 144.752,42.514 144.268,42.073 C143.783,41.633 143.143,41.403 142.489,41.435 L134.66,41.435 L134.66,36.268 L162.217,36.268 L162.217,41.474 L149.378,41.474 C149.378,41.905 149.378,41.905 149.652,42.022 C150.043,42.922 151.179,42.961 151.609,43.783" fill="#F4921F"/>
    <path d="M121.156,36.268 L127.928,36.268 L127.928,68.091 L121.156,68.091 z" fill="#F4921F"/>
    <path d="M103.424,68.13 L99.04,68.13 C94.36,68.045 90.605,64.238 90.585,59.558 L90.585,36.307 L97.474,36.307 C97.709,44.136 97.2,52.199 97.709,60.184 C97.49,61.959 97.921,63.753 98.922,65.234 C99.9,66.865 101.547,67.982 103.424,68.287" fill="#F4921F"/>
    <path d="M196.976,68.639 C196.663,68.639 196.311,68.639 195.958,68.639 C192.044,68.639 187.817,68.639 183.707,68.639 C179.436,68.666 175.797,65.544 175.173,61.32 C175.173,60.889 174.86,60.458 174.978,60.028 L174.978,60.028 L174.978,60.028 C175.773,61.669 177.386,62.759 179.205,62.885 C181.237,63.062 183.28,63.062 185.311,62.885 L197.837,62.885 L197.837,68.052 C197.744,68.195 197.744,68.379 197.837,68.522 L197.837,68.522 L197.602,68.522 L197.133,68.522" fill="#CA7A16"/>
    <path d="M103.424,68.13 C101.575,67.861 99.933,66.805 98.922,65.234 C97.958,63.795 97.528,62.064 97.709,60.341 C98.603,62.029 100.38,63.061 102.289,63.003 C106.438,63.003 110.587,63.003 114.815,63.003 L114.815,68.365 C110.9,68.365 107.221,68.365 103.424,68.365" fill="#CA7A16"/>
    <path d="M151.609,43.783 C151.179,42.961 150.043,42.922 149.652,42.022 C150.474,42.413 151.453,42.648 151.609,43.783" fill="#CA7A16"/>
    <path d="M171.337,66.095 C171.835,66.031 172.309,66.325 172.472,66.8 C172.033,66.682 171.638,66.437 171.337,66.095" fill="#CA7A16"/>
    <path d="M197.837,68.6 C197.744,68.457 197.744,68.273 197.837,68.13 C197.93,67.988 197.837,68.483 197.837,68.6" fill="#F4921F"/>
    <path d="M197.446,68.678 L197.681,68.678 C197.681,68.678 197.681,68.678 197.446,68.678" fill="#F4921F"/>
    <path d="M64.203,44.645 C64.203,44.645 64.437,44.645 64.437,44.645 L64.437,44.645 L64.203,44.645 z" fill="#FBFCFC"/>
    <path d="M64.203,44.645 L64.203,44.645 L64.203,44.684 L64.203,44.645 z" fill="#FBFCFC"/>
    <path d="M197.837,103.359 C197.638,104.463 196.598,105.208 195.489,105.042 L184.998,105.042 C184.427,105.044 183.863,104.91 183.354,104.651 C183.364,105.641 182.916,106.58 182.141,107.195 C181.713,107.517 181.188,107.682 180.653,107.665 C180.653,107.078 180.419,106.608 181.201,106.295 C181.796,105.919 182.117,105.231 182.023,104.534 L182.023,98.271 C182.452,98.211 182.887,98.211 183.315,98.271 L183.315,101.989 C183.315,103.438 183.707,103.907 185.194,103.907 L188.599,103.907 C189.108,103.907 189.265,103.712 189.265,103.242 C189.265,101.872 189.265,100.502 189.265,99.132 L189.265,98.427 C189.677,98.331 190.106,98.331 190.517,98.427 L190.517,103.907 L192.866,103.907 L192.866,98.31 C193.291,98.211 193.733,98.211 194.158,98.31 L194.158,103.751 L194.393,103.751 C196.311,103.751 196.428,103.751 196.506,101.833 C196.506,100.658 196.506,99.445 196.506,98.153 L197.837,98.153 z" fill="#3E84A1"/>
    <path d="M42.595,104.142 C41.304,105.473 39.738,105.082 38.29,105.082 C36.792,105.409 35.226,105.157 33.906,104.377 C32.731,105.551 31.127,105.199 29.639,105.199 C28.152,105.199 26.625,105.551 25.373,104.377 C22.622,105.552 19.511,105.552 16.761,104.377 C15.508,105.551 13.943,105.16 12.455,105.199 C10.968,105.238 8.541,105.199 6.427,105.199 C5.64,105.254 4.865,104.976 4.292,104.433 C3.719,103.89 3.4,103.131 3.413,102.342 C3.335,101.478 3.455,100.607 3.765,99.797 C4.093,98.831 5.016,98.195 6.036,98.232 C7.014,98.232 7.993,98.232 9.05,98.232 L9.05,103.712 C9.33,103.801 9.631,103.801 9.911,103.712 L14.412,103.712 C15.587,103.712 16.056,103.242 16.056,102.028 L16.056,98.114 L17.309,98.114 L17.309,102.028 C17.309,103.164 17.818,103.672 18.992,103.672 L22.906,103.672 C24.002,103.672 24.472,103.203 24.472,102.107 L24.472,98.192 L25.764,98.192 L25.764,101.794 C25.764,103.359 26.195,103.79 27.76,103.79 L31.44,103.79 C32.653,103.79 33.084,103.359 33.084,102.146 L33.084,98.232 L34.297,98.232 C34.376,98.566 34.376,98.915 34.297,99.249 C34.297,100.267 34.297,101.324 34.297,102.381 C34.263,102.75 34.39,103.116 34.644,103.386 C34.899,103.655 35.257,103.803 35.628,103.79 L40.521,103.79 C41.421,103.79 41.852,103.242 41.852,102.146 L41.852,95.648 C42.25,95.55 42.667,95.55 43.065,95.648 C43.142,95.917 43.142,96.202 43.065,96.47 L43.065,102.342 C43.002,102.738 43.127,103.141 43.403,103.433 C43.679,103.724 44.075,103.87 44.474,103.829 L46.862,103.829 C47.267,103.83 47.655,103.662 47.93,103.364 C48.205,103.067 48.343,102.667 48.31,102.263 C48.31,100.345 48.31,98.349 48.31,96.548 L48.31,95.726 C48.702,95.492 49.093,95.726 49.602,95.726 L49.602,102.107 C49.719,102.902 49.476,103.708 48.939,104.306 C48.402,104.903 47.626,105.231 46.823,105.199 C45.633,105.396 44.414,105.316 43.261,104.964 C42.912,104.874 42.623,104.629 42.478,104.299 M7.562,99.367 C6.662,99.367 5.683,99.014 5.135,100.071 C4.552,101.048 4.552,102.265 5.135,103.242 C5.723,104.181 6.701,103.672 7.523,103.829 z" fill="#3E84A1"/>
    <path d="M119.551,95.648 C119.942,95.452 120.334,95.648 120.764,95.648 L120.764,101.911 C120.764,103.398 121.273,103.946 122.761,103.946 L135.717,103.946 C136.157,104.022 136.608,104.022 137.048,103.946 L137.048,98.31 L137.713,98.31 C138.183,98.31 138.379,98.31 138.34,98.936 C138.3,99.562 138.34,100.424 138.34,101.246 C138.551,101.101 138.714,100.896 138.809,100.658 C139.33,99.728 140.183,99.029 141.197,98.701 C142.003,98.47 142.871,98.627 143.546,99.125 C144.221,99.623 144.626,100.407 144.642,101.246 C144.718,101.686 144.718,102.136 144.642,102.576 C144.642,103.007 144.368,103.398 144.211,103.868 L145.816,103.868 C146.211,103.87 146.588,103.705 146.856,103.415 C147.124,103.125 147.258,102.735 147.225,102.342 L147.225,98.427 L148.556,98.427 C148.674,99.978 148.674,101.535 148.556,103.085 C148.489,103.764 148.144,104.386 147.603,104.801 C147.061,105.216 146.372,105.389 145.699,105.277 C138.066,105.277 130.472,105.277 122.839,105.277 C121.926,105.486 120.97,105.213 120.304,104.555 C119.637,103.897 119.354,102.944 119.551,102.028 L119.551,96.235 C119.532,96.04 119.532,95.843 119.551,95.648 M138.457,103.79 L141.902,103.79 C142.39,103.777 142.83,103.489 143.037,103.046 C143.275,102.546 143.382,101.994 143.35,101.441 C143.42,100.773 143.066,100.132 142.463,99.835 C141.86,99.538 141.136,99.648 140.649,100.11 C140.462,100.232 140.291,100.377 140.14,100.541 C139.316,101.466 138.737,102.583 138.457,103.79" fill="#3E84A1"/>
    <path d="M178.579,95.609 C178.657,96.01 178.657,96.422 178.579,96.822 L176.269,96.822 C174.899,96.822 174.43,97.37 174.664,98.858 C175.526,98.858 176.426,98.858 177.287,98.858 C178.038,98.769 178.788,99.028 179.322,99.563 C179.857,100.097 180.116,100.847 180.027,101.598 C180.027,102.733 180.027,103.868 180.027,104.925 C180.027,105.121 179.714,104.925 179.557,104.925 L165.192,104.925 C164.445,105.001 163.701,104.768 163.131,104.279 C162.561,103.791 162.217,103.091 162.178,102.342 C162.002,101.35 162.125,100.328 162.53,99.406 C162.848,98.654 163.557,98.142 164.37,98.075 C165.231,98.075 166.092,98.075 166.953,98.075 L167.619,98.075 L167.619,103.633 L178.775,103.633 C178.775,102.772 178.775,101.872 178.775,101.011 C178.775,100.15 178.148,100.032 177.326,100.032 L173.412,100.032 C173.412,99.132 173.412,98.31 173.412,97.488 C173.51,96.405 174.4,95.566 175.486,95.531 C176.504,95.531 177.561,95.531 178.657,95.531 M166.366,99.445 C165.505,99.445 164.526,99.093 163.978,100.032 C163.354,101.025 163.354,102.288 163.978,103.281 C164.566,104.26 165.544,103.751 166.405,103.907 z" fill="#3E84A1"/>
    <path d="M68.9,98.232 C69.34,98.156 69.79,98.156 70.231,98.232 L70.231,102.146 C70.231,103.477 70.622,103.868 71.953,103.907 L73.753,103.907 C74.224,103.957 74.691,103.792 75.026,103.457 C75.36,103.123 75.526,102.655 75.476,102.185 L75.476,95.648 C75.859,95.533 76.267,95.533 76.65,95.648 C76.846,95.883 76.65,96.118 76.65,96.353 L76.65,102.068 C76.751,102.836 76.517,103.611 76.008,104.195 C75.499,104.779 74.763,105.116 73.988,105.121 C73.168,105.199 72.342,105.199 71.522,105.121 C70.768,105.112 70.049,104.802 69.526,104.26 C68.234,105.512 66.59,105.082 65.103,105.121 C63.615,105.16 61.188,105.121 59.505,105.121 C56.922,105.121 56.1,103.516 56.139,101.559 C56.055,100.634 56.352,99.715 56.961,99.014 C57.335,98.596 57.851,98.331 58.409,98.271 L61.658,98.271 L61.658,103.672 C61.895,103.78 62.166,103.78 62.402,103.672 L67.177,103.672 C67.617,103.723 68.055,103.57 68.368,103.258 C68.68,102.945 68.833,102.507 68.782,102.068 L68.782,98.153 M60.288,99.288 C59.388,99.288 58.37,98.936 57.861,100.032 C57.278,101.009 57.278,102.226 57.861,103.203 C58.448,104.064 59.388,103.672 60.21,103.712 z" fill="#3E84A1"/>
    <path d="M85.027,105.082 L85.027,103.829 L88.236,103.829 C88.315,102.604 88.315,101.375 88.236,100.15 C88.195,99.603 87.727,99.187 87.18,99.21 C87.18,98.819 87.18,98.31 87.532,98.153 C87.963,98.025 88.43,98.145 88.745,98.466 C89.315,98.867 89.64,99.532 89.606,100.228 L89.606,103.829 C91.026,103.947 92.453,103.947 93.873,103.829 C94.578,103.829 94.891,103.046 94.891,102.107 L94.891,95.648 C95.276,95.55 95.68,95.55 96.065,95.648 C96.065,97.879 96.065,100.071 96.065,102.263 C96.088,103 95.8,103.713 95.272,104.227 C94.743,104.741 94.022,105.009 93.286,104.964 C90.585,104.964 87.923,104.964 85.183,104.964" fill="#3E84A1"/>
    <path d="M80.956,108.291 C80.956,107.743 80.76,107.274 81.504,107 C82.038,106.685 82.342,106.09 82.287,105.473 C81.973,105.654 81.645,105.811 81.308,105.943 C80.232,106.252 79.094,105.716 78.646,104.69 C77.905,103.116 77.905,101.293 78.646,99.719 C78.995,98.87 79.844,98.336 80.76,98.388 L83.5,98.388 C83.572,98.55 83.572,98.735 83.5,98.897 L83.5,105.277 C83.541,106.033 83.32,106.78 82.874,107.391 C82.39,108.014 81.625,108.352 80.838,108.291 M82.248,99.562 L81.151,99.562 C80.173,99.562 79.781,99.876 79.547,100.815 C79.311,101.713 79.311,102.657 79.547,103.555 C79.742,104.455 80.173,104.808 80.917,104.808 C81.66,104.808 81.974,104.338 82.13,103.477 C82.25,102.175 82.25,100.864 82.13,99.562" fill="#3E84A1"/>
    <path d="M116.85,95.609 C117.279,95.55 117.713,95.55 118.142,95.609 L118.142,102.185 C118.203,102.977 117.911,103.756 117.346,104.314 C116.78,104.872 115.997,105.153 115.206,105.082 L112.466,105.082 C112.391,104.694 112.391,104.295 112.466,103.907 C112.897,103.712 113.288,103.907 113.758,103.712 L113.758,95.609 L115.01,95.609 L115.01,103.712 C115.449,103.867 115.935,103.796 116.311,103.522 C116.687,103.248 116.903,102.806 116.889,102.342 C116.889,101.402 116.889,100.424 116.889,99.484 L116.889,95.57" fill="#3E84A1"/>
    <path d="M149.848,105.042 C149.848,103.986 149.848,103.986 151.022,103.712 L151.022,95.648 C151.462,95.572 151.913,95.572 152.353,95.648 L152.353,103.751 C152.711,103.885 153.109,103.858 153.446,103.679 C153.783,103.499 154.026,103.183 154.114,102.811 C154.21,102.346 154.21,101.867 154.114,101.402 L154.114,95.648 C154.502,95.571 154.901,95.571 155.289,95.648 C155.676,95.725 155.289,96 155.289,96.196 L155.289,102.028 C155.393,102.883 155.096,103.739 154.483,104.344 C153.87,104.949 153.011,105.236 152.157,105.121 C151.296,105.121 150.435,105.121 149.574,105.121" fill="#3E84A1"/>
    <path d="M144.015,117.412 L144.015,112.871 C143.998,112.243 144.422,111.688 145.033,111.54 C145.432,111.444 145.848,111.444 146.247,111.54 C147.375,111.716 148.524,111.716 149.652,111.54 C150.084,111.48 150.524,111.562 150.905,111.775 C151.296,111.971 151.687,112.245 151.687,112.714 C151.687,114.319 151.687,115.885 151.687,117.49 C151.332,117.609 150.947,117.609 150.591,117.49 L150.591,113.576 C150.591,112.597 150.317,112.362 149.378,112.401 C148.439,112.44 148.399,112.714 148.439,113.38 L148.439,117.294 C148.064,117.373 147.678,117.373 147.303,117.294 L147.303,113.38 C147.303,112.44 147.029,112.206 146.09,112.245 C145.151,112.284 145.151,112.558 145.151,113.223 C145.151,114.593 145.151,115.963 145.151,117.138 C144.785,117.276 144.381,117.276 144.015,117.138" fill="#3E84A1"/>
    <path d="M109.687,98.192 L110.9,98.192 C110.997,98.551 110.997,98.929 110.9,99.288 C110.978,100.488 110.978,101.69 110.9,102.89 C110.8,104.073 109.818,104.987 108.63,105.003 C107.446,105.121 106.252,105.121 105.068,105.003 C103.678,105.025 102.527,103.927 102.485,102.537 C102.465,102.172 102.465,101.806 102.485,101.441 L102.485,98.232 C102.925,98.156 103.375,98.156 103.815,98.232 L103.815,102.146 C103.815,103.555 104.207,103.986 105.616,103.986 L107.808,103.986 C109.1,103.986 109.609,103.477 109.609,102.146 L109.609,98.232" fill="#3E84A1"/>
    <path d="M167.423,117.451 L166.523,117.451 C166.523,115.768 166.523,114.124 166.523,112.519 C166.523,112.01 166.953,111.736 167.423,111.579 C167.795,111.481 168.186,111.481 168.558,111.579 C169.728,111.716 170.911,111.716 172.081,111.579 C173.647,111.579 174.156,112.088 174.156,113.615 C174.156,115.141 174.156,116.12 174.156,117.529 L174.156,117.529 C173.81,117.626 173.444,117.626 173.099,117.529 L173.099,114.398 C173.099,112.636 173.099,112.48 172.081,112.48 C171.063,112.48 170.985,112.48 170.985,114.398 L170.985,117.373 C170.64,117.474 170.273,117.474 169.928,117.373 L169.928,113.458 C169.928,112.44 169.693,112.245 168.715,112.284 C167.736,112.323 167.775,112.558 167.775,113.262 L167.775,117.412" fill="#3E84A1"/>
    <path d="M34.61,111.618 C34.969,111.52 35.348,111.52 35.706,111.618 L35.706,114.515 C35.706,116.003 35.706,116.003 37.194,116.472 L37.859,116.707 L37.859,111.618 C38.194,111.544 38.542,111.544 38.877,111.618 C38.877,111.814 38.877,112.088 38.877,112.284 L38.877,118.273 C38.877,119.291 38.525,119.682 37.546,119.878 C36.89,120.034 36.206,120.034 35.55,119.878 C34.767,119.643 34.493,119.251 34.493,118.351 C35.002,118.351 35.471,118.077 35.785,118.743 C36.098,119.408 37.272,119.212 37.624,118.743 C37.822,118.573 37.909,118.308 37.852,118.054 C37.794,117.799 37.602,117.598 37.35,117.529 C36.841,117.294 36.293,117.177 35.745,116.981 C35.039,116.861 34.555,116.204 34.649,115.494 L34.649,111.579" fill="#3E84A1"/>
    <path d="M195.254,116.668 L195.254,111.579 C195.63,111.52 196.013,111.52 196.389,111.579 L196.389,113.145 C196.389,114.907 196.389,116.668 196.389,118.39 C196.433,118.723 196.342,119.059 196.136,119.324 C195.93,119.589 195.626,119.76 195.293,119.799 C194.565,120.016 193.79,120.016 193.062,119.799 C192.318,119.604 192.044,119.173 192.044,118.312 C192.553,118.312 193.023,118.038 193.336,118.743 C193.649,119.447 194.823,119.173 195.136,118.743 C195.292,118.548 195.334,118.285 195.245,118.052 C195.157,117.819 194.952,117.65 194.706,117.607 L193.179,117.099 C192.434,116.978 191.927,116.278 192.044,115.533 C192.044,114.319 192.044,113.067 192.044,111.814 C192.044,111.814 192.044,111.814 192.044,111.814 L193.101,111.814 L193.101,115.102 C193.101,116.159 193.101,116.198 194.119,116.511 L195.254,116.903" fill="#3E84A1"/>
    <path d="M176.308,119.682 C175.947,119.759 175.574,119.759 175.212,119.682 L175.212,112.949 C175.142,112.241 175.643,111.602 176.348,111.501 C176.931,111.403 177.526,111.403 178.109,111.501 C179.205,111.501 179.557,112.088 179.557,113.223 C179.557,114.359 179.557,114.828 179.557,115.611 C179.614,116.247 179.199,116.829 178.579,116.981 L177.17,117.451 C176.893,117.478 176.641,117.622 176.477,117.846 C176.313,118.07 176.252,118.353 176.308,118.625 C176.328,118.99 176.328,119.356 176.308,119.721 M176.308,116.707 L177.992,116.159 C178.273,116.036 178.456,115.761 178.461,115.455 C178.461,114.672 178.461,113.85 178.461,113.067 C178.461,112.284 177.913,112.323 177.404,112.362 C176.896,112.401 176.348,112.362 176.308,113.028 C176.269,113.693 176.308,115.415 176.308,116.707" fill="#3E84A1"/>
    <path d="M29.013,109.231 L30.109,109.231 C30.128,109.609 30.128,109.988 30.109,110.366 C30.052,110.642 30.113,110.93 30.276,111.16 C30.439,111.39 30.69,111.542 30.97,111.579 C31.44,111.579 31.87,111.853 32.34,111.971 C33.013,112.089 33.487,112.699 33.436,113.38 L33.436,116.12 C33.455,116.685 33.082,117.188 32.536,117.333 C31.941,117.577 31.289,117.645 30.657,117.529 C30.186,117.561 29.727,117.374 29.413,117.022 C29.1,116.67 28.966,116.192 29.052,115.729 L29.052,109.231 M30.187,112.362 C30.187,113.536 30.187,114.633 30.187,115.768 C30.187,116.903 30.461,116.629 31.205,116.629 C31.949,116.629 32.301,116.433 32.34,115.807 L32.34,113.615 C32.333,113.288 32.134,112.996 31.831,112.871 C31.303,112.575 30.736,112.351 30.148,112.206" fill="#3E84A1"/>
    <path d="M12.338,117.451 L11.242,117.451 L11.242,114.319 C11.242,113.028 11.242,112.988 9.95,112.558 L9.089,112.206 L9.089,117.216 C8.733,117.333 8.349,117.333 7.993,117.216 L7.993,109.27 C8.352,109.172 8.73,109.172 9.089,109.27 L9.089,110.64 C9.056,110.854 9.112,111.072 9.246,111.243 C9.379,111.413 9.578,111.521 9.794,111.54 L11.281,111.971 C11.929,112.122 12.374,112.716 12.338,113.38 L12.338,117.294" fill="#3E84A1"/>
    <path d="M103.62,113.067 C103.62,112.01 103.933,111.736 104.872,111.501 C105.427,111.379 106.001,111.379 106.555,111.501 C107.651,111.501 108.043,112.166 108.043,113.262 C108.043,114.359 108.043,115.102 108.043,116.042 C108.079,116.706 107.634,117.3 106.986,117.451 C106.282,117.652 105.537,117.652 104.833,117.451 C104.063,117.349 103.511,116.658 103.581,115.885 C103.504,115.129 104.011,114.436 104.755,114.28 L106.399,113.771 C106.744,113.659 106.947,113.303 106.869,112.949 C106.904,112.764 106.854,112.573 106.732,112.428 C106.611,112.284 106.431,112.202 106.242,112.206 C105.694,112.206 105.107,112.01 104.755,112.754 C104.403,113.497 104.011,112.754 103.62,112.754 M106.79,114.359 C106.281,114.359 105.773,114.633 105.303,114.828 C104.976,114.921 104.762,115.234 104.794,115.572 C104.77,115.875 104.944,116.159 105.225,116.277 C105.589,116.516 106.06,116.517 106.425,116.279 C106.79,116.041 106.979,115.61 106.908,115.181 C107.003,114.915 107.003,114.624 106.908,114.359" fill="#3E84A1"/>
    <path d="M96.848,114.476 L96.848,116.12 C96.918,116.85 96.4,117.506 95.674,117.607 C95.181,117.686 94.679,117.686 94.186,117.607 C92.934,117.607 92.425,117.02 92.425,115.768 C92.425,114.515 92.425,113.928 92.425,113.028 C92.356,112.306 92.878,111.661 93.599,111.579 C94.205,111.442 94.833,111.442 95.439,111.579 C95.869,111.583 96.274,111.778 96.547,112.11 C96.819,112.443 96.929,112.88 96.848,113.302 L96.848,114.593 M95.674,114.593 L95.674,113.106 C95.674,112.401 95.047,112.401 94.538,112.401 C94.03,112.401 93.56,112.401 93.56,113.145 L93.56,115.924 C93.56,116.59 94.03,116.707 94.538,116.707 C95.047,116.707 95.634,116.707 95.674,115.963 L95.674,114.593" fill="#3E84A1"/>
    <path d="M131.881,116.12 C131.981,116.784 131.555,117.413 130.902,117.568 C130.284,117.705 129.642,117.705 129.024,117.568 C128.564,117.573 128.126,117.377 127.824,117.03 C127.523,116.683 127.389,116.222 127.458,115.768 L127.458,112.949 C127.428,112.282 127.897,111.696 128.554,111.579 C129.21,111.423 129.894,111.423 130.55,111.579 C131.436,111.655 132.094,112.435 132.018,113.321 C131.942,114.208 131.162,114.865 130.276,114.789 L129.65,114.789 C129.18,114.789 128.71,114.789 128.632,115.455 C128.554,116.12 128.632,116.433 129.024,116.629 C129.415,116.825 130.198,116.981 130.511,116.629 C130.824,116.277 131.294,116.12 131.881,116.12 M128.632,114.085 L130.08,114.085 C130.472,114.085 130.707,113.85 130.707,113.458 C130.779,113.102 130.553,112.754 130.198,112.675 C129.102,112.323 128.515,112.675 128.632,114.202" fill="#3E84A1"/>
    <path d="M80.408,113.145 C80.309,112.849 80.331,112.526 80.471,112.247 C80.61,111.968 80.855,111.756 81.151,111.658 C82.011,111.347 82.953,111.347 83.813,111.658 C84.38,111.822 84.755,112.36 84.714,112.949 C84.714,114.006 84.714,115.102 84.714,116.159 C84.747,116.792 84.316,117.356 83.696,117.49 C83.053,117.646 82.382,117.646 81.739,117.49 C80.877,117.294 80.408,116.903 80.408,116.12 C80.304,115.703 80.38,115.261 80.619,114.904 C80.857,114.546 81.235,114.305 81.66,114.241 L83.109,113.771 C83.485,113.693 83.729,113.327 83.657,112.949 C83.657,112.519 83.304,112.362 82.874,112.323 C82.443,112.284 81.856,112.323 81.543,112.871 C81.23,113.419 80.877,112.871 80.486,113.145 M83.696,114.75 C83.466,114.683 83.221,114.683 82.991,114.75 L82.13,115.024 C81.719,115.156 81.479,115.583 81.582,116.003 C81.582,116.472 82.013,116.551 82.443,116.551 C82.874,116.551 83.657,116.551 83.696,115.337 L83.696,114.672" fill="#3E84A1"/>
    <path d="M40.247,113.067 C40.159,112.679 40.261,112.272 40.521,111.971 C41.692,111.134 43.265,111.134 44.435,111.971 C44.622,112.188 44.72,112.467 44.709,112.754 L44.709,116.12 C44.716,116.638 44.382,117.1 43.887,117.255 C43.054,117.567 42.137,117.567 41.304,117.255 C40.723,117.17 40.273,116.703 40.208,116.12 C40.208,115.22 40.482,114.75 41.186,114.515 L42.791,114.006 C43.222,114.006 43.535,113.654 43.457,113.184 C43.438,112.979 43.334,112.79 43.171,112.664 C43.008,112.538 42.799,112.485 42.595,112.519 C42.087,112.519 41.617,112.519 41.343,113.106 C41.069,113.693 40.638,113.106 40.247,113.106 M43.496,114.672 C42.919,114.801 42.355,114.985 41.813,115.22 C41.614,115.256 41.441,115.375 41.336,115.547 C41.232,115.719 41.205,115.927 41.265,116.12 C41.323,116.463 41.622,116.712 41.969,116.707 C43.026,116.707 43.378,116.707 43.378,115.494 L43.378,114.711" fill="#3E84A1"/>
    <path d="M180.81,113.067 C180.664,112.397 181.082,111.735 181.749,111.579 C182.39,111.403 183.066,111.403 183.707,111.579 C184.803,111.579 185.155,112.166 185.155,113.302 L185.155,116.12 C185.196,116.73 184.804,117.285 184.215,117.451 C183.549,117.63 182.847,117.63 182.18,117.451 C181.63,117.414 181.138,117.098 180.876,116.613 C180.613,116.129 180.618,115.543 180.888,115.063 C181.046,114.65 181.397,114.342 181.828,114.241 L183.433,113.732 C183.824,113.732 184.098,113.38 184.059,112.949 C183.999,112.548 183.642,112.259 183.237,112.284 C182.689,112.284 182.219,112.284 181.906,112.871 C181.593,113.458 181.241,112.871 180.81,112.871 M184.059,114.398 C183.511,114.593 182.963,114.711 182.454,114.946 C182.263,114.991 182.099,115.114 182.003,115.285 C181.906,115.456 181.885,115.659 181.945,115.846 C181.945,116.277 182.297,116.394 182.728,116.433 C183.785,116.433 184.059,116.433 184.059,115.22 L184.059,114.398" fill="#3E84A1"/>
    <path d="M123.778,115.846 C123.874,116.158 123.835,116.495 123.671,116.777 C123.508,117.059 123.235,117.261 122.917,117.333 C122.051,117.684 121.083,117.684 120.216,117.333 C119.754,117.116 119.486,116.626 119.551,116.12 L119.551,112.832 C119.532,112.267 119.905,111.764 120.451,111.618 C121.276,111.335 122.171,111.335 122.996,111.618 C123.7,111.853 124.013,112.44 123.935,113.419 C123.901,114.046 123.423,114.557 122.8,114.632 C122.369,114.632 121.978,114.632 121.547,114.632 C121.117,114.632 120.647,114.985 120.686,115.65 C120.725,116.316 120.96,116.59 121.586,116.59 C122.213,116.59 122.526,116.59 122.8,116.042 C123.074,115.494 123.504,116.042 123.896,115.807 M120.686,113.928 C121.143,113.789 121.618,113.723 122.095,113.732 C122.487,113.732 122.8,113.732 122.8,113.106 C122.833,112.913 122.785,112.714 122.666,112.558 C122.547,112.402 122.369,112.303 122.174,112.284 C120.999,112.049 120.529,112.519 120.686,113.928" fill="#3E84A1"/>
    <path d="M159.829,115.846 C159.829,116.746 159.594,117.177 158.851,117.412 C158.096,117.626 157.296,117.626 156.541,117.412 C155.862,117.311 155.391,116.682 155.484,116.003 C155.484,114.202 155.484,112.401 155.484,110.601 C155.43,109.974 155.849,109.405 156.463,109.27 C157.287,108.987 158.183,108.987 159.007,109.27 C159.635,109.425 160.031,110.045 159.908,110.679 C159.399,110.679 158.968,110.914 158.577,110.288 C158.185,109.661 157.637,109.896 157.128,110.053 C156.619,110.209 156.659,110.601 156.659,110.992 L156.659,115.611 C156.659,116.003 156.659,116.433 157.167,116.511 C157.676,116.59 158.303,116.746 158.577,116.237 C158.851,115.729 159.36,115.768 159.868,115.807" fill="#3E84A1"/>
    <path d="M70.191,116.12 C70.317,116.764 69.924,117.396 69.291,117.568 C68.737,117.69 68.162,117.69 67.608,117.568 C66.277,117.568 65.847,116.981 65.847,115.65 L65.847,112.871 C65.788,112.32 66.135,111.807 66.669,111.658 C67.505,111.365 68.416,111.365 69.252,111.658 C70.074,111.932 70.348,112.48 70.231,113.536 C70.12,114.193 69.565,114.683 68.9,114.711 L67.765,114.711 C67.525,114.708 67.296,114.811 67.137,114.991 C66.979,115.172 66.908,115.413 66.943,115.65 C66.943,116.237 66.943,116.59 67.686,116.668 C68.43,116.746 68.743,116.668 69.095,116.081 C69.448,115.494 69.761,116.081 70.191,116.081 M66.982,114.006 L68.43,114.006 C68.783,114.007 69.075,113.732 69.095,113.38 C69.248,113.178 69.288,112.913 69.2,112.675 C69.113,112.438 68.912,112.261 68.665,112.206 C67.53,111.892 67.06,112.206 67.177,113.693" fill="#3E84A1"/>
    <path d="M143.037,114.476 L143.037,116.12 C143.049,116.563 142.826,116.98 142.45,117.216 C141.427,117.726 140.224,117.726 139.201,117.216 C138.858,117.009 138.65,116.637 138.653,116.237 Q138.653,114.554 138.653,112.832 C138.628,112.299 138.966,111.817 139.475,111.658 C140.347,111.337 141.304,111.337 142.176,111.658 C142.712,111.833 143.065,112.346 143.037,112.91 L143.037,114.515 M141.863,114.515 L141.863,114.515 L141.863,113.223 C141.863,112.558 141.589,112.362 140.806,112.362 C140.023,112.362 139.788,112.362 139.788,113.223 C139.788,114.085 139.788,114.946 139.788,115.807 C139.788,116.668 140.062,116.668 140.845,116.668 C141.628,116.668 141.863,116.472 141.863,115.807 L141.863,114.515" fill="#3E84A1"/>
    <path d="M17.779,116.12 C17.926,116.746 17.542,117.375 16.918,117.529 C16.292,117.76 15.619,117.827 14.96,117.725 C14.511,117.73 14.083,117.538 13.789,117.198 C13.494,116.859 13.365,116.407 13.434,115.963 L13.434,113.028 C13.391,112.481 13.732,111.977 14.256,111.814 C15.135,111.461 16.117,111.461 16.996,111.814 C17.7,112.088 17.896,112.519 17.818,113.536 C17.765,114.127 17.339,114.617 16.761,114.75 C16.359,114.809 15.95,114.809 15.548,114.75 C15.078,114.75 14.647,114.75 14.569,115.376 C14.491,116.003 14.373,116.355 14.921,116.59 C15.469,116.825 16.135,116.942 16.448,116.59 C16.761,116.237 17.426,116.12 17.779,116.12 M14.608,114.045 L15.978,114.045 C16.332,114.069 16.642,113.81 16.683,113.458 C16.909,113.277 17.001,112.975 16.915,112.698 C16.828,112.421 16.581,112.226 16.291,112.206 C15.117,111.892 14.569,112.401 14.765,113.693" fill="#3E84A1"/>
    <path d="M101.271,117.412 L101.271,113.497 C101.271,113.145 101.271,112.754 100.958,112.558 C100.504,112.321 99.963,112.321 99.51,112.558 C99.157,112.558 99.157,113.067 99.157,113.419 L99.157,117.333 C98.805,117.333 98.453,117.333 98.022,117.333 L98.022,114.907 C98.022,114.163 98.022,113.38 98.022,112.597 C97.987,112.07 98.332,111.593 98.844,111.462 C99.716,111.141 100.673,111.141 101.545,111.462 C102.014,111.582 102.348,111.996 102.367,112.48 C102.367,114.045 102.367,115.65 102.367,117.216 C101.998,117.336 101.601,117.336 101.232,117.216" fill="#3E84A1"/>
    <path d="M165.114,114.476 L165.114,116.12 C165.186,116.816 164.707,117.449 164.018,117.568 C163.306,117.804 162.537,117.804 161.826,117.568 C161.492,117.529 161.188,117.358 160.982,117.093 C160.776,116.828 160.685,116.492 160.73,116.159 L160.73,113.028 C160.669,112.533 160.939,112.056 161.395,111.853 C162.354,111.423 163.45,111.423 164.409,111.853 C164.865,112.039 165.15,112.497 165.114,112.988 L165.114,114.633 M161.826,114.633 L161.826,114.633 L161.826,116.003 C161.826,116.59 162.178,116.785 162.726,116.785 C163.274,116.785 163.9,116.785 163.978,116.12 C164.037,115.142 164.037,114.162 163.978,113.184 C163.978,112.401 163.235,112.48 162.726,112.48 C162.217,112.48 161.826,112.48 161.826,113.262 L161.826,114.633" fill="#3E84A1"/>
    <path d="M46.823,117.373 C46.502,117.454 46.166,117.454 45.844,117.373 C45.844,115.729 45.844,114.124 45.844,112.48 C45.878,112.129 46.105,111.827 46.432,111.697 C47.441,111.187 48.632,111.187 49.641,111.697 C49.965,111.845 50.177,112.163 50.189,112.519 L50.189,117.294 C49.828,117.373 49.454,117.373 49.093,117.294 L49.093,113.38 C49.121,112.949 48.902,112.54 48.528,112.325 C48.155,112.109 47.691,112.123 47.332,112.362 C47.041,112.545 46.887,112.884 46.94,113.223 L46.94,116.629 C47.018,116.844 47.018,117.079 46.94,117.294" fill="#3E84A1"/>
    <path d="M75.985,117.373 C75.623,117.451 75.25,117.451 74.889,117.373 C74.889,115.729 74.889,114.084 74.889,112.48 C74.889,111.932 75.358,111.697 75.789,111.54 C76.52,111.344 77.289,111.344 78.02,111.54 C78.92,111.736 79.233,112.206 79.233,113.145 L79.233,117.412 C78.899,117.49 78.55,117.49 78.216,117.412 C78.118,116.96 78.118,116.493 78.216,116.042 L78.216,113.145 C78.216,112.519 77.903,112.323 77.081,112.323 C76.259,112.323 76.063,112.558 76.063,113.184 L76.063,117.373" fill="#3E84A1"/>
    <path d="M190.791,117.412 C190.417,117.491 190.031,117.491 189.656,117.412 C189.656,116.12 189.656,114.828 189.656,113.497 C189.656,112.166 189.069,112.166 188.012,112.362 C187.582,112.362 187.503,112.832 187.503,113.223 L187.503,117.138 C187.148,117.257 186.763,117.257 186.407,117.138 C186.407,115.494 186.407,113.889 186.407,112.245 C186.407,111.814 186.799,111.54 187.19,111.384 C187.845,111.106 188.57,111.037 189.265,111.188 C190.4,111.188 190.791,111.814 190.791,112.949 L190.791,117.138" fill="#3E84A1"/>
    <path d="M60.836,117.373 C60.475,117.451 60.101,117.451 59.74,117.373 L59.74,113.458 C59.76,113.013 59.525,112.595 59.135,112.38 C58.746,112.164 58.267,112.188 57.9,112.44 C57.587,112.44 57.587,112.91 57.587,113.184 L57.587,117.373 C57.226,117.451 56.852,117.451 56.491,117.373 C56.491,115.729 56.491,114.124 56.491,112.519 C56.491,111.971 57.157,111.501 57.94,111.423 C58.419,111.345 58.908,111.345 59.388,111.423 C60.445,111.423 60.836,112.049 60.836,113.145 L60.836,117.333" fill="#3E84A1"/>
    <path d="M137.204,113.028 C136.735,113.028 136.265,113.302 135.913,112.636 C135.56,111.971 134.973,112.284 134.464,112.401 C133.956,112.519 133.995,112.871 133.995,113.262 L133.995,115.729 C133.995,116.12 133.995,116.511 134.504,116.59 C135.012,116.668 135.678,116.864 135.913,116.316 C136.148,115.768 136.696,115.846 137.165,115.807 C137.262,116.129 137.225,116.476 137.063,116.77 C136.901,117.065 136.628,117.282 136.304,117.373 C135.638,117.552 134.935,117.552 134.269,117.373 C133.134,117.177 132.86,116.785 132.86,115.611 L132.86,113.028 C132.86,112.01 133.134,111.579 134.19,111.384 C134.845,111.211 135.533,111.211 136.187,111.384 C136.522,111.44 136.819,111.631 137.011,111.911 C137.203,112.192 137.273,112.538 137.204,112.871" fill="#3E84A1"/>
    <path d="M98.57,105.042 C98.156,105.121 97.731,105.121 97.318,105.042 L97.318,95.648 C97.727,95.528 98.161,95.528 98.57,95.648 z" fill="#3E84A1"/>
    <path d="M156.972,95.609 C157.372,95.531 157.785,95.531 158.185,95.609 L158.185,105.003 C157.785,105.081 157.372,105.081 156.972,105.003 z" fill="#3E84A1"/>
    <path d="M7.054,109.27 C7.172,109.504 7.172,109.78 7.054,110.014 L5.488,110.014 L5.488,117.373 C5.125,117.527 4.715,117.527 4.353,117.373 L4.353,110.131 C4.033,110.036 3.693,110.036 3.374,110.131 C2.748,110.131 2.552,110.131 2.709,109.348 z" fill="#3E84A1"/>
    <path d="M116.928,117.373 C116.583,117.469 116.217,117.469 115.871,117.373 L115.871,110.17 C115.323,109.935 114.775,110.17 114.267,110.17 C114.186,109.916 114.186,109.642 114.267,109.387 L118.572,109.387 C118.572,109.779 118.572,110.17 118.142,110.209 L116.967,110.209 z" fill="#3E84A1"/>
    <path d="M52.342,95.609 L52.342,105.003 C51.941,105.081 51.529,105.081 51.129,105.003 L51.129,95.648 C51.529,95.569 51.942,95.569 52.342,95.648" fill="#3E84A1"/>
    <path d="M21.693,109.231 L22.711,109.231 C22.711,109.426 22.711,109.661 22.711,109.896 L22.711,115.611 C22.711,116.472 22.711,116.629 23.689,116.629 L25.177,116.629 L25.177,116.629 C25.177,117.138 25.177,117.412 24.629,117.373 C24.081,117.333 23.337,117.373 22.711,117.373 C22.112,117.258 21.682,116.73 21.693,116.12 L21.693,109.231" fill="#3E84A1"/>
    <path d="M89.058,112.206 L88.002,112.206 L88.002,115.768 C88.002,116.198 88.002,116.277 89.058,116.59 C89.154,116.815 89.154,117.069 89.058,117.294 C87.649,117.529 86.906,116.903 86.906,115.533 L86.906,112.401 C86.906,112.401 86.906,112.401 86.906,112.401 C86.906,112.401 86.436,112.401 86.201,112.206 C85.966,112.01 86.201,111.775 86.201,111.579 C86.201,111.384 86.71,111.579 86.945,111.344 C87.18,111.11 86.945,110.483 86.945,110.014 C87.277,109.916 87.63,109.916 87.962,110.014 C87.962,110.483 87.962,110.953 87.962,111.462 L88.863,111.462 C88.962,111.727 88.962,112.019 88.863,112.284" fill="#3E84A1"/>
    <path d="M64.751,116.59 C64.848,116.828 64.848,117.095 64.751,117.333 C64.239,117.529 63.663,117.443 63.231,117.107 C62.799,116.77 62.573,116.233 62.637,115.689 C62.637,114.593 62.637,113.458 62.637,112.284 L62.01,112.284 C61.815,112.049 62.01,111.814 62.01,111.579 C62.01,111.344 62.519,111.579 62.793,111.579 C63.067,111.579 62.793,110.679 62.793,110.209 C63.115,110.13 63.451,110.13 63.772,110.209 C63.968,110.64 63.772,111.149 63.772,111.618 C63.772,112.088 64.398,111.618 64.711,111.618 C65.025,111.618 64.711,112.049 64.711,112.284 C64.711,112.519 64.007,112.284 63.615,112.48 C63.615,113.654 63.615,114.867 63.615,116.042 C63.615,116.629 64.163,116.707 64.594,116.746" fill="#3E84A1"/>
    <path d="M125.188,109.27 C125.535,109.191 125.897,109.191 126.244,109.27 L126.244,117.451 C125.896,117.528 125.536,117.528 125.188,117.451 z" fill="#3E84A1"/>
    <path d="M109.609,109.231 L110.626,109.231 L110.626,117.412 C110.292,117.49 109.943,117.49 109.609,117.412 z" fill="#3E84A1"/>
    <path d="M54.025,109.27 C54.36,109.191 54.708,109.191 55.043,109.27 L55.043,117.412 C54.708,117.49 54.36,117.49 54.025,117.412 z" fill="#3E84A1"/>
    <path d="M72.305,117.412 L71.17,117.412 L71.17,114.358 C71.19,114.02 71.19,113.68 71.17,113.341 C71.17,112.166 71.483,111.54 73.049,111.423 C73.375,111.403 73.702,111.403 74.027,111.423 C74.027,112.01 74.027,112.362 73.284,112.362 C72.54,112.362 72.305,112.597 72.305,113.419 L72.305,117.333" fill="#3E84A1"/>
    <path d="M91.172,117.373 C90.829,117.489 90.458,117.489 90.115,117.373 L90.115,111.618 C90.461,111.522 90.827,111.522 91.172,111.618 z" fill="#3E84A1"/>
    <path d="M26.743,111.579 C27.077,111.501 27.426,111.501 27.76,111.579 L27.76,117.373 C27.426,117.451 27.077,117.451 26.743,117.373 z" fill="#3E84A1"/>
    <path d="M148.791,107.978 C148.517,107.391 148.791,107.313 149.3,107.234 C149.535,106.138 149.809,105.786 150.435,105.747 C150.973,105.65 151.492,105.996 151.609,106.53 C151.179,106.96 150.122,105.864 150.122,107.313 L151.218,107.313 C151.727,107.313 151.844,107.508 151.648,107.978 z" fill="#3E84A1"/>
    <path d="M107.143,95.57 L108.317,95.57 C108.415,96.008 108.415,96.462 108.317,96.901 C107.903,96.979 107.478,96.979 107.064,96.901 C106.984,96.448 106.984,95.984 107.064,95.531" fill="#3E84A1"/>
    <path d="M61.736,96.862 C61.338,96.959 60.922,96.959 60.523,96.862 C60.484,96.432 60.484,95.999 60.523,95.57 C60.95,95.492 61.388,95.492 61.815,95.57 z" fill="#3E84A1"/>
    <path d="M70.191,106.295 C70.231,106.751 70.231,107.209 70.191,107.665 C69.791,107.742 69.379,107.742 68.978,107.665 C68.919,107.21 68.919,106.75 68.978,106.295 C69.392,106.216 69.817,106.216 70.231,106.295" fill="#3E84A1"/>
    <path d="M32.536,106.334 L32.536,107.626 C32.137,107.724 31.721,107.724 31.322,107.626 C31.246,107.186 31.246,106.735 31.322,106.295 C31.721,106.197 32.137,106.197 32.536,106.295" fill="#3E84A1"/>
    <path d="M24.707,106.334 C25.123,106.276 25.544,106.276 25.96,106.334 L25.96,107.665 C25.559,107.744 25.147,107.744 24.746,107.665 C24.666,107.212 24.666,106.748 24.746,106.295" fill="#3E84A1"/>
    <path d="M17.309,107.704 L16.174,107.704 C16.093,107.251 16.093,106.787 16.174,106.334 C16.563,106.275 16.959,106.275 17.348,106.334 C17.407,106.802 17.407,107.275 17.348,107.743" fill="#3E84A1"/>
    <path d="M15.352,107.704 L14.178,107.704 C14.097,107.251 14.097,106.787 14.178,106.334 C14.569,106.334 14.96,106.334 15.352,106.334 C15.45,106.812 15.45,107.305 15.352,107.782" fill="#3E84A1"/>
    <path d="M33.436,106.334 C34.689,106.138 34.767,106.334 34.61,107.665 C34.223,107.743 33.824,107.743 33.436,107.665 z" fill="#3E84A1"/>
    <path d="M66.982,107.665 L66.982,106.334 C68.313,106.099 68.352,106.334 68.195,107.665 C67.797,107.763 67.38,107.763 66.982,107.665" fill="#3E84A1"/>
    <path d="M164.409,95.57 C164.796,95.491 165.196,95.491 165.583,95.57 C165.642,95.985 165.642,96.407 165.583,96.822 C165.185,96.92 164.768,96.92 164.37,96.822 C164.272,96.384 164.272,95.93 164.37,95.492" fill="#3E84A1"/>
    <path d="M7.641,96.94 C7.641,96.431 7.406,95.922 7.641,95.609 C7.931,95.394 8.329,95.394 8.619,95.609 C8.833,95.943 8.833,96.371 8.619,96.705 C8.345,97.175 7.836,96.705 7.406,96.901" fill="#3E84A1"/>
    <path d="M58.566,96.901 L58.566,95.648 C58.951,95.549 59.355,95.549 59.74,95.648 C59.799,96.077 59.799,96.511 59.74,96.94 C59.328,97.037 58.9,97.037 58.488,96.94" fill="#3E84A1"/>
    <path d="M193.923,96.94 C193.884,96.51 193.884,96.078 193.923,95.648 C194.321,95.55 194.738,95.55 195.136,95.648 C195.214,96.075 195.214,96.513 195.136,96.94 C194.734,96.998 194.325,96.998 193.923,96.94" fill="#3E84A1"/>
    <path d="M148.517,95.57 C148.575,96.025 148.575,96.485 148.517,96.94 L147.343,96.94 C147.244,96.515 147.244,96.073 147.343,95.648 C147.773,95.452 148.165,95.648 148.595,95.648" fill="#3E84A1"/>
    <path d="M105.185,96.94 C105.109,96.499 105.109,96.049 105.185,95.609 L106.36,95.609 C106.438,96.036 106.438,96.474 106.36,96.901 C105.957,96.959 105.549,96.959 105.146,96.901" fill="#3E84A1"/>
    <path d="M193.923,93.652 C193.981,94.08 193.981,94.515 193.923,94.943 C193.522,95.023 193.11,95.023 192.709,94.943 L192.709,93.613 C193.089,93.475 193.504,93.475 193.884,93.613" fill="#3E84A1"/>
    <path d="M167.54,96.901 C167.151,96.96 166.755,96.96 166.366,96.901 C166.327,96.471 166.327,96.039 166.366,95.609 C166.768,95.55 167.177,95.55 167.58,95.609 z" fill="#3E84A1"/>
    <path d="M6.897,95.648 L6.897,96.822 C6.522,96.899 6.136,96.899 5.762,96.822 C5.488,95.452 5.762,95.335 6.897,95.531" fill="#3E84A1"/>
    <path d="M146.521,96.901 C146.146,96.979 145.76,96.979 145.385,96.901 C145.324,96.472 145.324,96.037 145.385,95.609 C145.776,95.57 146.169,95.57 146.56,95.609 C146.636,96.049 146.636,96.499 146.56,96.94" fill="#3E84A1"/>
    <path d="M193.101,95.609 L193.101,96.901 C192.712,96.96 192.316,96.96 191.927,96.901 C191.81,96.478 191.81,96.032 191.927,95.609 C192.327,95.53 192.739,95.53 193.14,95.609" fill="#3E84A1"/>
    <path d="M91.172,110.366 L90.194,110.366 C89.998,110.014 90.194,109.622 90.194,109.27 C90.555,109.193 90.928,109.193 91.29,109.27 z" fill="#3E84A1"/>
    <path d="M27.76,109.27 C27.76,110.483 27.76,110.483 26.743,110.327 C26.684,109.977 26.684,109.62 26.743,109.27 C27.088,109.173 27.454,109.173 27.799,109.27" fill="#3E84A1"/>
  </g>
</svg>
