<?xml version="1.0" encoding="UTF-8"?>
<!DOCTYPE svg PUBLIC "-//W3C//DTD SVG 1.1//EN" "http://www.w3.org/Graphics/SVG/1.1/DTD/svg11.dtd">
<svg version="1.1" xmlns="http://www.w3.org/2000/svg" xmlns:xlink="http://www.w3.org/1999/xlink" x="0" y="0" width="80.181" height="80.674" viewBox="0, 0, 80.181, 80.674">
  <g id="Layer_1">
    <path d="M22.212,20.503 C25.939,20.491 28.957,17.471 28.967,13.744 C28.956,10.017 25.938,6.999 22.211,6.988 C18.483,6.999 15.464,10.018 15.453,13.746 C15.465,17.474 18.484,20.493 22.212,20.503 z M22.212,9.403 C24.609,9.408 26.551,11.35 26.557,13.747 C26.552,16.144 24.611,18.087 22.214,18.094 L22.214,18.094 C19.817,18.087 17.877,16.146 17.87,13.749 C17.874,11.352 19.813,9.409 22.21,9.4 z" fill="#2D2D2D" id="Path_128"/>
    <path d="M32.968,24.022 L11.452,24.022 C8.894,24.033 6.823,26.104 6.812,28.662 L6.812,45.928 C6.821,48.486 8.894,50.556 11.452,50.563 L13.68,50.563 L13.68,68.333 C13.68,70.361 16.227,71.08 18.609,71.08 C18.704,71.08 18.779,71.08 18.854,71.08 C19.919,71.082 20.974,70.868 21.954,70.451 L22.244,70.326 L22.529,70.461 C23.513,70.921 24.585,71.16 25.671,71.161 C25.756,71.161 25.841,71.161 25.926,71.156 C28.263,71.156 30.741,70.456 30.741,68.464 L30.741,50.564 L32.968,50.564 C35.527,50.555 37.599,48.483 37.608,45.924 L37.608,28.662 C37.597,26.104 35.526,24.033 32.968,24.022 z M35.196,45.927 C35.19,47.155 34.196,48.149 32.968,48.155 L30.741,48.155 L30.741,33.202 L28.329,33.202 L28.329,68.408 L27.964,68.498 C26.516,68.663 24.028,68.848 23.539,68.223 L23.539,49.472 L21.127,49.472 L21.127,68.296 L20.588,68.426 C19.941,68.59 19.277,68.672 18.61,68.671 C17.943,68.672 17.278,68.59 16.632,68.426 L16.092,68.296 L16.092,33.196 L13.68,33.196 L13.68,48.149 L11.452,48.149 C10.864,48.145 10.301,47.91 9.884,47.495 C9.464,47.079 9.226,46.513 9.225,45.922 L9.225,28.662 C9.229,27.433 10.224,26.438 11.453,26.434 L32.969,26.434 C34.198,26.438 35.193,27.433 35.197,28.662 z" fill="#2D2D2D" id="Path_129"/>
    <path d="M50.831,11.47 C50.928,11.243 51.067,11.036 51.242,10.862 C51.067,11.036 50.928,11.243 50.831,11.47 z" fill="#2D2D2D" id="Path_130"/>
    <path d="M59.078,12.773 C59.055,12.55 59.044,12.325 59.044,12.101 C59.044,11.901 59.055,11.712 59.073,11.522 C59.088,11.349 59.111,11.179 59.137,11.01 L52.591,11.01 C51.925,11.012 51.386,11.551 51.385,12.217 L51.385,38.517 L42.613,38.517 L42.613,40.93 L51.385,40.93 L51.385,67.23 C51.386,67.896 51.925,68.435 52.591,68.436 L59.183,68.436 L59.183,68.423 C59.139,68.203 59.105,67.979 59.083,67.752 C59.06,67.518 59.048,67.282 59.048,67.047 C59.048,66.858 59.059,66.671 59.076,66.487 C59.088,66.331 59.108,66.177 59.131,66.024 L53.801,66.024 L53.801,40.936 L54.509,40.936 L59.181,40.936 L59.181,40.936 C59.139,40.719 59.105,40.499 59.081,40.274 C59.057,40.049 59.047,39.818 59.047,39.586 C59.047,39.394 59.058,39.204 59.075,39.017 C59.088,38.852 59.11,38.69 59.135,38.529 L59.135,38.529 L53.8,38.529 L53.8,13.44 L59.175,13.44 L59.175,13.44 C59.134,13.208 59.101,12.992 59.078,12.773 z" fill="#2D2D2D" id="Path_131"/>
    <path d="M59.415,9.873 C59.471,9.706 59.528,9.539 59.596,9.379 C59.528,9.54 59.47,9.706 59.415,9.873 z" fill="#E5B037" id="Path_132"/>
    <path d="M59.076,11.521 C59.058,11.712 59.047,11.905 59.047,12.1 C59.047,11.902 59.06,11.713 59.076,11.521 z" fill="#E5B037" id="Path_133"/>
    <path d="M59.047,12.1 C59.047,12.324 59.058,12.549 59.081,12.772 C59.059,12.551 59.047,12.327 59.047,12.1 z" fill="#E5B037" id="Path_134"/>
    <path d="M59.348,14.13 L59.348,14.13 L59.348,14.13 z" fill="#E5B037" id="Path_135"/>
    <path d="M59.175,13.421 L59.175,13.421 z" fill="#E5B037" id="Path_136"/>
    <path d="M59.076,39 C59.058,39.187 59.047,39.377 59.047,39.569 C59.047,39.377 59.06,39.188 59.076,39 z" fill="#E5B037" id="Path_137"/>
    <path d="M59.047,39.569 C59.047,39.801 59.059,40.03 59.082,40.257 C59.059,40.031 59.047,39.801 59.047,39.569 z" fill="#E5B037" id="Path_138"/>
    <path d="M59.177,40.924 L59.177,40.924 z" fill="#E5B037" id="Path_139"/>
    <path d="M59.135,38.51 L59.135,38.51 z" fill="#E5B037" id="Path_140"/>
    <path d="M59.277,37.801 L59.277,37.801 L59.277,37.801 z" fill="#E5B037" id="Path_141"/>
    <path d="M59.412,37.35 C59.468,37.18 59.526,37.011 59.596,36.85 C59.526,37.011 59.466,37.18 59.412,37.35 z" fill="#E5B037" id="Path_142"/>
    <path d="M59.356,41.627 L59.356,41.627 L59.356,41.627 z" fill="#E5B037" id="Path_143"/>
    <path d="M59.271,65.307 L59.271,65.307 z" fill="#E5B037" id="Path_144"/>
    <path d="M59.409,64.828 C59.467,64.655 59.526,64.483 59.597,64.317 C59.526,64.487 59.465,64.655 59.409,64.828 z" fill="#E5B037" id="Path_145"/>
    <path d="M59.047,67.039 C59.047,67.274 59.059,67.51 59.083,67.744 C59.059,67.512 59.047,67.277 59.047,67.039 z" fill="#E5B037" id="Path_146"/>
    <path d="M59.185,68.428 L59.185,68.415 L59.185,68.428 z" fill="#E5B037" id="Path_147"/>
    <path d="M59.075,66.478 C59.058,66.663 59.047,66.849 59.047,67.038 C59.047,66.849 59.06,66.663 59.075,66.478 z" fill="#E5B037" id="Path_148"/>
    <g id="Ellipse_23">
      <path d="M71.75,67.538 C71.75,70.417 69.417,72.75 66.538,72.75 C63.659,72.75 61.326,70.417 61.326,67.538 C61.326,64.659 63.659,62.326 66.538,62.326 C69.417,62.326 71.75,64.659 71.75,67.538 z" fill-opacity="0" stroke="#E5B037" stroke-width="3.5"/>
    </g>
    <g id="Ellipse_27">
      <path d="M71.75,40.412 C71.75,43.291 69.417,45.624 66.538,45.624 C63.659,45.624 61.326,43.291 61.326,40.412 C61.326,37.533 63.659,35.2 66.538,35.2 C69.417,35.2 71.75,37.533 71.75,40.412 z" fill-opacity="0" stroke="#E5B037" stroke-width="3.5"/>
    </g>
    <g id="Ellipse_28">
      <path d="M71.75,12.607 C71.75,15.486 69.417,17.819 66.538,17.819 C63.659,17.819 61.326,15.486 61.326,12.607 C61.326,9.728 63.659,7.395 66.538,7.395 C69.417,7.395 71.75,9.728 71.75,12.607 z" fill-opacity="0" stroke="#E5B037" stroke-width="3.5"/>
    </g>
  </g>
</svg>
