<?xml version="1.0" encoding="UTF-8"?>
<!DOCTYPE svg PUBLIC "-//W3C//DTD SVG 1.1//EN" "http://www.w3.org/Graphics/SVG/1.1/DTD/svg11.dtd">
<svg version="1.1" xmlns="http://www.w3.org/2000/svg" xmlns:xlink="http://www.w3.org/1999/xlink" x="0" y="0" width="369" height="336" viewBox="0, 0, 369, 336">
  <g id="Layer_1">
    <g id="LTT">
      <path d="M263.102,168.009 L263.102,133.014 C263.102,131.448 263.102,129.882 263.102,128.316 C262.92,126.665 263.472,125.018 264.613,123.812 C265.754,122.605 267.367,121.962 269.025,122.052 L346.574,122.052 L349.638,122.052 C351.085,122.103 352.448,122.743 353.411,123.822 C354.375,124.902 354.857,126.328 354.745,127.771 C354.745,141.388 354.745,154.392 354.745,167.669 C354.745,178.903 354.745,190.069 354.745,201.235 C354.857,203.696 354.697,206.162 354.268,208.588 C353.519,211.924 352.362,213.082 349.026,213.422 C347.937,213.49 346.846,213.49 345.757,213.422 L269.162,213.422 C267.483,213.622 265.806,213.041 264.611,211.846 C263.415,210.65 262.834,208.973 263.034,207.295 L263.034,168.009 z M270.319,205.388 C273.064,206.009 275.884,206.238 278.694,206.069 C288.051,206.407 297.364,204.614 305.928,200.826 C306.999,200.411 307.99,199.812 308.855,199.056 C314.711,192.861 320.906,187.005 326.966,181.014 C331.187,176.792 335.34,172.571 339.766,168.554 C340.37,168.079 340.858,167.474 341.196,166.784 C343.021,162.353 344.545,157.803 345.757,153.167 C347.161,145.696 347.573,138.073 346.983,130.494 C346.393,122.916 346.983,130.154 346.302,130.018 C320.838,154.665 295.783,180.197 270.319,205.388 M347.392,194.835 C347.321,191.813 346.042,188.945 343.842,186.872 C341.641,184.8 338.702,183.695 335.681,183.805 C332.717,183.656 329.821,184.73 327.671,186.777 C325.522,188.823 324.307,191.663 324.311,194.631 C324.135,197.818 325.314,200.93 327.558,203.2 C329.802,205.47 332.901,206.685 336.089,206.546 C339.147,206.51 342.063,205.252 344.187,203.051 C346.31,200.851 347.465,197.892 347.392,194.835" fill="#0F75B9"/>
      <path d="M190.183,144.112 L189.706,144.52 C188.889,147.107 186.983,147.38 184.6,147.312 C178.744,147.312 172.821,147.312 166.898,147.312 C163.357,147.312 163.357,147.312 161.587,144.248 C160.634,144.997 160.498,146.29 159.613,147.175 L139.527,147.175 C139.061,144.108 138.765,141.016 138.642,137.916 C138.642,134.648 138.642,131.107 137.893,127.975 C137.716,127.108 137.942,126.207 138.506,125.524 C139.323,124.571 140.072,123.482 141.161,122.052 C141.774,128.86 142.319,134.92 142.795,141.048 C148.784,141.757 154.827,141.871 160.838,141.388 C161.236,140.636 161.402,139.783 161.315,138.937 C161.245,137.437 161.814,135.977 162.881,134.92 C163.531,134.196 164.123,133.422 164.651,132.605 C164.918,133.839 164.918,135.116 164.651,136.35 C164.651,137.167 164.651,138.052 164.651,138.937 C164.568,139.621 164.795,140.306 165.269,140.807 C165.742,141.307 166.414,141.57 167.102,141.524 L189.298,141.524 C189.807,140.491 189.997,139.33 189.842,138.188 C189.858,137.23 190.221,136.311 190.864,135.601 C191.681,134.784 192.361,133.831 193.11,132.946 C193.791,133.422 193.519,134.035 193.519,134.58 C193.519,135.124 193.179,137.439 193.042,138.869 C192.986,139.549 193.208,140.222 193.657,140.735 C194.106,141.249 194.744,141.558 195.425,141.592 L215.851,141.592 C216.522,141.757 217.223,141.757 217.893,141.592 C218.073,140.947 218.187,140.286 218.234,139.618 C217.689,136.554 220.004,135.124 221.842,133.218 C221.842,135.056 221.842,136.895 221.502,138.801 C221.162,140.707 222.183,141.797 224.089,141.797 L239.953,141.797 L240.498,141.797 C240.734,140.445 240.734,139.063 240.498,137.712 C240.167,135.756 239.712,133.823 239.136,131.924 C239.136,130.426 239.136,128.724 237.298,128.043 C238.019,125.707 239.225,123.549 240.838,121.711 C240.838,123.754 242.132,124.707 243.63,125.592 L246.898,127.635 C246.081,128.792 245.4,129.95 244.583,130.971 C243.524,132.046 243.065,133.576 243.357,135.056 C243.357,135.737 243.357,136.418 243.357,137.099 C243.745,140.011 243.441,142.973 242.472,145.746 C242.299,146.709 241.401,147.368 240.43,147.243 L221.979,147.243 C219.868,147.243 218.915,145.95 218.302,144.112 C217.145,144.929 217.145,146.358 216.055,147.243 L210.745,147.243 C205.638,147.243 200.464,147.243 195.289,147.243 C192.906,147.243 191,146.767 190.183,144.043" fill="#0F75B9"/>
      <path d="M49.042,147.243 C49.519,138.733 49.042,130.426 49.042,122.188 L49.042,122.188 L62.115,121.711 L63.544,121.711 C66.315,121.534 68.812,123.371 69.468,126.069 C70.334,128.933 69.229,132.027 66.744,133.694 C66.671,133.821 66.671,133.977 66.744,134.103 C70.081,135.542 71.699,139.348 70.421,142.75 C69.801,145.135 67.707,146.843 65.246,146.971 C59.868,147.448 54.557,146.971 49.042,146.971 M56.327,136.895 C56.122,138.636 56.122,140.396 56.327,142.137 C57.89,142.274 59.462,142.274 61.025,142.137 C61.681,142.09 62.285,141.766 62.688,141.246 C63.091,140.727 63.254,140.06 63.136,139.414 C63.161,138.756 62.896,138.12 62.411,137.674 C61.926,137.229 61.27,137.018 60.617,137.099 C59.255,137.099 57.825,137.099 56.123,137.099 M56.123,131.788 C57.553,131.788 58.915,131.788 60.208,131.788 C60.834,131.788 61.433,131.535 61.87,131.086 C62.306,130.637 62.541,130.031 62.523,129.405 C62.562,128.792 62.34,128.191 61.912,127.75 C61.484,127.31 60.89,127.07 60.276,127.09 C58.915,127.09 57.553,127.09 56.123,127.09 z" fill="#0F75B9"/>
      <path d="M124.549,147.107 L116.583,147.107 C115.493,144.86 115.017,142.409 113.791,140.299 L105.485,140.299 C104.191,142.477 103.647,144.997 102.489,147.107 L94.319,147.107 C98.2,138.597 101.944,130.494 105.757,121.78 L114.744,121.78 L124.549,147.107 M110.251,127.975 L109.774,127.975 L107.323,134.375 L112.43,134.375 C111.612,132.129 110.932,130.018 110.183,127.975" fill="#0F75B9"/>
      <path d="M143.817,205.388 C142.115,207.567 142.115,207.567 139.391,206.954 L137.417,206.614 C137.293,204.464 138.402,202.431 140.276,201.371 L141.978,200.35 C141.978,200.35 142.659,199.941 142.591,199.601 C142.523,199.261 143.476,197.695 143.817,196.673 C144.566,196.673 144.361,197.422 144.43,197.831 C144.77,199.873 145.042,201.848 145.315,203.89 C145.315,204.775 145.791,205.388 146.881,205.388 L186.302,205.388 L187.051,205.388 C187.391,203.89 187.051,201.984 189.093,200.963 C189.298,201.79 189.298,202.655 189.093,203.482 C189.093,205.048 189.434,205.592 191,205.661 L196.583,205.661 C196.44,203.916 197.28,202.236 198.762,201.303 C198.97,202.014 198.97,202.77 198.762,203.482 C198.762,205.048 198.762,205.456 200.464,205.592 C201.658,205.797 202.878,205.797 204.072,205.592 C205.221,203.183 207.205,201.272 209.655,200.214 C210.881,199.533 211.63,200.214 212.174,201.303 C212.615,202.229 212.615,203.305 212.174,204.231 C212.174,204.639 211.562,204.98 211.766,205.592 L218.574,205.592 C218.983,204.026 218.574,202.12 220.685,201.235 C220.787,202.003 220.787,202.782 220.685,203.55 C220.685,205.252 220.685,205.729 222.728,205.729 L227.834,205.729 C227.978,202.787 227.369,199.858 226.064,197.218 C226.336,196.101 226.847,195.055 227.562,194.154 C228.31,195.856 230.013,196.197 231.17,197.218 C231.162,197.664 230.963,198.085 230.625,198.375 C229.437,199.517 229.036,201.254 229.604,202.801 C230.086,204.798 229.919,206.897 229.128,208.792 C226.472,208.792 223.749,208.792 221.093,208.792 C220.14,208.792 219.527,208.112 218.847,207.226 C218.302,208.861 217.076,208.861 215.851,208.861 C210.676,208.861 205.57,208.861 200.396,208.861 C199.034,208.861 197.604,208.861 196.719,207.295 C196.453,208.326 195.46,208.997 194.404,208.861 C193.11,208.861 191.817,208.861 190.523,208.861 C189.212,209.086 187.901,208.458 187.255,207.295 C186.642,208.724 185.485,208.861 184.259,208.861 C171.936,208.861 159.681,208.861 147.425,208.861 C144.498,208.861 144.498,208.861 143.681,205.797 M208.293,205.797 C209.042,205.797 209.996,205.797 210.064,204.775 C210.103,204.013 209.63,203.317 208.906,203.073 C208.41,202.84 207.836,202.84 207.34,203.073 C206.727,203.073 206.115,203.482 206.115,204.231 C206.115,204.98 206.864,205.32 207.545,205.524 L208.293,205.524 M140.208,203.958 C141.298,203.958 142.319,204.844 143.476,204.299 C143.576,203.201 143.313,202.101 142.727,201.167 C142.251,202.665 141.161,203.209 140.208,203.958" fill="#0F75B9"/>
      <path d="M86.761,147.039 L79.544,147.039 C79.544,144.656 79.544,142.409 79.544,140.231 C79.673,138.213 79.148,136.207 78.046,134.512 C75.732,130.494 73.417,126.137 71.034,122.052 C71.578,121.439 72.123,122.052 72.668,122.052 C73.212,122.052 75.8,122.052 77.298,122.052 C77.885,121.91 78.505,122.01 79.017,122.33 C79.53,122.651 79.891,123.164 80.021,123.754 C80.974,126.069 82.2,128.248 83.357,130.563 C83.981,129.693 84.506,128.757 84.923,127.771 L87.442,122.937 C87.442,122.324 87.987,121.848 88.804,121.848 L95.612,121.848 C95.612,122.597 95.612,123.005 95.068,123.414 C92.685,127.567 90.234,131.72 87.783,135.873 C87.016,136.993 86.634,138.331 86.693,139.686 C86.693,141.66 86.693,143.635 86.693,145.541 C86.892,146.068 86.892,146.649 86.693,147.175" fill="#0F75B9"/>
      <path d="M23.646,121.848 L23.646,141.388 C27.187,141.729 30.455,141.388 34.268,141.388 L34.268,146.835 L15.68,146.835 C16.225,138.597 16.089,130.494 15.953,121.848 z" fill="#0F75B9"/>
      <path d="M215.442,182.648 L222.251,182.648 C222.659,181.15 221.434,180.265 220.957,178.971 L222.319,176.656 C224.871,178.934 225.337,182.751 223.408,185.575 C223.099,185.679 222.764,185.679 222.455,185.575 L201.349,185.575 C200.464,185.575 199.51,185.575 199.238,184.35 C198.838,185.157 198.028,185.68 197.127,185.712 L171.051,185.712 L170.166,185.712 C169.621,182.784 169.621,179.788 169.281,176.792 C169.245,176.339 169.245,175.884 169.281,175.431 C169.281,173.252 169.281,173.252 170.915,171.55 C171.323,175.226 171.391,178.903 172.14,182.784 C180.923,183.192 189.706,182.784 198.489,182.784 C198.489,180.197 198.489,180.197 200.532,178.699 C200.532,179.72 200.532,180.673 200.532,181.558 C200.532,182.443 201.145,182.852 202.03,182.784 C202.752,182.66 203.431,182.355 204.004,181.899 C205.842,180.673 207.613,179.38 209.451,178.222 C210.499,177.593 211.768,177.449 212.931,177.828 C214.093,178.207 215.034,179.071 215.51,180.197 C215.851,181.082 215.034,181.695 215.102,182.716 M213.059,182.716 C211.357,179.788 208.906,180.061 205.842,183.056 C208.25,183.348 210.69,183.233 213.059,182.716" fill="#0F75B9"/>
      <path d="M36.855,121.78 L44.48,121.78 C44.48,130.222 44.48,138.597 44.48,147.039 L37.127,147.039 C37.127,146.154 36.651,123.958 37.127,121.78" fill="#0F75B9"/>
      <path d="M235.119,180.673 C236.326,179.652 237.043,178.168 237.093,176.588 C237.196,175.911 237.196,175.223 237.093,174.546 C237.093,173.048 237.638,172.163 239,171.277 C239,173.388 239.476,175.226 239.613,177.133 C239.749,179.039 240.021,180.741 240.225,182.375 C240.727,182.705 241.337,182.827 241.928,182.716 C242.779,182.913 243.664,182.913 244.515,182.716 C244.607,179.88 243.974,177.068 242.676,174.546 C243.087,173.592 243.588,172.679 244.174,171.822 C244.923,173.524 246.557,173.933 247.715,174.886 C247.715,176.112 245.945,176.724 245.945,178.018 C245.945,179.312 245.945,180.469 246.421,181.695 C246.49,181.962 246.49,182.244 246.421,182.512 C246.421,185.575 245.876,185.916 242.813,185.916 L238.455,185.916 C238.047,184.214 238.455,182.443 237.842,180.809 C237.162,180.809 237.162,181.354 237.025,181.695 C236.018,184.654 233.335,186.72 230.217,186.937 C228.631,187.081 227.036,187.081 225.451,186.937 C226.713,186.048 228.118,185.381 229.604,184.963 C231.077,184.406 232.455,183.625 233.689,182.648 C233.545,181.067 232.757,179.614 231.51,178.631 C230.264,177.647 231.102,178.631 231.034,178.631 C229.808,179.38 229.059,178.631 228.174,177.882 C227.289,177.133 226.336,176.588 226.676,174.818 C226.69,174.146 226.878,173.489 227.221,172.912 C230.081,173.32 232.328,175.635 235.119,181.218" fill="#0F75B9"/>
      <path d="M94.795,184.963 C93.875,185.155 92.924,185.155 92.004,184.963 C91.869,183.218 91.869,181.465 92.004,179.72 C92.004,179.039 92.004,178.358 92.004,177.746 C91.979,177.092 91.493,176.55 90.846,176.452 C90.229,176.324 89.593,176.562 89.212,177.065 C88.778,177.683 88.54,178.419 88.532,179.175 Q88.532,181.899 88.532,184.895 C87.658,185.1 86.749,185.1 85.876,184.895 L85.876,174.205 C87.102,174.205 88.123,173.66 88.94,174.818 C89.807,174.065 90.943,173.698 92.086,173.801 C93.229,173.904 94.281,174.468 95,175.363 C95.832,174.189 97.253,173.583 98.676,173.797 C99.471,173.777 100.237,174.088 100.793,174.657 C101.348,175.225 101.642,175.999 101.604,176.792 C101.604,179.448 101.604,182.103 101.604,184.758 C100.64,184.971 99.641,184.971 98.676,184.758 L98.676,177.95 C98.716,177.222 98.176,176.592 97.451,176.52 C96.781,176.369 96.09,176.673 95.749,177.269 C95.31,177.959 95.096,178.767 95.136,179.584 C95.136,181.354 95.136,183.124 95.136,184.963" fill="#0F75B9"/>
      <path d="M110.727,208.18 C110.115,208.18 109.842,208.656 109.298,208.861 C108.015,209.56 106.464,209.558 105.182,208.855 C103.901,208.153 103.066,206.846 102.966,205.388 C102.457,203.546 102.869,201.572 104.071,200.086 C105.273,198.6 107.118,197.786 109.025,197.899 C110.491,197.885 111.954,198.045 113.383,198.375 C113.55,198.907 113.55,199.478 113.383,200.009 C113.383,203.141 113.383,206.273 113.383,209.337 C113.383,212.401 112.089,213.831 109.025,213.967 C107.39,214.071 105.749,213.863 104.191,213.354 C103.983,212.643 103.983,211.887 104.191,211.175 L106.915,211.72 C109.91,211.72 110.864,211.039 110.523,207.975 M110.523,200.35 L109.366,200.35 C105.757,200.35 105.076,203.209 105.621,205.32 C105.81,206.144 106.486,206.767 107.323,206.886 C108.175,207.131 109.091,206.835 109.638,206.137 C110.163,205.506 110.451,204.711 110.455,203.89 C110.455,202.801 110.455,201.78 110.455,200.486" fill="#0F75B9"/>
      <path d="M122.37,178.154 L124.208,178.154 C124.482,179.657 124.267,181.208 123.595,182.58 C123.595,183.533 125.093,184.009 125.502,185.235 C123.868,185.235 122.438,185.643 121.349,184.214 C119.73,185.418 117.66,185.842 115.698,185.371 C113.966,185.075 112.59,183.753 112.225,182.035 C111.833,180.4 112.448,178.689 113.791,177.678 L115.289,176.52 C114.54,174.818 113.791,173.048 115.289,171.482 C116.913,170.253 119.071,169.993 120.94,170.801 C121.417,171.55 120.94,172.231 121.281,172.98 C121.621,173.729 120.123,172.98 119.51,172.98 C117.74,172.98 116.855,174.069 117.604,175.703 C118.488,177.47 119.715,179.044 121.212,180.333 C122.166,179.924 121.212,178.767 122.234,178.426 M119.783,182.512 L116.583,178.154 C114.744,179.448 114.336,180.469 115.085,181.626 C115.834,182.784 117.74,183.124 119.715,181.626" fill="#0F75B9"/>
      <path d="M156.072,181.763 C158.115,182.852 158.455,182.784 160.974,180.265 C160.444,179.294 159.727,178.438 158.864,177.746 C158.001,177.054 158.387,177.746 158.319,177.746 C156.889,178.563 156.14,177.133 155.119,176.724 C154.098,176.316 153.553,175.567 153.825,174.137 C154.007,173.238 154.404,172.397 154.983,171.686 C157.961,173.31 160.488,175.65 162.336,178.495 C163.055,177.436 163.255,176.109 162.881,174.886 C162.268,173.524 162.881,172.707 163.493,171.754 L164.174,170.733 C164.924,171.709 165.908,172.482 167.034,172.98 C167.187,173.727 166.895,174.496 166.285,174.954 C164.515,176.112 164.583,178.222 163.561,179.72 C162.54,181.218 163.561,180.878 163.561,181.422 C164.174,182.905 164.174,184.57 163.561,186.052 L157.434,186.052 C156.413,186.052 155.936,185.575 155.936,184.622 C155.936,183.669 155.936,183.124 155.936,182.103 M160.361,183.329 C161.042,183.329 161.587,183.329 162.132,182.92 C162.676,182.512 162.132,182.035 161.451,181.899 C160.855,182.142 160.438,182.689 160.361,183.329" fill="#0F75B9"/>
      <path d="M48.089,194.835 C48.985,194.628 49.916,194.628 50.812,194.835 C51.221,196.197 50.812,197.626 50.812,198.988 C50.812,200.35 51.629,198.988 51.97,198.512 C53.016,198.044 54.178,197.902 55.306,198.103 C56.241,198.058 57.148,198.424 57.79,199.105 C58.431,199.786 58.743,200.713 58.642,201.643 C58.642,204.026 58.642,206.409 58.642,208.792 C57.708,209.061 56.717,209.061 55.783,208.792 C55.783,206.614 55.783,204.503 55.783,202.461 C55.783,200.418 55.306,200.554 54.353,200.35 C53.268,200.04 52.117,200.558 51.629,201.575 C51.44,202.012 51.303,202.469 51.221,202.937 C51.221,204.095 51.221,205.252 51.221,206.409 C51.221,207.567 51.221,207.907 51.221,208.724 C50.341,208.86 49.445,208.86 48.566,208.724 L48.566,194.835 z" fill="#0F75B9"/>
      <path d="M115.017,198.58 C115.942,198.445 116.883,198.445 117.808,198.58 L120.191,206.001 C121.553,203.414 122.03,200.895 123.051,198.58 C123.862,198.444 124.69,198.444 125.502,198.58 C125.502,199.192 125.502,199.669 125.502,200.146 L121.281,211.175 C120.123,214.171 118.489,214.852 115.289,213.899 C115.289,213.354 115.289,212.809 115.289,212.265 C115.289,211.72 115.902,212.265 116.242,212.265 C117.196,212.478 118.187,212.121 118.785,211.348 C119.383,210.575 119.48,209.526 119.034,208.656 C118.149,206.001 117.127,203.346 116.242,200.622 C116.242,200.146 116.242,199.601 115.629,198.92" fill="#0F75B9"/>
      <path d="M63.476,208.929 L62.727,208.929 L60.889,208.929 L60.889,198.58 C62.115,198.58 63.204,197.967 64.089,199.261 C65.034,198.608 66.142,198.231 67.289,198.171 C68.36,197.974 69.461,198.291 70.264,199.027 C71.066,199.762 71.478,200.832 71.374,201.916 L71.374,208.724 C70.417,208.995 69.404,208.995 68.446,208.724 L68.446,205.388 C68.446,204.639 68.446,203.89 68.446,203.209 C68.446,201.303 67.834,200.486 66.54,200.282 C65.098,200.204 63.858,201.293 63.749,202.733 C63.681,203.957 63.681,205.185 63.749,206.409 C63.846,207.155 63.846,207.911 63.749,208.656" fill="#0F75B9"/>
      <path d="M76.685,173.797 C78.187,173.699 79.661,174.244 80.739,175.295 C81.816,176.347 82.397,177.807 82.336,179.312 C82.494,180.854 81.978,182.389 80.922,183.524 C79.865,184.659 78.371,185.282 76.821,185.235 C75.275,185.294 73.775,184.701 72.687,183.601 C71.599,182.5 71.024,180.993 71.102,179.448 C70.979,177.927 71.526,176.428 72.598,175.343 C73.67,174.257 75.162,173.693 76.685,173.797 M74.098,179.856 C74.071,180.128 74.071,180.402 74.098,180.673 C74.231,181.944 75.272,182.928 76.549,182.988 C77.831,183.072 78.96,182.151 79.136,180.878 C79.169,180.492 79.169,180.105 79.136,179.72 C79.136,177.609 78.183,176.043 76.481,176.043 C74.778,176.043 73.893,177.269 73.825,179.448 L73.825,179.856" fill="#0F75B9"/>
      <path d="M101.672,203.686 C101.841,205.206 101.32,206.722 100.251,207.816 C99.183,208.911 97.681,209.469 96.157,209.337 C93.293,209.021 91.125,206.601 91.125,203.72 C91.125,200.839 93.293,198.419 96.157,198.103 C97.661,197.999 99.136,198.556 100.196,199.629 C101.256,200.702 101.795,202.183 101.672,203.686 M98.744,203.686 C98.744,201.712 98.132,200.622 96.77,200.35 C95.408,200.078 93.842,201.099 93.57,203.209 C93.346,204.041 93.474,204.929 93.925,205.663 C94.376,206.398 95.109,206.914 95.953,207.09 C97.655,207.09 98.744,205.933 98.744,203.686" fill="#0F75B9"/>
      <path d="M84.106,203.686 C84.25,205.2 83.72,206.701 82.658,207.789 C81.596,208.878 80.108,209.444 78.591,209.337 C77.08,209.421 75.607,208.847 74.55,207.764 C73.493,206.681 72.956,205.194 73.076,203.686 C72.958,202.208 73.479,200.75 74.508,199.683 C75.536,198.615 76.974,198.04 78.455,198.103 C79.976,197.981 81.475,198.527 82.56,199.599 C83.646,200.672 84.21,202.164 84.106,203.686 M75.936,203.686 C75.936,205.661 76.957,206.886 78.523,206.954 C80.089,207.022 81.178,205.729 81.178,203.618 C81.178,201.507 80.361,200.214 78.659,200.214 C76.957,200.214 75.868,201.507 75.936,203.686" fill="#0F75B9"/>
      <path d="M38.08,179.448 L34.472,179.448 C33.35,179.209 32.19,179.209 31.068,179.448 C31.068,182.648 32.566,183.329 37.195,182.375 C37.429,183.06 37.429,183.802 37.195,184.486 C35.541,184.893 33.812,184.893 32.157,184.486 C31.363,184.355 30.614,184.027 29.978,183.533 C27.556,180.921 27.556,176.885 29.978,174.273 C31.72,172.966 34.067,172.806 35.97,173.865 C37.75,174.858 38.621,176.938 38.08,178.903 M35.425,178.154 C35.017,176.316 34.472,175.703 33.315,175.703 C32.157,175.703 31.408,176.52 31.204,178.154 z" fill="#0F75B9"/>
      <path d="M56.532,182.58 C56.775,183.285 56.775,184.053 56.532,184.758 C54.9,185.168 53.193,185.168 51.561,184.758 L50.404,184.758 C47.969,183.446 46.822,180.579 47.68,177.95 C47.872,175.627 49.715,173.784 52.038,173.592 C53.608,173.158 55.29,173.606 56.434,174.765 C57.579,175.924 58.007,177.611 57.553,179.175 L50.744,179.175 C50.063,182.375 51.97,183.329 56.736,182.307 M54.625,178.154 C54.625,176.52 53.944,175.907 52.855,175.771 C51.766,175.635 50.812,176.452 50.404,178.154 C51.806,178.324 53.223,178.324 54.625,178.154" fill="#0F75B9"/>
      <path d="M25.621,196.946 C24.395,196.946 23.17,196.946 21.74,196.946 L21.74,208.792 C20.691,209.063 19.589,209.063 18.54,208.792 C18.54,204.844 18.54,200.963 18.54,197.014 C17.247,196.947 15.952,196.947 14.659,197.014 C14.42,196.307 14.42,195.542 14.659,194.835 L25.621,194.835 C25.93,195.505 25.93,196.276 25.621,196.946" fill="#0F75B9"/>
      <path d="M245.468,207.158 C244.31,207.703 243.153,208.248 242.064,207.158 C241.112,206.122 240.895,204.607 241.519,203.346 C241.907,202.115 242.584,200.994 243.493,200.078 C244.515,198.92 245.536,198.988 246.489,200.078 C247.394,201.202 247.919,202.585 247.987,204.026 C248.112,206.676 247.397,209.297 245.945,211.516 C244.907,213.441 242.664,214.378 240.566,213.763 C239.003,213.568 237.522,212.956 236.276,211.992 C240.14,212.987 244.172,211.141 245.945,207.567 C247.717,203.993 245.945,207.158 245.945,206.954 C245.945,206.75 245.536,206.954 245.4,206.954 M245.4,204.026 C245.4,203.073 244.923,202.392 244.038,202.392 C243.21,202.386 242.508,203 242.404,203.822 C242.8,204.221 243.34,204.446 243.902,204.446 C244.464,204.446 245.004,204.221 245.4,203.822" fill="#0F75B9"/>
      <path d="M36.31,203.686 L29.502,203.686 C29.193,204.568 29.357,205.546 29.937,206.278 C30.518,207.01 31.433,207.394 32.361,207.295 C33.391,207.197 34.414,207.038 35.425,206.818 C35.595,207.488 35.595,208.19 35.425,208.861 C34.069,209.324 32.629,209.486 31.204,209.337 C30.379,209.298 29.58,209.04 28.889,208.588 C26.4,206.638 25.732,203.15 27.323,200.418 C28.839,198.22 31.737,197.466 34.132,198.648 C35.84,199.698 36.646,201.754 36.106,203.686 M29.297,202.324 C30.651,202.53 32.029,202.53 33.383,202.324 C33.383,200.622 32.702,200.078 31.476,200.078 C30.251,200.078 29.57,200.758 29.297,202.392" fill="#0F75B9"/>
      <path d="M25.893,170.46 C26.098,171.126 26.098,171.838 25.893,172.503 C24.668,173.048 23.306,172.503 21.876,172.912 C21.774,174.907 21.774,176.907 21.876,178.903 C21.876,180.878 21.876,182.784 21.876,184.826 C20.839,184.997 19.781,184.997 18.744,184.826 C18.744,180.809 19.085,176.86 18.744,172.912 C17.383,172.435 16.089,172.912 14.795,172.912 C13.502,172.912 14.795,171.55 14.795,170.733 z" fill="#0F75B9"/>
      <path d="M138.302,177.609 C138.51,178.321 138.51,179.077 138.302,179.788 C138.14,180.395 138.239,181.042 138.575,181.572 C138.911,182.102 139.454,182.468 140.072,182.58 L141.434,182.58 L148.787,182.58 C149.157,182.735 149.574,182.735 149.944,182.58 C150.353,181.558 149.468,180.878 149.127,179.924 C149.447,179.01 149.957,178.174 150.625,177.473 C152.122,179.745 152.122,182.69 150.625,184.963 C150.312,185.344 149.817,185.526 149.332,185.439 L140.14,185.439 C139.129,185.545 138.131,185.143 137.477,184.366 C136.822,183.588 136.595,182.536 136.872,181.558 C136.975,180.051 137.467,178.596 138.302,177.337" fill="#0F75B9"/>
      <path d="M68.038,182.716 C68.241,183.335 68.241,184.003 68.038,184.622 C65.787,185.793 63.038,185.381 61.229,183.601 C59.698,181.304 59.542,178.354 60.821,175.907 C62.046,173.865 64.293,173.32 68.038,174.205 C68.152,174.95 68.152,175.707 68.038,176.452 C66.472,176.452 64.838,175.499 63.544,176.792 C62.803,177.523 62.428,178.547 62.523,179.584 C62.523,182.375 63.817,183.124 67.698,182.716" fill="#0F75B9"/>
      <path d="M45.842,206.75 L45.842,208.724 C43.618,209.982 40.827,209.592 39.034,207.771 C37.601,205.407 37.601,202.442 39.034,200.078 C40.327,198.171 42.642,197.626 45.842,198.58 C46.06,199.243 46.06,199.959 45.842,200.622 C45.161,200.622 44.48,200.622 43.732,200.622 C41.689,200.622 40.463,201.848 40.463,204.095 C40.364,204.989 40.692,205.879 41.348,206.495 C42.005,207.111 42.913,207.382 43.8,207.227 C44.457,207.279 45.117,207.279 45.774,207.227" fill="#0F75B9"/>
      <path d="M150.966,153.303 C151.77,152.133 152.733,151.079 153.825,150.171 C154.827,151.036 155.982,151.705 157.23,152.146 L159.749,150.103 L163.698,152.35 C163.031,153.621 162.157,154.772 161.11,155.754 C159.544,155.754 158.387,154.256 156.889,153.78 L154.71,155.754 C153.205,155.42 151.874,154.549 150.966,153.303" fill="#0F75B9"/>
      <path d="M221.706,150.103 L225.791,152.418 L223,155.822 C221.573,155.279 220.205,154.595 218.915,153.78 L216.6,155.822 C215.206,155.358 213.944,154.564 212.923,153.507 C213.559,152.179 214.519,151.031 215.715,150.171 C216.767,150.962 217.91,151.625 219.119,152.146 C220.053,151.56 220.92,150.875 221.706,150.103" fill="#0F75B9"/>
      <path d="M86.012,194.903 C86.933,194.71 87.883,194.71 88.804,194.903 L88.804,208.792 C87.893,209.063 86.923,209.063 86.012,208.792 z" fill="#0F75B9"/>
      <path d="M44.072,184.963 L41.28,184.963 L41.28,170.46 C42.21,170.394 43.143,170.394 44.072,170.46 z" fill="#0F75B9"/>
      <path d="M235.936,208.52 C235.528,204.98 235.051,201.712 234.711,197.899 C234.711,196.333 235.732,195.38 236.617,194.222 C238.028,198.926 237.788,203.972 235.936,208.52" fill="#0F75B9"/>
      <path d="M192.157,153.439 C191.521,154.591 190.437,155.429 189.161,155.754 C188.205,155.147 187.335,154.415 186.574,153.575 C187.079,152.401 188.001,151.455 189.161,150.92 C190.308,151.566 191.324,152.42 192.157,153.439" fill="#0F75B9"/>
      <path d="M219.391,194.426 C220.12,194.677 220.791,195.07 221.366,195.584 C220.14,197.626 220.14,197.626 217.621,196.469 C216.94,196.469 216.736,197.286 215.987,197.286 C215.255,197.114 214.576,196.763 214.013,196.265 C214.318,195.478 214.866,194.81 215.579,194.358 L217.485,195.312 C218.302,195.312 218.574,194.358 219.391,194.426" fill="#0F75B9"/>
      <path d="M209.11,194.563 C209.941,194.8 210.708,195.219 211.357,195.788 C211.357,196.605 210.54,196.946 210.064,197.49 C209.587,198.035 208.498,196.741 207.681,196.469 C206.864,196.197 206.727,197.218 205.979,197.422 C205.226,197.266 204.537,196.887 204.004,196.333 C204.397,195.678 204.932,195.119 205.57,194.699 C206.796,195.448 208.021,196.469 209.11,194.699" fill="#0F75B9"/>
      <path d="M183.238,212.605 C183.557,211.98 183.997,211.425 184.532,210.971 C185.281,210.971 185.689,211.72 186.37,211.788 C187.051,211.856 187.255,211.039 187.936,210.835 C188.681,211.084 189.357,211.504 189.91,212.061 C189.702,212.879 189.158,213.571 188.413,213.967 L186.438,212.878 L185.144,213.831 C184.37,213.695 183.683,213.253 183.238,212.605" fill="#0F75B9"/>
      <path d="M220.753,174.069 C219.187,175.09 219.187,175.09 217.485,173.66 C217.752,173.052 218.238,172.566 218.847,172.299 C219.596,172.299 219.868,173.116 220.685,173.116 C221.502,173.116 221.57,172.231 222.319,172.095 C223.041,172.375 223.726,172.741 224.362,173.184 C224.362,174.001 223.545,174.341 223.204,174.818 C222.864,175.295 221.706,174.205 220.753,174.069" fill="#0F75B9"/>
      <path d="M138.098,193.065 L139.8,194.086 C140.617,194.086 140.889,193.405 141.502,193.201 C142.227,193.444 142.915,193.788 143.544,194.222 C143.544,195.107 142.727,195.448 142.319,195.924 C141.91,196.401 140.821,195.243 139.936,195.107 L138.71,195.924 C138.04,195.732 137.415,195.408 136.872,194.971 C136.872,194.018 137.757,193.814 138.098,193.065" fill="#0F75B9"/>
      <path d="M144.293,174.886 C143.34,175.975 142.387,175.703 141.366,174.886 C141.366,174.205 142.047,173.865 142.523,173.456 C143,173.048 143.681,174.205 144.498,174.205 C145.315,174.205 145.178,173.456 145.859,173.388 C146.55,173.592 147.166,173.995 147.63,174.546 C147.374,175.134 146.947,175.633 146.404,175.975 C145.519,175.975 145.11,175.295 144.293,175.158" fill="#0F75B9"/>
      <path d="M198.625,196.265 C198.138,197.031 197.424,197.626 196.583,197.967 C195.748,197.685 195.014,197.165 194.472,196.469 C194.865,195.574 195.565,194.849 196.447,194.426 C197.279,194.901 198.018,195.524 198.625,196.265" fill="#0F75B9"/>
      <path d="M270.319,205.388 C295.851,180.197 320.838,154.665 346.302,129.882 C346.847,129.882 346.983,129.882 346.983,130.358 C347.619,138.024 347.23,145.74 345.826,153.303 C344.613,157.939 343.089,162.489 341.264,166.92 C340.926,167.61 340.438,168.215 339.834,168.69 C335.408,172.707 331.255,176.929 327.034,181.15 C320.974,187.141 314.779,192.997 308.923,199.192 C308.058,199.948 307.067,200.547 305.996,200.963 C297.432,204.75 288.12,206.543 278.762,206.205 C275.952,206.375 273.132,206.145 270.387,205.524" fill="#FFFFFF"/>
      <path d="M347.392,194.835 C347.465,197.892 346.31,200.851 344.187,203.051 C342.063,205.252 339.147,206.51 336.089,206.546 C332.901,206.685 329.802,205.47 327.558,203.2 C325.314,200.93 324.135,197.818 324.311,194.631 C324.307,191.663 325.522,188.823 327.671,186.777 C329.821,184.73 332.717,183.656 335.681,183.805 C338.702,183.695 341.641,184.8 343.842,186.872 C346.042,188.945 347.321,191.813 347.392,194.835" fill="#FFFFFF"/>
    </g>
  </g>
</svg>
