<?xml version="1.0" encoding="UTF-8"?>
<!DOCTYPE svg PUBLIC "-//W3C//DTD SVG 1.1//EN" "http://www.w3.org/Graphics/SVG/1.1/DTD/svg11.dtd">
<svg version="1.1" xmlns="http://www.w3.org/2000/svg" xmlns:xlink="http://www.w3.org/1999/xlink" x="0" y="0" width="200" height="150" viewBox="0, 0, 200, 150">
  <g id="NOC">
    <path d="M76.02,52.174 C59.432,61.912 51.846,80.492 57.392,97.797 C62.937,115.103 80.286,126.992 99.995,126.992 C119.703,126.992 137.053,115.103 142.598,97.797 C148.143,80.492 140.557,61.912 123.969,52.174 L118.697,59.486 C127.709,64.828 133.503,73.693 134.383,83.485 C135.263,93.277 131.129,102.889 123.192,109.506 L123.192,92.748 C121.139,95.744 117.642,101.229 113.369,101.99 L113.369,115.244 C110.637,116.301 107.763,117.018 104.823,117.377 L104.823,97.369 C102.674,100.799 99.151,103.331 95,104.428 L95,117.123 C92.241,116.734 89.54,116.052 86.953,115.092 L86.953,103.971 C82.334,102.38 78.895,98.776 77.796,94.373 L77.463,94.373 L77.463,109.608 C69.334,103.056 65.03,93.396 65.837,83.511 C66.644,73.625 72.467,64.658 81.57,59.283 z" fill="#0D0CE3"/>
    <path d="M70.915,44.759 C56.848,53.133 47.921,67.088 46.828,82.412 C45.736,97.735 52.606,112.633 65.365,122.608 L68.195,118.139 C57.093,109.107 51.221,95.86 52.308,82.303 C53.396,68.746 61.32,56.426 73.745,48.974 z M129.075,44.759 L126.022,48.974 C138.63,56.463 146.64,68.954 147.634,82.678 C148.628,96.403 142.49,109.752 131.072,118.698 L133.847,123.166 C146.955,113.323 154.146,98.348 153.202,82.855 C152.259,67.362 143.296,53.21 129.075,44.759" fill="#1A1A1A"/>
    <path d="M94.445,63.853 C94.164,61.697 93.586,59.581 92.725,57.556 C90.795,53.792 89.217,49.885 88.008,45.877 C87.53,44.219 87.288,42.513 87.286,40.799 C87.286,37.65 87.286,37.498 88.396,38.513 C89.506,39.529 90.782,39.275 91.06,38.869 C91.126,38.057 91.126,37.243 91.06,36.431 C90.803,33.379 90.952,30.31 91.504,27.291 C91.504,27.037 91.948,27.291 92.669,28.306 C93.391,29.322 95.056,30.693 95.61,30.49 C96.165,30.287 95.943,29.779 95.999,28.509 C96.12,27.227 96.419,25.965 96.887,24.752 C98.118,22.363 98.816,19.773 98.94,17.134 C99.065,15.792 98.972,14.44 98.663,13.123 C98.663,12.259 98.33,11.497 98.33,11.497 C98.33,11.497 100.494,12.919 101.438,14.24 C103.498,17.425 104.447,21.11 104.157,24.802 C104.157,26.834 104.157,27.9 104.157,27.9 C105.213,27.524 106.161,26.934 106.932,26.173 C107.317,25.639 107.563,25.031 107.653,24.396 C107.653,23.736 108.042,23.228 108.153,23.228 C108.465,23.6 108.675,24.035 108.763,24.498 C109.321,27.438 109.321,30.444 108.763,33.384 C108.264,36.228 108.264,36.228 108.763,36.33 C109.263,36.431 110.983,34.908 111.538,33.588 C111.676,33.137 111.923,32.721 112.259,32.369 C112.592,32.369 112.759,33.994 112.592,36.228 C112.372,39.356 111.584,42.427 110.261,45.318 C109.706,46.74 108.874,49.127 108.486,50.396 C107.875,52.834 105.822,63.346 105.822,63.346 z" fill="#F60400"/>
    <path d="M80.072,128.854 C80.072,129.895 79.612,130.893 78.797,131.62 C77.982,132.346 76.881,132.741 75.743,132.713 C74.6,132.713 73.505,132.295 72.702,131.55 C71.899,130.806 71.455,129.798 71.47,128.752 C71.5,126.565 73.463,124.814 75.854,124.842 C76.997,124.855 78.087,125.287 78.879,126.041 C79.672,126.795 80.101,127.808 80.072,128.854" fill="#0D0CE3"/>
    <path d="M88.895,132.866 C88.895,135.053 86.957,136.827 84.567,136.827 C82.176,136.827 80.238,135.053 80.238,132.866 C80.238,130.678 82.176,128.905 84.567,128.905 C86.957,128.905 88.895,130.678 88.895,132.866" fill="#0D0CE3"/>
    <path d="M104.323,134.542 C104.323,136.729 102.385,138.503 99.995,138.503 C97.604,138.503 95.666,136.729 95.666,134.542 C95.666,132.354 97.604,130.581 99.995,130.581 C102.385,130.581 104.323,132.354 104.323,134.542" fill="#0D0CE3"/>
    <path d="M119.751,132.256 C119.68,133.294 119.16,134.263 118.306,134.949 C117.452,135.636 116.334,135.982 115.201,135.913 C113.558,135.956 112.031,135.145 111.257,133.818 C110.483,132.492 110.597,130.879 111.551,129.655 C112.504,128.43 114.133,127.805 115.756,128.041 C116.9,128.106 117.968,128.589 118.72,129.382 C119.471,130.175 119.843,131.21 119.751,132.256" fill="#0D0CE3"/>
    <path d="M128.686,128.854 C128.591,130.461 127.442,131.856 125.78,132.383 C124.117,132.909 122.272,132.463 121.111,131.253 C119.95,130.043 119.705,128.311 120.491,126.871 C121.276,125.43 122.936,124.568 124.69,124.69 C125.825,124.755 126.884,125.231 127.634,126.012 C128.383,126.794 128.762,127.816 128.686,128.854" fill="#0D0CE3"/>
    <path d="M109.207,80.104 C108.819,80.104 108.597,80.104 108.486,80.357 C108.443,80.507 108.443,80.665 108.486,80.814 C108.412,80.977 108.412,81.16 108.486,81.322 C108.56,81.485 108.819,81.322 109.207,81.627 L109.207,81.627 C109.964,81.693 110.726,81.693 111.482,81.627 C111.921,81.547 112.326,81.353 112.648,81.068 C112.921,80.761 113.146,80.419 113.314,80.053 C113.402,79.668 113.402,79.27 113.314,78.885 C113.315,78.242 113.184,77.604 112.925,77.006 C112.674,76.428 112.377,75.868 112.037,75.33 L112.037,75.33 C111.666,75.734 111.35,76.177 111.094,76.65 L111.982,78.326 C112.185,78.71 112.316,79.122 112.37,79.545 C112.42,79.624 112.42,79.72 112.37,79.799 L111.871,80.053 C111.522,80.11 111.165,80.11 110.816,80.053 L109.152,80.053 z M110.15,72.486 L110.927,73.045 L111.649,73.654 C112.058,73.331 112.413,72.954 112.703,72.537 C112.241,72.06 111.719,71.634 111.149,71.268 C110.79,71.655 110.456,72.062 110.15,72.486" fill="#000000"/>
    <path d="M100.772,80.104 C100.439,80.104 100.161,80.104 100.05,80.357 C99.939,80.611 100.05,80.662 100.05,80.814 C99.969,80.976 99.969,81.161 100.05,81.322 C100.131,81.484 100.383,81.322 100.772,81.627 L100.772,81.627 C101.287,81.694 101.81,81.694 102.326,81.627 L104.434,81.068 C105.153,81.318 105.897,81.506 106.654,81.627 C107.299,81.699 107.951,81.699 108.597,81.627 L108.985,81.627 L108.985,80.104 L108.541,80.104 C107.879,80.196 107.205,80.196 106.543,80.104 C106.825,79.716 107.031,79.286 107.154,78.834 C107.336,78.378 107.43,77.897 107.431,77.412 C107.437,76.822 107.264,76.242 106.932,75.736 C106.746,75.37 106.482,75.042 106.155,74.771 C105.969,74.577 105.713,74.451 105.433,74.416 C105.113,74.442 104.806,74.547 104.545,74.721 C104.155,74.946 103.8,75.219 103.491,75.533 C103.105,75.917 102.804,76.365 102.603,76.854 C102.53,77.325 102.53,77.804 102.603,78.275 C102.549,78.561 102.549,78.853 102.603,79.139 C102.659,79.466 102.791,79.777 102.991,80.053 L101.993,80.053 C101.643,80.102 101.287,80.102 100.938,80.053 z M104.934,79.443 C104.478,79.336 104.058,79.127 103.713,78.834 C103.444,78.579 103.253,78.264 103.158,77.92 C103.315,77.425 103.601,76.972 103.99,76.6 C104.343,76.225 104.84,75.989 105.378,75.939 C105.638,75.947 105.881,76.058 106.044,76.244 C106.273,76.48 106.477,76.735 106.654,77.006 C106.671,77.158 106.671,77.311 106.654,77.463 C106.681,77.665 106.681,77.87 106.654,78.072 C106.654,78.326 106.377,78.58 105.988,78.885 C105.592,79.154 105.138,79.344 104.656,79.443 M103.879,71.471 L104.656,72.029 L105.544,72.486 C105.968,72.177 106.326,71.798 106.599,71.369 C106.142,70.906 105.64,70.481 105.1,70.1 C104.719,70.483 104.366,70.89 104.046,71.318" fill="#000000"/>
    <path d="M89.894,80.104 C88.716,80.094 87.542,79.957 86.398,79.697 L86.398,79.697 Q87.286,80.561 88.23,81.221 L89.173,81.221 C89.065,81.452 88.972,81.69 88.895,81.932 C88.872,82.168 88.872,82.406 88.895,82.643 L88.895,82.643 L90.005,81.221 L91.448,81.221 C93.106,81.243 94.761,81.107 96.387,80.815 C97.756,81.08 99.151,81.216 100.55,81.221 L100.827,81.221 L100.827,79.697 L99.051,79.697 C99.232,79.425 99.381,79.135 99.495,78.834 C99.553,78.549 99.553,78.256 99.495,77.971 C99.486,77.206 99.147,76.476 98.552,75.939 C97.996,75.414 97.241,75.105 96.443,75.076 C96.038,75.023 95.627,75.023 95.222,75.076 C94.808,75.166 94.414,75.321 94.057,75.533 C93.587,75.805 93.141,76.111 92.725,76.447 L91.337,77.666 L91.337,77.666 C91.513,77.348 91.626,77.004 91.67,76.65 C91.733,76.212 91.733,75.768 91.67,75.33 C91.67,74.061 91.67,72.791 91.67,71.572 L92.503,70.963 C91.896,70.205 91.531,69.309 91.448,68.373 L91.448,68.373 C91.171,68.536 90.927,68.742 90.727,68.982 C90.563,69.191 90.467,69.437 90.449,69.693 L90.449,70.303 C90.477,70.488 90.477,70.676 90.449,70.861 C90.449,71.572 90.449,72.436 90.449,73.4 C90.449,74.365 90.449,75.33 90.449,76.244 L90.449,77.615 Q90.449,78.174 90.449,78.529 z M90.727,80.104 C91.559,79.271 92.468,78.506 93.446,77.818 C94.151,77.334 95.006,77.068 95.888,77.057 C96.561,77.041 97.215,77.259 97.719,77.666 C98.187,77.996 98.471,78.498 98.496,79.037 C97.91,79.582 97.112,79.892 96.276,79.9 C94.817,79.989 93.352,79.989 91.892,79.9 z" fill="#000000"/>
  </g>
</svg>
