<?xml version="1.0" encoding="UTF-8"?>
<!DOCTYPE svg PUBLIC "-//W3C//DTD SVG 1.1//EN" "http://www.w3.org/Graphics/SVG/1.1/DTD/svg11.dtd">
<svg version="1.1" xmlns="http://www.w3.org/2000/svg" xmlns:xlink="http://www.w3.org/1999/xlink" x="0" y="0" width="369" height="336" viewBox="0, 0, 369, 336">
  <g id="Layer_1">
    <path d="M0,212.559 L369,212.559 L369,131.271 L0,131.271 L0,212.559 z" fill="#E41E2B" id="path3054"/>
    <path d="M328.669,185.526 L316.403,185.526 L316.637,182.271 L318.158,182.271 C318.993,182.271 319.565,181.82 319.676,180.676 L321.397,161.597 L319.534,161.597 C312.671,161.597 312.671,168.428 312.671,168.428 L308.672,168.428 L309.815,158.43 L341.955,158.43 L340.893,168.428 L336.931,168.428 C337.239,164.652 335.45,161.634 330.646,161.634 L328.517,161.634 L326.721,180.753 C326.61,182.017 327.942,182.271 327.942,182.271 L329.085,182.271 L328.669,185.526 z M294.127,161.598 L294.387,158.431 L307.034,158.431 L306.767,161.598 L305.475,161.598 C305.475,161.598 304.103,161.598 303.947,163.125 L302.264,180.297 C302.264,180.297 301.936,182.272 303.917,182.272 L304.745,182.272 L304.518,185.527 L291.604,185.527 L291.841,182.272 L293.207,182.272 C293.207,182.272 294.877,182.167 295.029,180.568 L295.759,173.198 L281.249,173.198 L280.526,180.297 C280.526,180.297 280.174,182.272 282.118,182.272 L282.96,182.272 L282.737,185.527 L270.127,185.527 L270.391,182.272 L271.719,182.272 C271.719,182.272 273.129,182.167 273.278,180.677 L274.917,163.315 C274.917,163.315 274.88,161.598 273.511,161.598 L272.409,161.598 L272.672,158.431 L285.282,158.431 L285.012,161.598 L283.873,161.598 C283.873,161.598 282.395,161.598 282.196,163.125 L281.631,169.909 L296.026,169.909 L296.712,163.007 C296.712,163.007 296.523,161.598 295.144,161.598 L294.126,161.598 z M264.151,176.559 C264.151,176.559 262.477,183.076 255.121,182.774 C248.65,182.391 245.675,179.384 245.722,172.854 C245.76,165.301 250.104,160.718 256.608,160.952 C265.672,161.257 265.182,168.471 265.138,168.471 L268.951,168.471 L270.016,157.819 L266.361,157.819 L265.337,159.495 C265.337,159.495 261.148,157.25 255.854,157.131 C245.067,156.908 237.832,163.58 237.988,173.389 C238.062,182.466 245.371,186.669 253.143,186.703 C266.132,186.822 268.153,176.559 268.153,176.559 L264.151,176.559 z M203.328,185.526 L235.204,185.526 L236.276,175.145 L232.381,175.145 C231.661,180.869 228.618,182.271 224.156,182.271 L214.139,182.271 L215.052,173.197 L218.409,173.197 C221.451,173.197 222.215,175.483 222.07,177.204 L225.839,177.204 L226.901,165.912 L223.169,165.912 C222.675,168.808 221.837,169.912 218.443,169.912 L215.363,169.912 L216.154,161.515 L227.168,161.515 C233.152,161.515 232.956,167.626 232.956,167.626 L236.844,167.626 L237.875,158.43 L205.985,158.43 L205.765,161.488 L207.063,161.488 C208.436,161.488 208.351,163.314 208.351,163.314 L206.634,180.676 C206.441,182.393 204.997,182.271 204.997,182.271 L203.594,182.271 L203.328,185.526 z M180.083,161.56 L185.837,161.56 C188.927,161.56 192.774,162.475 192.582,165.798 C192.349,169.039 188.772,169.919 185.648,169.919 L179.292,169.919 L180.083,161.56 z M195.82,180.297 L195.82,177.432 C195.82,172.284 191.135,172.05 191.135,172.05 C191.135,172.05 199.739,171.369 200.012,164.578 C200.31,158.739 192.119,158.431 186.219,158.431 L170.181,158.431 L169.918,161.516 L171.098,161.516 C172.551,161.516 172.551,163.318 172.551,163.318 L170.797,180.677 C170.604,182.39 169.194,182.279 169.194,182.279 L167.859,182.279 L167.588,185.527 L180.58,185.527 L180.814,182.279 L179.208,182.279 C178.099,182.279 178.221,181.171 178.221,181.171 L178.948,173.198 L184.316,173.198 C186.747,173.198 188.772,173.74 188.772,177.517 L188.772,182.475 C188.772,184.724 191.551,186.401 193.802,186.401 C196.622,186.401 200.087,185.489 200.087,185.489 L200.357,182.241 C200.357,182.241 195.777,182.892 195.821,180.297 M134.263,185.526 L155.105,185.526 C155.105,185.526 166.339,185.526 166.691,177.78 C166.948,172.09 159.372,171.131 159.372,171.131 C159.372,171.131 166.37,170.64 166.691,164.428 C166.948,158.775 159.754,158.355 153.466,158.355 L136.863,158.355 L136.586,161.488 L138.083,161.488 C139.676,161.488 139.365,163.195 139.365,163.195 L137.553,180.571 C137.316,182.467 135.947,182.244 135.947,182.244 L134.5,182.244 L134.263,185.526 z M145.048,173.085 L153.844,173.085 C153.844,173.085 159.483,173.427 159.29,177.665 C159.067,182.129 152.543,182.244 152.543,182.244 L144.172,182.244 L145.048,173.085 z M146.228,161.515 L153.084,161.515 C155.555,161.515 159.527,161.979 159.179,166.023 C158.912,169.952 152.898,169.881 152.898,169.881 L145.389,169.881 L146.228,161.515 z M99.263,185.526 L131.143,185.526 L132.215,175.145 L128.33,175.145 C127.6,180.869 124.551,182.271 120.098,182.271 L110.078,182.271 L110.998,173.197 L114.348,173.197 C117.394,173.197 118.151,175.483 118.009,177.204 L121.779,177.204 L122.843,165.912 L119.115,165.912 C118.611,168.808 117.776,169.912 114.385,169.912 L111.305,169.912 L112.1,161.515 L123.11,161.515 C129.084,161.515 128.898,167.626 128.898,167.626 L132.783,167.626 L133.81,158.43 L101.931,158.43 L101.704,161.488 L102.999,161.488 C104.368,161.488 104.294,163.314 104.294,163.314 L102.576,180.676 C102.387,182.393 100.94,182.271 100.94,182.271 L99.53,182.271 L99.263,185.526 z M76.069,161.56 L82.428,161.56 C87.039,161.56 92.374,164.378 92.107,171.213 C91.765,179.644 85.207,182.272 80.183,182.272 L74.051,182.272 L76.069,161.56 z M63.794,185.527 L81.928,185.527 C89.588,185.527 99.074,182.583 99.419,171.024 C99.761,161.408 90.274,158.431 83.003,158.431 L66.393,158.431 L66.13,161.516 L67.536,161.516 C68.912,161.516 68.76,163.318 68.76,163.318 L67.002,180.677 C66.853,182.272 65.406,182.272 65.406,182.272 L64.064,182.272 L63.794,185.527 z M44.378,186.67 C54.435,186.822 64.182,180.868 64.226,170.639 C64.259,161.904 56.031,157.518 46.656,157.21 C37.021,156.905 27.278,162.7 27.048,173.508 C26.852,182.274 35.808,186.599 44.378,186.67 M56.369,171.75 C55.879,178.351 51.612,183.913 44.99,183.611 C38.276,183.273 34.513,179.496 34.696,173.423 C34.932,166.138 38.546,160.146 46.44,160.228 C53.516,160.343 56.981,164.001 56.369,171.75" fill="#FFFFFF" id="path3098"/>
  </g>
</svg>
