<?xml version="1.0" encoding="UTF-8"?>
<!DOCTYPE svg PUBLIC "-//W3C//DTD SVG 1.1//EN" "http://www.w3.org/Graphics/SVG/1.1/DTD/svg11.dtd">
<svg version="1.1" xmlns="http://www.w3.org/2000/svg" xmlns:xlink="http://www.w3.org/1999/xlink" x="0" y="0" width="80.181" height="80.674" viewBox="0, 0, 80.181, 80.674">
  <g id="Layer_1">
    <path d="M69.413,37.101 C69.625,37.314 69.913,37.434 70.213,37.433 C70.517,37.434 70.809,37.314 71.024,37.099 L79.666,28.458 C79.88,28.245 80.001,27.954 80,27.652 C80.001,27.35 79.88,27.059 79.666,26.846 C79.453,26.632 79.163,26.511 78.861,26.512 C78.558,26.511 78.268,26.631 78.055,26.846 L70.72,34.181 L70.22,34.681 L69.72,34.181 L66.706,31.167 C66.491,30.949 66.198,30.825 65.892,30.825 C65.587,30.824 65.295,30.946 65.081,31.164 C64.868,31.379 64.75,31.67 64.752,31.972 C64.754,32.273 64.876,32.561 65.091,32.772 z" fill="#2D2D2D" id="Path_149"/>
    <path d="M78.856,39.501 C78.551,39.501 78.257,39.617 78.035,39.827 L70.716,47.148 L70.216,47.648 L69.716,47.148 L66.702,44.134 C66.487,43.916 66.194,43.792 65.888,43.792 C65.583,43.791 65.291,43.913 65.077,44.131 C64.864,44.346 64.746,44.637 64.748,44.939 C64.75,45.24 64.872,45.528 65.087,45.739 L69.411,50.063 C69.622,50.277 69.911,50.396 70.211,50.395 C70.516,50.397 70.808,50.276 71.024,50.061 L79.666,41.42 C80.095,40.971 80.095,40.263 79.666,39.814 C79.445,39.612 79.156,39.5 78.856,39.501 z" fill="#2D2D2D" id="Path_150"/>
    <path d="M24.416,46.194 C24.342,46.608 24.233,47.016 24.09,47.412 C24.233,47.016 24.342,46.608 24.416,46.194 z" fill="#2D2D2D" id="Path_151"/>
    <path d="M12.196,44.939 C12.196,44.522 12.239,44.106 12.323,43.698 C12.239,44.106 12.196,44.522 12.196,44.939 z" fill="#2D2D2D" id="Path_152"/>
    <path d="M44.224,49.157 C43.867,49.979 43.9,50.917 44.313,51.712 C43.9,50.917 43.867,49.979 44.224,49.157 z" fill="#2D2D2D" id="Path_153"/>
    <path d="M42.362,56.059 C42.269,56.055 42.177,56.046 42.085,56.031 C42.175,56.046 42.267,56.055 42.358,56.059 z" fill="#2D2D2D" id="Path_154"/>
    <path d="M51.854,24.354 L33.488,24.354 C32.859,24.353 32.349,24.861 32.346,25.49 C32.346,26.118 32.854,26.628 33.482,26.63 L51.854,26.63 C53.012,26.635 53.949,27.572 53.954,28.73 L53.954,48.119 L46.892,48.119 C46.121,48.119 45.405,48.521 45.004,49.18 C44.605,49.853 44.581,50.684 44.939,51.38 C45.306,52.047 45.512,52.79 45.539,53.551 C45.545,54.399 45.213,55.213 44.617,55.816 C44.021,56.419 43.21,56.759 42.362,56.763 C40.605,56.762 39.18,55.342 39.174,53.585 L39.174,53.551 C39.201,52.785 39.404,52.035 39.767,51.359 C40.121,50.668 40.094,49.843 39.696,49.176 C39.296,48.52 38.584,48.118 37.816,48.116 L23.077,48.116 L23.419,47.167 C23.678,46.448 23.813,45.691 23.819,44.927 C23.808,41.919 21.368,39.485 18.36,39.482 C15.35,39.488 12.911,41.924 12.901,44.934 C12.912,45.695 13.05,46.449 13.311,47.164 L13.658,48.116 L7.558,48.116 C6.93,48.12 6.423,48.628 6.42,49.256 L6.42,67.621 C6.424,70.038 8.382,71.996 10.799,72 L51.851,72 C54.268,71.996 56.226,70.038 56.23,67.621 L56.23,28.728 C56.223,26.314 54.268,24.36 51.854,24.354 z M29.477,69.727 L10.798,69.727 C9.641,69.721 8.704,68.784 8.698,67.627 L8.698,50.397 L13.824,50.397 C15.044,50.395 16.033,49.409 16.038,48.189 C16.039,47.82 15.948,47.457 15.773,47.132 C15.407,46.465 15.204,45.721 15.18,44.96 C15.175,44.113 15.507,43.299 16.103,42.697 C16.699,42.096 17.51,41.755 18.357,41.752 C20.114,41.753 21.539,43.173 21.545,44.93 L21.545,44.962 C21.519,45.733 21.312,46.487 20.939,47.162 C20.382,48.249 20.807,49.581 21.89,50.145 C22.206,50.309 22.557,50.396 22.913,50.397 L30.188,50.397 L30.188,55.346 L29.238,55.003 C28.52,54.744 27.763,54.609 26.999,54.603 C23.987,54.609 21.548,57.051 21.546,60.063 C21.549,63.077 23.991,65.519 27.005,65.522 C27.766,65.511 28.52,65.372 29.235,65.111 L30.187,64.763 L30.187,69.727 z M53.953,51.107 L53.953,67.624 C53.948,68.782 53.011,69.719 51.853,69.724 L32.464,69.724 L32.464,64.607 C32.457,63.381 31.462,62.39 30.236,62.388 C29.876,62.389 29.522,62.476 29.203,62.642 C28.536,63.011 27.79,63.217 27.028,63.242 L27,63.242 C25.245,63.239 23.823,61.819 23.818,60.064 C23.814,59.22 24.148,58.409 24.746,57.812 C25.341,57.212 26.15,56.875 26.995,56.876 L27.029,56.876 C27.8,56.903 28.553,57.111 29.229,57.483 C29.541,57.645 29.888,57.729 30.24,57.728 C31.07,57.729 31.832,57.266 32.213,56.528 C32.378,56.212 32.464,55.861 32.465,55.505 L32.465,50.39 L37.644,50.39 L37.299,51.341 C37.038,52.058 36.903,52.814 36.899,53.577 C36.905,56.589 39.347,59.029 42.359,59.032 C45.373,59.029 47.815,56.587 47.818,53.573 C47.808,52.812 47.669,52.058 47.407,51.343 L47.059,50.39 L53.959,50.39 z" fill="#2D2D2D" id="Path_155"/>
    <path d="M20.814,45.183 C20.762,45.756 20.592,46.313 20.314,46.817 C20.592,46.313 20.762,45.756 20.814,45.183 z" fill="#2D2D2D" id="Path_156"/>
    <path d="M29.48,65.777 L29.48,65.777 z" fill="#2D2D2D" id="Path_157"/>
    <path d="M18.363,42.46 L18.363,42.46 C18.458,42.464 18.552,42.473 18.646,42.488 C18.552,42.473 18.458,42.464 18.363,42.46 z" fill="#2D2D2D" id="Path_158"/>
    <path d="M27.002,62.535 L27.002,62.535 C26.908,62.531 26.814,62.522 26.721,62.507 C26.814,62.522 26.908,62.531 27.002,62.535 z" fill="#2D2D2D" id="Path_159"/>
    <path d="M27.775,21.197 C27.754,13.486 21.509,7.241 13.798,7.22 C6.082,7.229 -0.17,13.481 -0.179,21.197 C-0.168,28.911 6.084,35.161 13.798,35.17 C21.512,35.161 27.764,28.911 27.775,21.197 z M1.666,21.197 C1.676,14.502 7.103,9.078 13.798,9.07 C20.495,9.078 25.922,14.505 25.93,21.202 C25.912,27.894 20.491,33.315 13.799,33.334 L13.799,33.334 C7.1,33.326 1.673,27.896 1.668,21.197 z" fill="#2D2D2D" id="Path_160"/>
    <path d="M28.313,18.962 C28.426,19.702 28.484,20.449 28.485,21.198 C28.484,20.449 28.426,19.702 28.313,18.962 z" fill="#2D2D2D" id="Path_161"/>
    <path d="M14.721,20.275 L14.721,13.748 L12.876,13.748 L12.876,22.12 L17.985,22.12 L17.985,20.275 L14.722,20.275 z" fill="#2D2D2D" id="Path_162"/>
    <path d="M69.962,54.336 L72.891,54.336 C75.974,54.336 78.474,56.836 78.474,59.919 L78.474,62.348 C78.474,65.431 75.974,67.931 72.891,67.931 L69.962,67.931 C66.879,67.931 64.379,65.431 64.379,62.348 L64.379,59.919 C64.379,56.836 66.879,54.336 69.962,54.336 z" fill="#E5B037" id="Rectangle_77"/>
  </g>
</svg>
