<?xml version="1.0" encoding="UTF-8"?>
<!DOCTYPE svg PUBLIC "-//W3C//DTD SVG 1.1//EN" "http://www.w3.org/Graphics/SVG/1.1/DTD/svg11.dtd">
<svg version="1.1" xmlns="http://www.w3.org/2000/svg" xmlns:xlink="http://www.w3.org/1999/xlink" x="0" y="0" width="200" height="150" viewBox="0, 0, 200, 150">
  <g id="layer1">
    <path d="M99.999,133.204 C95.502,133.204 93.191,130.271 93.191,130.271 C89.495,130.11 60.611,130.191 60.611,130.191 L57.799,106.455 C57.799,106.455 40.009,93.915 38.562,92.469 C30.023,53.729 60.889,16.796 100,16.796 C139.111,16.796 169.977,53.729 161.438,92.469 C159.991,93.915 142.201,106.455 142.201,106.455 L139.389,130.191 C139.389,130.191 110.505,130.11 106.809,130.271 C106.809,130.271 104.498,133.204 99.999,133.204 z" fill="#ED1C24" id="Red_part"/>
    <path d="M100.041,97.106 L97.311,28.59 C94.02,27.918 85.624,28.725 81.123,32.083 L94.222,97.374 C94.222,97.374 76.354,34.77 76.354,34.77 C72.07,34.718 63.427,41.96 62.785,44.107 L88.848,99.658 C88.848,99.658 59.561,48.876 59.561,48.876 C56.672,49.951 50.358,61.572 51.366,62.922 C51.366,62.922 84.011,102.883 84.011,102.883 L50.425,68.759 C50.425,68.759 46.059,75.409 48.906,86.673 L67.877,100.373 L70.252,119.09 L93.512,119.09 C93.512,119.09 97.317,122.697 100.017,122.697 C102.717,122.697 106.522,119.09 106.522,119.09 L129.781,119.09 L132.156,100.373 L151.127,86.673 C153.975,75.409 149.608,68.759 149.608,68.759 L116.022,102.883 C116.022,102.883 148.668,62.922 148.668,62.922 C149.676,61.572 143.361,49.951 140.473,48.876 C140.473,48.876 111.186,99.658 111.186,99.658 L137.249,44.107 C136.607,41.96 127.963,34.718 123.68,34.77 C123.68,34.77 105.812,97.374 105.812,97.374 L118.911,32.083 C114.41,28.725 106.014,27.918 102.722,28.59 L100.041,97.106 z" fill="#FFD500" id="Yellow_part"/>
  </g>
</svg>
