<svg id="Layer_1" data-name="Layer 1" xmlns="http://www.w3.org/2000/svg" width="148" height="53.54" viewBox="0 0 148 53.54">
  <defs>
    <style>
      .cls-1 {
        fill: #009cd7;
      }

      .cls-2 {
        fill: #005dac;
      }

      .cls-3 {
        fill: #143980;
      }

      .cls-4 {
        fill: #0c4697;
      }

      .cls-5 {
        fill: #35c6f4;
      }

      .cls-6 {
        fill: #00aeef;
      }
    </style>
  </defs>
  <title>taqnya-event</title>
  <g>
    <rect class="cls-1" x="45.85" y="15.78" width="6.48" height="6.48" rx="3.24"/>
    <rect class="cls-2" x="38.21" y="15.78" width="6.48" height="6.48" rx="3.24"/>
    <rect class="cls-3" x="30.56" y="15.78" width="6.48" height="6.48" rx="3.24"/>
    <rect class="cls-3" x="7.64" y="7.89" width="6.48" height="6.48" rx="3.24"/>
    <rect class="cls-1" x="22.92" y="39.35" width="6.48" height="6.48" rx="3.24"/>
    <rect class="cls-4" x="22.92" y="23.49" width="6.48" height="6.48" rx="3.24"/>
    <rect class="cls-5" x="15.28" y="47.06" width="6.48" height="6.48" rx="3.24"/>
    <rect class="cls-5" x="15.28" y="39.35" width="6.48" height="6.48" rx="3.24"/>
    <rect class="cls-2" x="15.28" y="23.49" width="6.48" height="6.48" rx="3.24"/>
    <rect class="cls-2" x="22.92" y="31.65" width="6.48" height="6.48" rx="3.24"/>
    <rect class="cls-1" x="15.28" y="31.65" width="6.48" height="6.48" rx="3.24"/>
    <rect class="cls-3" width="6.48" height="6.48" rx="3.24"/>
    <rect class="cls-2" x="15.28" y="7.89" width="6.48" height="6.48" rx="3.24"/>
    <rect class="cls-3" x="7.64" width="6.48" height="6.48" rx="3.24"/>
    <rect class="cls-2" x="15.28" width="6.48" height="6.48" rx="3.24"/>
    <rect class="cls-1" x="22.92" y="7.89" width="6.48" height="6.48" rx="3.24"/>
    <rect class="cls-1" x="22.92" width="6.48" height="6.48" rx="3.24"/>
    <rect class="cls-6" x="30.56" y="7.89" width="6.48" height="6.48" rx="3.24"/>
    <rect class="cls-6" x="30.56" width="6.48" height="6.48" rx="3.24"/>
    <rect class="cls-3" x="22.92" y="15.78" width="6.48" height="6.48" rx="3.24"/>
    <rect class="cls-6" x="38.21" y="7.89" width="6.48" height="6.48" rx="3.24"/>
    <rect class="cls-3" x="15.28" y="15.78" width="6.48" height="6.48" rx="3.24"/>
    <g>
      <path class="cls-3" d="M51.48,49.65H45.25V47.72H60.46v1.93h-6.2V66.09H51.48Z" transform="translate(-1 -15.8)"/>
      <path class="cls-3" d="M67.45,47.72h3.17l7.14,18.37H74.9l-2.1-5.57H64.93l-2.06,5.57H60.15Zm4.67,10.9L69,50.33h-.26l-3.11,8.29Z" transform="translate(-1 -15.8)"/>
      <path class="cls-3" d="M79,61.11V52.7q0-5.27,7.73-5.26t7.76,5.24v7.58A5,5,0,0,1,92,64.54l9.1-1.3v2.85H86.75Q79,66.09,79,61.11Zm12.86,0V52.62q0-3.4-5.1-3.4a12.3,12.3,0,0,0-2,.13,5.53,5.53,0,0,0-1.56.47,2.82,2.82,0,0,0-1.61,2.8v8.46c0,2.12,1.71,3.17,5.15,3.17S91.88,63.2,91.88,61.08Z" transform="translate(-1 -15.8)"/>
      <path class="cls-3" d="M98.73,47.72H102L112,62.9V47.72h2.41V66.09h-3.31l-10-15.42V62.14l-2.4.41Z" transform="translate(-1 -15.8)"/>
      <path class="cls-3" d="M123.49,58.68l-6.65-11H120l4.9,8.64,4.9-8.64h3.14l-6.68,10.87v7.5h-2.75Z" transform="translate(-1 -15.8)"/>
      <path class="cls-3" d="M138.7,47.72h3.17L149,66.09h-2.86l-2.09-5.57h-7.87l-2.07,5.57h-2.72Zm4.67,10.9-3.12-8.29H140l-3.12,8.29Z" transform="translate(-1 -15.8)"/>
    </g>
  </g>
</svg>
