<svg xmlns="http://www.w3.org/2000/svg" width="143.6" height="52" viewBox="0 0 143.6 52">
  <defs>
    <style>
      .cls-1 {
        isolation: isolate;
      }

      .cls-2 {
        fill: #231f20;
      }

      .cls-3 {
        fill: #eb008b;
      }

      .cls-3, .cls-4, .cls-5, .cls-6, .cls-7, .cls-8 {
        mix-blend-mode: multiply;
      }

      .cls-4 {
        fill: #25a9e0;
      }

      .cls-5 {
        fill: #f6921e;
      }

      .cls-6 {
        fill: #2e3191;
      }

      .cls-7 {
        fill: #00a69c;
      }

      .cls-8 {
        fill: #faaf40;
      }
    </style>
  </defs>
  <title>tifa-event-5</title>
  <g class="cls-1">
    <g id="Layer_1" data-name="Layer 1">
      <g>
        <g>
          <path class="cls-2" d="M100.36,66.36a3.3,3.3,0,0,1-.55-2.1A3.69,3.69,0,0,1,100.4,62a2.15,2.15,0,0,1,1.81-.75c1.51,0,2.26.86,2.26,2.58l-.06.75h-3.55a2.47,2.47,0,0,0,.16.93.85.85,0,0,0,.46.47,2.26,2.26,0,0,0,.92.15l.77,0,.78,0,.31,0,0,.8a12.67,12.67,0,0,1-2.1.22A2.23,2.23,0,0,1,100.36,66.36Zm3.08-2.62a2.17,2.17,0,0,0-.29-1.28,1.09,1.09,0,0,0-.94-.38,1.28,1.28,0,0,0-1,.4,2.07,2.07,0,0,0-.33,1.26Z" transform="translate(-2.4 -17.32)"/>
          <path class="cls-2" d="M115,64.12l-1.67-2.78h1.11l1.22,2,1.22-2H118l-1.71,2.74L118,66.9H116.9l-1.21-2-1.22,2h-1.11Z" transform="translate(-2.4 -17.32)"/>
          <path class="cls-2" d="M127.24,61.34h1v.37a3.63,3.63,0,0,1,.81-.38,2.56,2.56,0,0,1,.79-.11,1.73,1.73,0,0,1,1.53.69,3.87,3.87,0,0,1,.49,2.2,4.86,4.86,0,0,1-.25,1.69,1.65,1.65,0,0,1-.78.93,3,3,0,0,1-1.44.29,7.25,7.25,0,0,1-1.14-.11v2.41h-1Zm3.25,4.31a2.7,2.7,0,0,0,.33-1.52,2.89,2.89,0,0,0-.29-1.51,1,1,0,0,0-.9-.47,2.61,2.61,0,0,0-.6.08,3.14,3.14,0,0,0-.57.2l-.19.1V66a10.14,10.14,0,0,0,1.09.11A1.26,1.26,0,0,0,130.49,65.65Z" transform="translate(-2.4 -17.32)"/>
          <path class="cls-2" d="M141.7,66.33a4.52,4.52,0,0,1,0-4.41,2.82,2.82,0,0,1,3.72,0,3.52,3.52,0,0,1,.57,2.22,3.43,3.43,0,0,1-.57,2.18,2.25,2.25,0,0,1-1.86.7A2.28,2.28,0,0,1,141.7,66.33Zm2.69-.4a1,1,0,0,0,.42-.61,4.49,4.49,0,0,0,.12-1.18,4.35,4.35,0,0,0-.13-1.22,1,1,0,0,0-.42-.62,1.57,1.57,0,0,0-.81-.18,1.62,1.62,0,0,0-.83.18,1,1,0,0,0-.43.62,4.89,4.89,0,0,0-.12,1.22,4.46,4.46,0,0,0,.12,1.17,1,1,0,0,0,.42.62,1.54,1.54,0,0,0,.84.19A1.46,1.46,0,0,0,144.39,65.93Z" transform="translate(-2.4 -17.32)"/>
        </g>
        <g>
          <rect class="cls-3" width="38.17" height="9.62"/>
          <rect class="cls-4" x="13.81" width="9.62" height="23.84"/>
          <polygon class="cls-5" points="26.79 38.98 17.18 38.98 17.25 16.34 26.87 16.34 26.79 38.98"/>
          <rect class="cls-3" x="70.17" width="28.15" height="9.62"/>
          <rect class="cls-6" x="69.35" y="15.76" width="22.56" height="8.36"/>
          <rect class="cls-6" x="48.28" y="0.11" width="9.62" height="22.98"/>
          <polygon class="cls-7" points="53.02 38.98 43.4 38.98 43.47 16.34 53.09 16.34 53.02 38.98"/>
          <polygon class="cls-8" points="80.97 38.98 71.26 38.98 71.33 0 81.04 0 80.97 38.98"/>
          <polygon class="cls-7" points="106.56 39.05 124.2 0.57 113.7 0.57 96.06 39.05 106.56 39.05"/>
          <polygon class="cls-3" points="141.81 39.04 131.32 39.04 126.55 28.63 122.94 20.77 119.05 12.27 113.79 0.82 113.68 0.57 124.18 0.57 124.31 0.82 133.44 20.77 137.04 28.63 141.81 39.04"/>
          <polygon class="cls-4" points="137.02 28.64 114.33 28.64 117.77 20.78 133.42 20.78 137.02 28.64"/>
        </g>
      </g>
    </g>
  </g>
</svg>
