<?xml version="1.0" encoding="UTF-8"?>
<!DOCTYPE svg PUBLIC "-//W3C//DTD SVG 1.1//EN" "http://www.w3.org/Graphics/SVG/1.1/DTD/svg11.dtd">
<svg version="1.1" xmlns="http://www.w3.org/2000/svg" xmlns:xlink="http://www.w3.org/1999/xlink" x="0" y="0" width="80" height="84" viewBox="0, 0, 80, 84">
  <g id="Layer_1">
    <path d="M42.258,10.225 L42.258,10.225 C42.833,9.816 42.967,9.019 42.558,8.444 C42.149,7.869 41.352,7.735 40.777,8.144 L40.777,8.144 L17.46,24.726 L17.46,24.726 C16.904,25.142 16.782,25.924 17.183,26.49 C17.585,27.055 18.365,27.197 18.94,26.809 L42.258,10.227 z M45.326,14.538 C45.882,14.123 46.004,13.34 45.602,12.774 C45.201,12.209 44.421,12.067 43.846,12.455 L43.846,12.455 L26.582,24.736 L26.582,24.736 C26.029,25.153 25.909,25.933 26.31,26.497 C26.711,27.061 27.488,27.203 28.063,26.818 L28.063,26.818 z M48.395,18.853 L48.395,18.853 C48.97,18.444 49.106,17.647 48.697,17.071 C48.288,16.496 47.49,16.36 46.915,16.769 L46.915,16.769 L35.705,24.741 C35.139,25.153 35.01,25.944 35.416,26.515 C35.822,27.085 36.611,27.223 37.186,26.824 L37.186,26.824 z" fill="#FFFFFF" id="Path_83"/>
    <path d="M53.502,0.645 C53.093,0.07 52.295,-0.065 51.719,0.345 C51.144,0.754 51.01,1.552 51.419,2.127 L51.419,2.127 L53.755,5.41 L52.727,6.142 L52.727,6.142 C52.174,6.559 52.054,7.339 52.455,7.903 C52.856,8.467 53.633,8.609 54.208,8.224 L54.208,8.224 L55.235,7.495 L55.853,8.363 L55.862,8.37 L55.862,8.37 C58.071,11.499 57.344,15.823 54.234,18.058 L44.851,24.726 L44.851,24.726 C44.291,25.141 44.166,25.928 44.57,26.496 C44.975,27.064 45.76,27.203 46.335,26.809 L46.335,26.809 L55.688,20.16 C59.971,17.113 60.98,11.175 57.944,6.884 L53.504,0.641 z" fill="#FFFFFF" id="Path_84"/>
    <path d="M43.124,41.264 C43.124,38.686 43.424,36.952 44.216,35.812 C45.703,33.632 48.328,33.285 50.163,33.285 C51.391,33.272 52.613,33.456 53.783,33.829 C54.459,34.036 54.921,34.659 54.923,35.366 C54.969,36.212 54.329,36.94 53.484,37.001 C53.084,37.001 51.503,36.753 51.155,36.753 C47.784,36.753 47.44,38.637 47.44,41.66 L47.44,43.693 L50.112,43.693 C51.152,43.693 52.739,43.693 52.739,45.23 C52.739,46.865 51.053,46.865 50.112,46.865 L47.438,46.865 L47.438,66.441 C47.438,67.88 47.386,68.821 46.789,69.367 C46.373,69.756 45.824,69.968 45.255,69.96 C44.685,69.966 44.134,69.754 43.716,69.367 C43.123,68.767 43.123,67.879 43.123,66.441 L43.123,46.864 L40.794,46.864 C40.3,46.864 38.416,46.864 38.416,45.229 C38.416,43.692 40.3,43.692 40.894,43.692 L43.123,43.692 L43.123,41.264 z M60.082,38.835 C58.757,38.847 57.674,37.783 57.661,36.458 C57.648,35.134 58.711,34.05 60.035,34.035 C61.36,34.021 62.445,35.083 62.461,36.407 C62.472,37.046 62.226,37.663 61.779,38.119 C61.332,38.576 60.721,38.834 60.082,38.837 z M62.264,66.441 C62.338,67.158 62.27,67.883 62.064,68.573 C61.777,69.419 60.974,69.981 60.081,69.96 C57.95,69.96 57.899,67.978 57.899,66.44 L57.899,46.617 C57.899,45.079 57.95,44.336 58.499,43.742 C58.933,43.313 59.525,43.08 60.135,43.098 C60.896,42.996 61.637,43.395 61.97,44.087 C62.234,44.903 62.336,45.763 62.27,46.618 L62.27,66.441 z M30.605,43.696 L30.592,43.708 C30.064,44.282 30.039,45.008 30.039,46.143 L30.039,61.574 C30.049,63.964 28.12,65.91 25.73,65.921 C23.34,65.931 21.394,64.002 21.384,61.612 L21.384,46.144 C21.442,45.433 21.349,44.717 21.111,44.044 C20.791,43.395 20.1,43.015 19.381,43.092 C18.816,43.079 18.27,43.295 17.867,43.692 L17.854,43.704 C17.362,44.414 17.165,45.287 17.303,46.139 L17.303,61.673 C17.347,66.281 21.092,69.995 25.701,70 C30.309,70.005 34.062,66.301 34.118,61.693 L34.118,46.14 C34.176,45.429 34.084,44.713 33.847,44.04 C33.526,43.391 32.835,43.011 32.115,43.088 C31.55,43.078 31.004,43.298 30.605,43.698 z M17.299,74.891 L20.289,74.891 L22.147,81.291 L23.993,74.891 L27.045,74.891 L27.045,83.751 L25.285,83.751 L25.285,76.264 L22.972,83.758 L21.312,83.758 L18.999,76.264 L18.999,83.758 L17.299,83.758 z M30.999,83.891 C29.19,83.891 28.119,82.734 28.119,80.728 C28.119,78.612 29.219,77.428 31.084,77.428 C32.832,77.428 33.841,78.573 33.841,80.64 C33.841,80.775 33.841,80.911 33.829,81.046 L29.842,81.046 C29.854,82.154 30.236,82.696 30.986,82.696 C31.52,82.741 31.994,82.355 32.057,81.822 L33.645,81.822 C33.545,83.114 32.575,83.889 30.999,83.889 z M32.008,79.904 C31.996,79.018 31.651,78.562 30.962,78.562 C30.362,78.562 29.941,79.042 29.892,79.904 z M34.851,78.759 C34.851,78.377 34.839,77.984 34.802,77.577 L36.502,77.577 L36.551,78.5 C36.954,77.789 37.729,77.372 38.545,77.429 C39.373,77.36 40.144,77.855 40.427,78.635 C40.769,77.839 41.583,77.353 42.446,77.429 C43.823,77.429 44.464,78.204 44.464,79.78 L44.464,83.755 L42.679,83.755 L42.679,80.026 C42.679,79.152 42.42,78.734 41.67,78.734 C41.351,78.723 41.043,78.851 40.825,79.085 C40.608,79.319 40.503,79.636 40.538,79.953 L40.538,83.753 L38.754,83.753 L38.754,80.024 C38.754,79.15 38.495,78.732 37.754,78.732 C37.437,78.725 37.132,78.854 36.917,79.088 C36.703,79.321 36.6,79.636 36.634,79.951 L36.634,83.751 L34.85,83.751 L34.85,78.751 z M45.751,82.734 L45.751,74.895 L47.536,74.895 L47.536,78.427 C47.939,77.797 48.647,77.431 49.394,77.467 C50.859,77.467 51.894,78.673 51.894,80.667 C51.894,82.661 50.824,83.879 49.371,83.879 C48.616,83.896 47.909,83.512 47.512,82.87 L47.45,83.756 L45.689,83.756 C45.731,83.417 45.752,83.076 45.752,82.734 z M48.815,82.685 C49.59,82.685 50.07,81.985 50.07,80.679 C50.07,79.373 49.591,78.661 48.815,78.661 C48.039,78.661 47.499,79.4 47.499,80.679 C47.499,81.958 48.038,82.683 48.812,82.683 z M55.509,83.891 C53.7,83.891 52.63,82.734 52.63,80.728 C52.63,78.612 53.725,77.428 55.596,77.428 C57.343,77.428 58.351,78.573 58.351,80.64 C58.351,80.775 58.351,80.911 58.339,81.046 L54.352,81.046 C54.364,82.154 54.746,82.696 55.496,82.696 C56.03,82.741 56.504,82.355 56.567,81.822 L58.155,81.822 C58.055,83.114 57.083,83.889 55.509,83.889 z M56.518,79.904 C56.505,79.018 56.161,78.562 55.472,78.562 C54.872,78.562 54.45,79.042 54.402,79.904 z M59.336,79.498 Q59.336,78.445 59.262,77.578 L60.912,77.578 L60.973,78.686 C61.327,77.9 62.147,77.433 63.004,77.529 L63.053,77.529 L63.053,79.153 C62.918,79.141 62.783,79.128 62.659,79.128 C61.711,79.128 61.159,79.621 61.159,80.421 L61.159,83.756 L59.337,83.756 z" fill="#FFFFFF" id="Path_85"/>
    <path d="M17.299,74.893 L20.289,74.893 L22.147,81.293 L23.993,74.893 L27.045,74.893 L27.045,83.754 L25.285,83.754 L25.285,76.259 L22.972,83.754 L21.312,83.754 L18.999,76.259 L18.999,83.754 L17.299,83.754 z M30.999,83.893 C29.19,83.893 28.119,82.737 28.119,80.73 C28.119,78.614 29.219,77.43 31.084,77.43 C32.832,77.43 33.841,78.576 33.841,80.642 C33.841,80.777 33.841,80.913 33.829,81.048 L29.842,81.048 C29.854,82.155 30.236,82.697 30.986,82.697 C31.52,82.742 31.994,82.356 32.057,81.823 L33.645,81.823 C33.545,83.115 32.575,83.89 30.999,83.89 z M32.008,79.906 C31.996,79.02 31.651,78.564 30.962,78.564 C30.362,78.564 29.941,79.044 29.892,79.906 z M34.851,78.761 C34.851,78.379 34.839,77.986 34.802,77.58 L36.502,77.58 L36.551,78.503 C36.954,77.792 37.729,77.375 38.545,77.432 C39.373,77.363 40.144,77.858 40.427,78.638 C40.769,77.842 41.583,77.356 42.446,77.432 C43.823,77.432 44.464,78.207 44.464,79.783 L44.464,83.758 L42.679,83.758 L42.679,80.029 C42.679,79.155 42.42,78.737 41.67,78.737 C41.351,78.726 41.043,78.854 40.825,79.088 C40.608,79.322 40.503,79.639 40.538,79.956 L40.538,83.756 L38.754,83.756 L38.754,80.027 C38.754,79.153 38.495,78.735 37.754,78.735 C37.436,78.725 37.13,78.854 36.915,79.088 C36.7,79.322 36.597,79.638 36.634,79.954 L36.634,83.754 L34.85,83.754 L34.85,78.754 z M45.751,82.736 L45.751,74.897 L47.536,74.897 L47.536,78.429 C47.939,77.799 48.647,77.433 49.394,77.469 C50.859,77.469 51.894,78.675 51.894,80.669 C51.894,82.663 50.824,83.881 49.371,83.881 C48.616,83.898 47.909,83.514 47.512,82.872 L47.45,83.758 L45.689,83.758 C45.731,83.419 45.752,83.078 45.752,82.736 z M48.815,82.687 C49.59,82.687 50.07,81.987 50.07,80.681 C50.07,79.375 49.591,78.662 48.815,78.662 C48.039,78.662 47.499,79.401 47.499,80.681 C47.499,81.961 48.038,82.683 48.812,82.683 z M55.509,83.893 C53.7,83.893 52.63,82.737 52.63,80.73 C52.63,78.614 53.725,77.43 55.596,77.43 C57.343,77.43 58.351,78.576 58.351,80.642 C58.351,80.777 58.351,80.913 58.339,81.048 L54.352,81.048 C54.364,82.155 54.746,82.697 55.496,82.697 C56.03,82.742 56.504,82.356 56.567,81.823 L58.155,81.823 C58.055,83.115 57.083,83.89 55.509,83.89 z M56.518,79.906 C56.505,79.02 56.161,78.564 55.472,78.564 C54.872,78.564 54.45,79.044 54.402,79.906 z M59.336,79.5 Q59.336,78.446 59.262,77.58 L60.912,77.58 L60.973,78.687 C61.327,77.901 62.147,77.434 63.004,77.53 L63.053,77.53 L63.053,79.154 C62.918,79.142 62.783,79.129 62.659,79.129 C61.711,79.129 61.159,79.622 61.159,80.421 L61.159,83.756 L59.337,83.756 z" fill="#FFFFFF" id="Path_86"/>
  </g>
</svg>
