<?xml version="1.0" encoding="utf-8"?>
<!-- Generator: Adobe Illustrator 23.0.6, SVG Export Plug-In . SVG Version: 6.00 Build 0)  -->
<svg version="1.1" baseProfile="basic" id="object" xmlns="http://www.w3.org/2000/svg" xmlns:xlink="http://www.w3.org/1999/xlink"
	 x="0px" y="0px" viewBox="0 0 1170.69 923.63" xml:space="preserve">
<style type="text/css">
	.st0{clip-path:url(#SVGID_2_);}
	.st1{opacity:0.5;fill:url(#SVGID_3_);}
	.st2{fill:#D3AE11;}
	.st3{fill:none;}
	.st4{fill:#41AB8A;}
	.st5{opacity:0.3;fill:url(#SVGID_4_);}
	.st6{fill:#353638;}
	.st7{fill:#B4B4B5;}
	.st8{opacity:0.3;fill:url(#SVGID_5_);}
	.st9{fill:#EDD600;}
	.st10{fill:#22445D;}
	.st11{fill:#162E41;}
	.st12{fill:url(#SVGID_6_);}
	.st13{fill:url(#SVGID_7_);}
	.st14{fill:url(#SVGID_8_);}
	.st15{fill:url(#SVGID_9_);}
	.st16{fill:url(#SVGID_10_);}
	.st17{fill:url(#SVGID_11_);}
	.st18{fill:url(#SVGID_12_);}
	.st19{fill:#24394A;}
	.st20{fill:#0D2333;}
	.st21{fill:#FFFFFF;}
	.st22{opacity:0.5;fill:url(#SVGID_13_);}
	.st23{fill:#E7E7E9;}
	.st24{opacity:0.5;fill:url(#SVGID_14_);}
	.st25{display:none;}
	.st26{display:inline;}
</style>
<g>
	<defs>
		<rect id="SVGID_1_" x="0" y="483.65" width="574.28" height="516.98"/>
	</defs>
	<clipPath id="SVGID_2_">
		<use xlink:href="#SVGID_1_"  style="overflow:visible;"/>
	</clipPath>
	<g class="st0">
		<g>
			<linearGradient id="SVGID_3_" gradientUnits="userSpaceOnUse" x1="97.0125" y1="854.9868" x2="216.7479" y2="940.7864">
				<stop  offset="0.3731" style="stop-color:#0D2333"/>
				<stop  offset="0.3979" style="stop-color:#394B58"/>
				<stop  offset="0.4254" style="stop-color:#62707B"/>
				<stop  offset="0.4563" style="stop-color:#88939B"/>
				<stop  offset="0.49" style="stop-color:#A8B0B6"/>
				<stop  offset="0.5272" style="stop-color:#C4C9CD"/>
				<stop  offset="0.5692" style="stop-color:#DADDDF"/>
				<stop  offset="0.6182" style="stop-color:#EBECEE"/>
				<stop  offset="0.6789" style="stop-color:#F6F7F8"/>
				<stop  offset="0.7639" style="stop-color:#FDFDFD"/>
				<stop  offset="1" style="stop-color:#FFFFFF"/>
			</linearGradient>
			<polygon class="st1" points="230.91,926.11 220.29,912.4 173.11,851.51 115.31,926.11 			"/>
			<polygon class="st2" points="398.4,867.32 307.31,867.32 307.3,867.32 352.85,926.11 352.86,926.11 398.41,867.32 			"/>
			<polygon class="st3" points="-0.33,776.88 -115.94,776.88 -115.95,776.89 -115.95,776.89 -115.94,776.88 -0.33,776.88 
				-0.33,776.89 57.48,851.49 57.48,851.49 -0.33,776.89 			"/>
			<polygon class="st3" points="-58.14,702.27 -58.14,702.27 -115.95,627.67 -115.94,627.66 -0.33,627.66 -0.33,627.67 
				-0.32,627.66 115.29,627.66 115.3,627.67 115.29,627.66 -0.32,627.66 -0.33,627.67 -0.33,627.66 -115.94,627.66 -115.95,627.67 
							"/>
			<polygon class="st3" points="-58.14,851.49 -115.95,776.89 -115.95,776.89 			"/>
			<polygon class="st3" points="247.07,905.27 288.73,851.5 288.72,851.49 288.73,851.5 			"/>
			<polygon class="st3" points="173.09,1000.71 173.1,1000.71 173.08,1000.71 			"/>
			<polygon class="st3" points="230.91,926.1 220.29,912.39 230.91,926.1 			"/>
			<polygon class="st2" points="57.49,851.5 115.29,926.1 115.3,926.1 173.11,851.5 173.11,851.5 173.11,851.5 173.1,851.49 
				57.49,851.49 			"/>
			<polygon class="st2" points="173.1,1000.7 173.1,1000.71 173.12,1000.71 288.71,1000.71 230.91,926.12 230.9,926.11 			"/>
			<polygon class="st4" points="-58.13,702.27 -58.14,702.28 -0.33,776.88 -0.32,776.88 57.49,702.28 57.48,702.27 57.48,702.27 
				-58.13,702.27 			"/>
			
				<linearGradient id="SVGID_4_" gradientUnits="userSpaceOnUse" x1="197.7969" y1="2420.4148" x2="264.0067" y2="2486.6248" gradientTransform="matrix(1 0 0 -1 0 3462.6309)">
				<stop  offset="0" style="stop-color:#FFFFFF"/>
				<stop  offset="1" style="stop-color:#1C1C1B"/>
			</linearGradient>
			<polygon class="st5" points="173.11,1000.71 173.1,1000.71 173.1,1000.71 173.09,1000.71 230.89,1075.31 230.91,1075.31 
				288.71,1000.71 288.71,1000.71 173.12,1000.71 			"/>
			<polygon class="st2" points="115.29,776.88 57.49,702.28 -0.32,776.88 			"/>
			<polygon class="st6" points="-0.33,776.89 57.48,851.49 57.49,851.49 115.3,776.89 115.29,776.88 -0.32,776.88 			"/>
			<polygon class="st7" points="57.49,553.06 -0.32,627.66 115.29,627.66 			"/>
			<linearGradient id="SVGID_5_" gradientUnits="userSpaceOnUse" x1="-33.4304" y1="528.3539" x2="32.7796" y2="594.5639">
				<stop  offset="0" style="stop-color:#FFFFFF"/>
				<stop  offset="0.2638" style="stop-color:#FDFDFD"/>
				<stop  offset="0.4057" style="stop-color:#F5F5F5"/>
				<stop  offset="0.5186" style="stop-color:#E7E7E7"/>
				<stop  offset="0.6162" style="stop-color:#D4D4D4"/>
				<stop  offset="0.7041" style="stop-color:#BBBBBB"/>
				<stop  offset="0.7848" style="stop-color:#9C9C9C"/>
				<stop  offset="0.8601" style="stop-color:#787877"/>
				<stop  offset="0.9301" style="stop-color:#4E4E4D"/>
				<stop  offset="0.9954" style="stop-color:#20201F"/>
				<stop  offset="1" style="stop-color:#1C1C1B"/>
			</linearGradient>
			<polygon class="st8" points="-0.33,627.66 -0.32,627.66 57.49,553.06 57.48,553.06 -58.13,553.06 -58.14,553.06 			"/>
			<polygon class="st6" points="-0.33,478.45 -58.13,553.06 57.48,553.06 			"/>
			<polygon class="st9" points="57.48,851.49 -58.13,851.49 -58.13,851.49 -58.14,851.5 -58.14,851.5 -58.14,851.5 -0.33,926.1 
				-0.32,926.1 57.49,851.5 57.48,851.49 			"/>
			<polygon class="st7" points="-0.33,776.88 -115.94,776.88 -115.95,776.89 -58.14,851.49 -58.13,851.49 -58.13,851.49 
				57.48,851.49 -0.33,776.89 			"/>
			<polygon class="st10" points="-0.33,776.88 -58.14,702.28 -115.94,776.88 			"/>
			<polygon class="st11" points="-115.94,926.1 -0.33,926.1 -58.14,851.5 			"/>
			
				<linearGradient id="SVGID_6_" gradientUnits="userSpaceOnUse" x1="-91.2418" y1="2495.0232" x2="-25.0316" y2="2561.2336" gradientTransform="matrix(1 0 0 -1 0 3462.6309)">
				<stop  offset="0" style="stop-color:#0D2333"/>
				<stop  offset="0.1413" style="stop-color:#0D2333"/>
				<stop  offset="1" style="stop-color:#0D2333"/>
			</linearGradient>
			<polygon class="st12" points="-115.94,926.1 -115.94,926.1 -115.95,926.11 -115.95,926.11 -115.95,926.11 -58.14,1000.71 
				-58.13,1000.71 -0.33,926.11 -0.33,926.1 -115.94,926.1 			"/>
			<rect x="-58.14" y="851.5" class="st10" width="0" height="0"/>
			
				<linearGradient id="SVGID_7_" gradientUnits="userSpaceOnUse" x1="-58.1367" y1="2611.1436" x2="-58.1367" y2="2609.0757" gradientTransform="matrix(1 0 0 -1 0 3462.6309)">
				<stop  offset="0" style="stop-color:#0D2333"/>
				<stop  offset="0.1413" style="stop-color:#0D2333"/>
				<stop  offset="1" style="stop-color:#0D2333"/>
			</linearGradient>
			<rect x="-58.14" y="851.5" class="st13" width="0" height="0"/>
			<polygon class="st11" points="-115.94,926.1 -115.94,926.1 -58.14,851.5 -58.14,851.5 			"/>
			
				<linearGradient id="SVGID_8_" gradientUnits="userSpaceOnUse" x1="-87.039" y1="2611.134" x2="-87.039" y2="2461.9343" gradientTransform="matrix(1 0 0 -1 0 3462.6309)">
				<stop  offset="0" style="stop-color:#0D2333"/>
				<stop  offset="0.1413" style="stop-color:#0D2333"/>
				<stop  offset="1" style="stop-color:#0D2333"/>
			</linearGradient>
			<polygon class="st14" points="-115.94,926.1 -115.94,926.1 -58.14,851.5 -58.14,851.5 			"/>
			
				<linearGradient id="SVGID_9_" gradientUnits="userSpaceOnUse" x1="-115.948" y1="2536.5251" x2="-115.948" y2="2536.5251" gradientTransform="matrix(1 0 0 -1 0 3462.6309)">
				<stop  offset="0" style="stop-color:#0D2333"/>
				<stop  offset="0.1413" style="stop-color:#0D2333"/>
				<stop  offset="1" style="stop-color:#0D2333"/>
			</linearGradient>
			<polygon class="st15" points="-115.95,926.11 -115.95,926.11 -115.95,926.11 -115.95,926.11 			"/>
			
				<linearGradient id="SVGID_10_" gradientUnits="userSpaceOnUse" x1="-115.948" y1="2536.5251" x2="-115.948" y2="2536.5251" gradientTransform="matrix(1 0 0 -1 0 3462.6309)">
				<stop  offset="0" style="stop-color:#0D2333"/>
				<stop  offset="0.1413" style="stop-color:#0D2333"/>
				<stop  offset="1" style="stop-color:#0D2333"/>
			</linearGradient>
			<polygon class="st16" points="-115.95,926.11 -115.95,926.11 -115.95,926.11 -115.95,926.11 			"/>
			
				<linearGradient id="SVGID_11_" gradientUnits="userSpaceOnUse" x1="-116.5875" y1="2535.8877" x2="-115.2951" y2="2537.1802" gradientTransform="matrix(1 0 0 -1 0 3462.6309)">
				<stop  offset="0" style="stop-color:#0D2333"/>
				<stop  offset="0.1413" style="stop-color:#0D2333"/>
				<stop  offset="1" style="stop-color:#0D2333"/>
			</linearGradient>
			<rect x="-115.94" y="926.1" class="st17" width="0" height="0"/>
			
				<linearGradient id="SVGID_12_" gradientUnits="userSpaceOnUse" x1="-115.9412" y1="2537.8267" x2="-115.9412" y2="2535.2417" gradientTransform="matrix(1 0 0 -1 0 3462.6309)">
				<stop  offset="0" style="stop-color:#0D2333"/>
				<stop  offset="0.1413" style="stop-color:#0D2333"/>
				<stop  offset="1" style="stop-color:#0D2333"/>
			</linearGradient>
			<rect x="-115.94" y="926.1" class="st18" width="0" height="0"/>
			<polygon class="st10" points="57.48,1000.73 -0.32,1075.31 115.27,1075.31 			"/>
			<polygon class="st7" points="-115.94,627.66 -115.95,627.67 -58.14,702.27 -58.14,702.27 -58.14,702.28 -58.13,702.27 
				-58.13,702.27 57.48,702.27 -0.33,627.67 -0.33,627.66 			"/>
			<polygon class="st11" points="-58.14,553.06 -115.94,627.66 -0.33,627.66 			"/>
			<polygon class="st19" points="57.48,1000.73 115.27,1075.31 115.29,1075.31 115.29,1075.31 115.31,1075.31 230.89,1075.31 
				173.09,1000.71 173.08,1000.71 57.49,1000.71 57.49,1000.71 57.48,1000.71 57.47,1000.71 57.47,1000.71 			"/>
			<polygon class="st9" points="173.1,1000.71 173.1,1000.71 173.1,1000.7 115.3,926.11 57.49,1000.71 173.08,1000.71 			"/>
			<polygon class="st11" points="115.29,627.66 115.3,627.66 173.11,553.06 173.1,553.06 57.49,553.06 57.49,553.06 			"/>
			<polygon class="st9" points="247.07,905.27 230.93,926.1 346.54,926.1 288.73,851.5 			"/>
			<polygon class="st6" points="288.73,851.5 288.72,851.49 230.92,776.89 173.12,851.49 173.11,851.49 173.12,851.49 173.1,851.49 
				173.11,851.5 173.11,851.5 173.11,851.5 220.29,912.39 230.91,926.1 230.91,926.1 115.3,926.1 115.29,926.1 57.49,851.5 
				-0.32,926.1 -0.33,926.1 -0.33,926.11 -58.13,1000.71 57.47,1000.71 57.48,1000.71 57.49,1000.71 57.49,1000.71 115.3,926.11 
				173.1,1000.7 230.9,926.11 230.91,926.12 230.92,926.11 230.93,926.1 230.93,926.1 230.93,926.1 247.07,905.27 			"/>
			<polygon class="st9" points="173.1,851.49 173.12,851.49 230.92,776.89 230.91,776.88 115.3,776.88 115.3,776.89 			"/>
			<polygon class="st20" points="173.12,1000.71 173.1,1000.71 173.11,1000.71 			"/>
			<polygon class="st20" points="-0.32,776.88 -0.33,776.88 -0.33,776.89 			"/>
			<polygon class="st20" points="57.48,851.49 57.49,851.5 57.49,851.49 			"/>
			<polygon class="st20" points="-58.14,1000.71 -58.13,1000.71 -58.14,1000.71 			"/>
			<polygon class="st20" points="-0.32,1075.31 -0.33,1075.31 -0.33,1075.32 			"/>
			<polygon class="st20" points="-115.96,926.1 -115.95,926.11 -115.95,926.11 -115.94,926.1 -115.94,926.1 			"/>
			<polygon class="st20" points="-58.13,553.06 -58.14,553.06 -58.14,553.06 			"/>
			<polygon class="st20" points="-115.94,1075.31 -115.96,1075.31 -115.95,1075.32 			"/>
			<polygon class="st6" points="236.96,690.89 236.96,690.89 216.88,664.97 196.79,690.89 			"/>
			<polygon class="st9" points="169.52,537.22 169.52,537.22 137.97,496.52 106.43,537.22 			"/>
			<polygon class="st20" points="-58.14,851.5 -58.14,851.5 -58.13,851.49 -58.14,851.49 			"/>
			<polygon class="st20" points="173.11,553.06 173.1,553.06 173.11,553.06 			"/>
			<polygon class="st20" points="-0.32,627.66 -0.33,627.66 -0.33,627.67 			"/>
			<polygon class="st20" points="288.74,1000.71 288.72,1000.71 288.73,1000.71 			"/>
			<polygon class="st20" points="346.54,926.11 346.55,926.1 346.54,926.1 			"/>
			<polygon class="st20" points="-0.33,478.45 -0.33,478.45 -0.32,478.45 			"/>
			<polygon class="st20" points="288.74,851.49 288.72,851.49 288.73,851.5 			"/>
			<polygon class="st20" points="57.49,553.06 57.48,553.06 57.49,553.06 			"/>
			<polygon class="st20" points="230.93,776.88 230.91,776.88 230.92,776.89 			"/>
			<polygon class="st21" points="173.1,702.27 57.49,702.27 57.49,702.27 57.49,702.27 57.48,702.27 57.48,702.27 57.49,702.28 
				115.29,776.88 115.3,776.89 115.3,776.88 173.11,702.28 173.11,702.27 173.1,702.27 173.1,702.27 			"/>
			<g>
				<path class="st3" d="M173.1,702.27L173.1,702.27L173.1,702.27z"/>
				<polygon class="st9" points="-0.32,627.66 -0.33,627.67 57.48,702.27 115.29,627.66 				"/>
				<polygon class="st6" points="115.29,627.66 57.48,702.27 173.13,702.27 				"/>
			</g>
			<polygon class="st7" points="57.46,1000.71 57.48,1000.71 115.27,926.12 115.26,926.11 115.27,926.1 -0.33,926.1 -0.34,926.11 
							"/>
			<linearGradient id="SVGID_13_" gradientUnits="userSpaceOnUse" x1="115.3093" y1="963.4056" x2="230.9228" y2="963.4056">
				<stop  offset="0.3731" style="stop-color:#0D2333"/>
				<stop  offset="0.3979" style="stop-color:#394B58"/>
				<stop  offset="0.4254" style="stop-color:#62707B"/>
				<stop  offset="0.4563" style="stop-color:#88939B"/>
				<stop  offset="0.49" style="stop-color:#A8B0B6"/>
				<stop  offset="0.5272" style="stop-color:#C4C9CD"/>
				<stop  offset="0.5692" style="stop-color:#DADDDF"/>
				<stop  offset="0.6182" style="stop-color:#EBECEE"/>
				<stop  offset="0.6789" style="stop-color:#F6F7F8"/>
				<stop  offset="0.7639" style="stop-color:#FDFDFD"/>
				<stop  offset="1" style="stop-color:#FFFFFF"/>
			</linearGradient>
			<polygon class="st22" points="173.11,1000.71 173.13,1000.71 230.92,926.12 230.91,926.11 230.92,926.1 115.32,926.1 
				115.31,926.11 			"/>
			<polygon class="st2" points="115.29,627.66 115.29,627.66 173.12,553.08 173.11,553.07 173.11,553.06 57.51,553.06 57.5,553.07 
							"/>
			<polygon class="st23" points="-0.61,777.02 -0.6,777.02 57.2,702.44 57.19,702.42 57.19,702.41 -58.41,702.41 -58.42,702.42 			
				"/>
			<linearGradient id="SVGID_14_" gradientUnits="userSpaceOnUse" x1="154.8051" y1="780.3657" x2="274.5405" y2="866.1652">
				<stop  offset="0.3731" style="stop-color:#0D2333"/>
				<stop  offset="0.3979" style="stop-color:#394B58"/>
				<stop  offset="0.4254" style="stop-color:#62707B"/>
				<stop  offset="0.4563" style="stop-color:#88939B"/>
				<stop  offset="0.49" style="stop-color:#A8B0B6"/>
				<stop  offset="0.5272" style="stop-color:#C4C9CD"/>
				<stop  offset="0.5692" style="stop-color:#DADDDF"/>
				<stop  offset="0.6182" style="stop-color:#EBECEE"/>
				<stop  offset="0.6789" style="stop-color:#F6F7F8"/>
				<stop  offset="0.7639" style="stop-color:#FDFDFD"/>
				<stop  offset="1" style="stop-color:#FFFFFF"/>
			</linearGradient>
			<polygon class="st24" points="288.71,851.48 278.08,837.78 230.9,776.88 173.1,851.48 			"/>
			<polygon class="st21" points="272.59,872.32 288.73,851.49 173.12,851.49 230.93,926.09 			"/>
		</g>
		<polygon class="st7" points="190.9,694.03 156.2,738.81 156.2,738.82 156.2,738.82 225.6,738.82 		"/>
	</g>
</g>
<polygon class="st9" points="0,885.23 89.42,1000.63 0,1000.63 "/>
<g class="st25">
	<g class="st26">
		<path class="st4" d="M726.17,529.83h15.08c3.99,0,6.98,0.8,8.98,2.4c2,1.6,2.99,4.19,2.99,7.77c0,2.15-0.32,3.85-0.96,5.11
			c-0.64,1.26-1.73,2.38-3.28,3.36c1.69,0.72,2.95,1.75,3.76,3.11c0.81,1.35,1.21,3.24,1.21,5.65c0,3.73-1.09,6.49-3.28,8.3
			c-2.18,1.81-5.25,2.71-9.21,2.71h-15.31V529.83z M740.86,536.49h-6.89v9.15h6.95c2.94,0,4.41-1.52,4.41-4.57
			S743.83,536.49,740.86,536.49z M741.08,552.19h-7.12v9.38h7.12c1.69,0,2.95-0.34,3.76-1.02c0.81-0.68,1.21-1.92,1.21-3.73
			C746.05,553.74,744.39,552.19,741.08,552.19z"/>
		<path class="st4" d="M768.19,568.23l8.64-38.4h14.8l8.64,38.4h-7.79l-1.52-6.95h-13.44l-1.52,6.95H768.19z M782.87,536.27
			l-3.9,18.24h10.5l-3.9-18.24H782.87z"/>
		<path class="st4" d="M840.54,567.61c-3.99,0.87-7.59,1.3-10.79,1.3c-3.2,0-5.76-0.4-7.68-1.19c-1.92-0.79-3.43-2.05-4.52-3.78
			c-1.09-1.73-1.84-3.76-2.26-6.1c-0.42-2.33-0.62-5.27-0.62-8.81c0-7.42,1.04-12.58,3.13-15.5c2.09-2.92,5.94-4.38,11.55-4.38
			c3.24,0,6.98,0.51,11.24,1.52l-0.23,6.21c-3.73-0.56-6.82-0.85-9.29-0.85c-2.47,0-4.23,0.33-5.28,0.99
			c-1.05,0.66-1.84,1.91-2.34,3.76c-0.51,1.85-0.76,4.99-0.76,9.43c0,4.44,0.52,7.52,1.55,9.23c1.04,1.71,3.11,2.57,6.21,2.57
			c3.11,0,6.41-0.26,9.91-0.79L840.54,567.61z"/>
		<path class="st4" d="M865.95,568.23h-7.79v-38.4h7.79v16.89l5.2-0.56l6.33-16.32h8.87l-8.36,19.26l8.58,19.15h-8.98l-6.44-15.31
			l-5.2,0.56V568.23z"/>
		<path class="st4" d="M918.53,554.45v-6.78h11.18v19.94c-5.38,0.87-9.75,1.3-13.1,1.3c-5.99,0-10.1-1.6-12.34-4.8
			c-2.24-3.2-3.36-8.28-3.36-15.25c0-6.97,1.17-11.99,3.5-15.08c2.33-3.09,6.31-4.63,11.92-4.63c3.5,0,7.29,0.4,11.35,1.19l2.03,0.4
			l-0.23,6.04c-4.52-0.49-8.22-0.73-11.1-0.73s-4.9,0.34-6.07,1.02c-1.17,0.68-2.02,1.93-2.57,3.76c-0.55,1.83-0.82,4.95-0.82,9.38
			c0,4.42,0.55,7.52,1.64,9.29c1.09,1.77,3.35,2.65,6.78,2.65l4.69-0.23v-7.46H918.53z"/>
		<path class="st4" d="M956.14,555.36v12.88h-7.79v-38.4h14.91c9.04,0,13.55,4.22,13.55,12.65c0,5.01-1.88,8.7-5.65,11.07
			l5.48,14.68h-8.53l-4.46-12.88H956.14z M967.49,547c0.9-1.13,1.36-2.62,1.36-4.46c0-1.84-0.48-3.31-1.44-4.4
			c-0.96-1.09-2.34-1.64-4.15-1.64h-7.12v12.2h7.23C965.21,548.69,966.59,548.13,967.49,547z"/>
		<path class="st4" d="M1021.23,564.14c-2.39,3.18-6.5,4.77-12.34,4.77c-5.84,0-9.95-1.59-12.34-4.77
			c-2.39-3.18-3.59-8.16-3.59-14.94c0-6.78,1.19-11.81,3.59-15.11c2.39-3.29,6.5-4.94,12.34-4.94c5.84,0,9.95,1.65,12.34,4.94
			c2.39,3.29,3.59,8.33,3.59,15.11C1024.82,555.98,1023.62,560.96,1021.23,564.14z M1002.65,559.17c1.11,1.98,3.19,2.96,6.24,2.96
			s5.13-0.99,6.24-2.96c1.11-1.98,1.67-5.29,1.67-9.94c0-4.65-0.57-8.03-1.69-10.14c-1.13-2.11-3.2-3.16-6.21-3.16
			c-3.01,0-5.08,1.05-6.21,3.16c-1.13,2.11-1.69,5.49-1.69,10.14C1000.98,553.88,1001.54,557.19,1002.65,559.17z"/>
		<path class="st4" d="M1050.23,555.41c0,4.48,2.28,6.72,6.83,6.72c4.55,0,6.83-2.24,6.83-6.72v-25.58h7.79v25.41
			c0,4.71-1.21,8.16-3.64,10.36c-2.43,2.2-6.09,3.3-10.98,3.3c-4.9,0-8.56-1.1-10.99-3.3c-2.43-2.2-3.64-5.66-3.64-10.36v-25.41
			h7.79V555.41z"/>
		<path class="st4" d="M1091,568.23v-38.4h13.16l9.26,31.63h0.56v-31.63h7.79v38.4h-12.82l-9.6-31.63h-0.57v31.63H1091z"/>
		<path class="st4" d="M1154.37,568.23h-12.93v-38.4h12.93c3.31,0,6.04,0.35,8.19,1.04c2.15,0.7,3.81,1.85,5,3.45
			c1.19,1.6,2,3.48,2.46,5.65c0.45,2.17,0.68,4.98,0.68,8.44c0,3.46-0.21,6.34-0.62,8.61c-0.41,2.28-1.2,4.31-2.34,6.1
			c-1.15,1.79-2.81,3.09-5,3.9C1160.54,567.83,1157.76,568.23,1154.37,568.23z M1162.56,552.98c0.07-1.2,0.11-2.87,0.11-5
			c0-2.13-0.08-3.83-0.23-5.11c-0.15-1.28-0.51-2.45-1.07-3.5c-0.56-1.05-1.4-1.78-2.51-2.17c-1.11-0.4-2.61-0.59-4.49-0.59h-5.14
			v24.85h5.14c2.82,0,4.88-0.71,6.16-2.15C1161.62,558.14,1162.3,556.03,1162.56,552.98z"/>
	</g>
	<g class="st26">
		<path d="M774.72,504.61l-6.51-15.27h-31.04l-6.59,15.27h-7.09l26.11-59.4h6.01l26.11,59.4H774.72z M739.6,483.67h26.2l-13.1-30.54
			L739.6,483.67z"/>
		<path d="M833.04,479.21c1.89,2.48,2.84,5.55,2.84,9.22c0,5.17-1.72,9.16-5.17,11.97c-3.45,2.81-8.32,4.21-14.6,4.21h-24.7v-59.4
			h23.86c6.06,0,10.78,1.35,14.14,4.05c3.37,2.7,5.05,6.52,5.05,11.47c0,3.17-0.82,5.91-2.46,8.22c-1.64,2.31-3.94,4.02-6.88,5.13
			C828.5,475.03,831.15,476.74,833.04,479.21z M798.16,471.58h16.02c4.45,0,7.81-0.89,10.09-2.67c2.28-1.78,3.42-4.39,3.42-7.84
			c0-6.79-4.5-10.18-13.52-10.18h-16.02V471.58z M825.82,496.31c2.2-1.75,3.29-4.44,3.29-8.05c0-7.29-4.53-10.93-13.6-10.93h-17.35
			v21.61h17.35C820.19,498.94,823.62,498.06,825.82,496.31z"/>
		<path d="M845.72,497.77l2.59-5.26c2.95,2.5,5.95,4.28,9.01,5.34c3.06,1.06,6.62,1.58,10.68,1.58c4.78,0,8.47-0.93,11.05-2.79
			c2.59-1.86,3.88-4.49,3.88-7.88c0-2-0.63-3.63-1.88-4.88c-1.25-1.25-2.89-2.24-4.92-2.96c-2.03-0.72-4.74-1.47-8.13-2.25
			c-4.56-1-8.32-2.09-11.26-3.25c-2.95-1.17-5.34-2.85-7.17-5.05c-1.84-2.2-2.75-5.08-2.75-8.64c0-3.39,0.89-6.38,2.67-8.97
			c1.78-2.59,4.3-4.6,7.55-6.05c3.25-1.45,7.05-2.17,11.39-2.17c4.12,0,7.95,0.64,11.51,1.92c3.56,1.28,6.56,3.14,9.01,5.59
			l-2.67,5.26c-2.78-2.39-5.6-4.14-8.47-5.26c-2.87-1.11-5.99-1.67-9.39-1.67c-4.62,0-8.23,0.99-10.85,2.96
			c-2.61,1.98-3.92,4.69-3.92,8.13c0,3,1.14,5.26,3.42,6.76c2.28,1.5,5.78,2.81,10.51,3.92c5.12,1.22,9.14,2.35,12.06,3.38
			c2.92,1.03,5.35,2.59,7.3,4.67c1.95,2.09,2.92,4.85,2.92,8.3c0,3.34-0.89,6.27-2.67,8.8c-1.78,2.53-4.33,4.49-7.63,5.88
			c-3.31,1.39-7.19,2.09-11.64,2.09C858.62,505.28,851.23,502.78,845.72,497.77z"/>
		<path d="M914.97,504.61v-53.56h-20.69v-5.84h48.31v5.84h-20.69v53.56H914.97z"/>
		<path d="M998.4,504.61h-7.26l-7.34-19.77c-0.89-2.45-2.13-4.09-3.71-4.92c-1.59-0.83-3.83-1.25-6.72-1.25h-14.85v25.95h-6.76
			v-59.4h23.61c6.4,0,11.3,1.42,14.73,4.25c3.42,2.84,5.13,6.92,5.13,12.26c0,3.89-1.02,7.16-3.05,9.8
			c-2.03,2.64-4.96,4.52-8.8,5.63c1.72,0.28,3.2,1.02,4.42,2.21c1.22,1.2,2.25,2.91,3.09,5.13L998.4,504.61z M974.78,472.99
			c9.12,0,13.68-3.73,13.68-11.18c0-3.67-1.11-6.41-3.34-8.22c-2.22-1.81-5.67-2.71-10.34-2.71h-16.27v22.11H974.78z"/>
		<path d="M1055.29,504.61l-6.51-15.27h-31.04l-6.59,15.27h-7.09l26.11-59.4h6.01l26.11,59.4H1055.29z M1020.17,483.67h26.2
			l-13.1-30.54L1020.17,483.67z"/>
		<path d="M1080.7,501.61c-4.14-2.45-7.33-5.97-9.55-10.55c-2.23-4.59-3.34-10-3.34-16.23c0-6.23,1.11-11.61,3.34-16.14
			c2.22-4.53,5.41-8.02,9.55-10.47c4.14-2.45,9.02-3.67,14.64-3.67c4.12,0,7.88,0.63,11.3,1.88c3.42,1.25,6.38,3.13,8.89,5.63
			l-2.59,5.26c-2.84-2.45-5.63-4.2-8.38-5.26c-2.75-1.06-5.8-1.58-9.14-1.58c-6.51,0-11.56,2.11-15.14,6.34
			c-3.59,4.23-5.38,10.23-5.38,18.02c0,7.84,1.78,13.89,5.34,18.15c3.56,4.25,8.62,6.38,15.18,6.38c3.34,0,6.38-0.53,9.14-1.58
			c2.75-1.06,5.55-2.81,8.38-5.26l2.59,5.26c-2.5,2.5-5.46,4.38-8.89,5.63c-3.42,1.25-7.19,1.88-11.3,1.88
			C1089.72,505.28,1084.84,504.06,1080.7,501.61z"/>
		<path d="M1141.4,504.61v-53.56h-20.69v-5.84h48.31v5.84h-20.69v53.56H1141.4z"/>
	</g>
</g>
</svg>
